<svg viewBox="0 0 800 420" xmlns="http://www.w3.org/2000/svg" role="img">
<title>The Fisher matrix near the overlap singularity and the basin of the stable part</title>
<desc>Left: on logarithmic axes the four eigenvalues of the Fisher matrix of the two-neuron perceptron against the distance u between the two input weights: two stay of order one, the second smallest falls like u squared and the smallest like u to the sixth, and a layer-wise block-diagonal approximation falls like u squared in both small directions. Right: in the plane of z and u, the basin of the stable part of the overlap singularity for a teacher with K positive is a wedge between the line z equal to 1 and the printed separatrix; dots are bisection results on the exact flow.</desc>
<style>
  text{font-family:ui-sans-serif,-apple-system,"Segoe UI",sans-serif;font-weight:400}
  .lab{font-size:11px;fill:#57564f} .hd{font-size:13px;font-weight:500;fill:#1a1a19}
  .sm{font-size:10.5px;fill:#57564f} .v{font-size:11px;fill:#1a1a19}
  .ax{stroke:#8a8880;stroke-width:0.9;fill:none} .gd{stroke:#e2e1da;stroke-width:0.6;fill:none}
  .s1{stroke:#2a78d6} .s2{stroke:#eb6834} .s3{stroke:#1baf7a} .s4{stroke:#eda100} .s0{stroke:#8a8880}
  .f1{fill:#2a78d6} .f2{fill:#eb6834} .f3{fill:#1baf7a} .f4{fill:#eda100} .f0{fill:#8a8880}
  .ln{stroke-width:2;fill:none;stroke-linecap:round;stroke-linejoin:round}
  .thin{stroke-width:1;fill:none}
  .dash{stroke-width:1.4;fill:none;stroke-dasharray:5 3}
  .con{stroke-width:0.9;fill:none;opacity:.75}
  .fillS{fill:#2a78d6;opacity:.08}
  .ring{stroke:#fdfdfc;stroke-width:1.5}
  .fillB{fill:#2a78d6;opacity:.85} .fillG{fill:#1baf7a;opacity:.85} .fillO{fill:#eb6834;opacity:.85}
  .sk{stroke:#1a1a19} .fk{fill:#1a1a19}
  .dot{stroke-width:1.2;fill:none;stroke-dasharray:1.5 3.5;stroke-linecap:round}
  @media (prefers-color-scheme: dark){
    .lab,.sm{fill:#b6b4ab} .hd,.v{fill:#eceae3} .ax{stroke:#85837b} .gd{stroke:#33312e}
    .s1{stroke:#3987e5} .s2{stroke:#d95926} .s3{stroke:#199e70} .s4{stroke:#c98500} .s0{stroke:#85837b}
    .f1{fill:#3987e5} .f2{fill:#d95926} .f3{fill:#199e70} .f4{fill:#c98500} .f0{fill:#85837b}
    .fillS{fill:#3987e5}
    .ring{stroke:#161615}
    .fillB{fill:#3987e5} .fillG{fill:#199e70} .fillO{fill:#d95926}
    .sk{stroke:#eceae3} .fk{fill:#eceae3}
  }
</style>
<line class="gd" x1="70" y1="271.5" x2="390" y2="271.5"/>
<text class="sm" x="64" y="275.0" text-anchor="end">10⁻¹²</text>
<line class="gd" x1="70" y1="202.6" x2="390" y2="202.6"/>
<text class="sm" x="64" y="206.1" text-anchor="end">10⁻⁸</text>
<line class="gd" x1="70" y1="133.6" x2="390" y2="133.6"/>
<text class="sm" x="64" y="137.1" text-anchor="end">10⁻⁴</text>
<line class="gd" x1="70" y1="64.6" x2="390" y2="64.6"/>
<text class="sm" x="64" y="68.1" text-anchor="end">1</text>
<line class="gd" x1="91.0" y1="56" x2="91.0" y2="306"/>
<text class="sm" x="91.0" y="321" text-anchor="middle">0.03</text>
<line class="gd" x1="150.0" y1="56" x2="150.0" y2="306"/>
<text class="sm" x="150.0" y="321" text-anchor="middle">0.05</text>
<line class="gd" x1="230.0" y1="56" x2="230.0" y2="306"/>
<text class="sm" x="230.0" y="321" text-anchor="middle">0.1</text>
<line class="gd" x1="310.0" y1="56" x2="310.0" y2="306"/>
<text class="sm" x="310.0" y="321" text-anchor="middle">0.2</text>
<line class="gd" x1="390.0" y1="56" x2="390.0" y2="306"/>
<text class="sm" x="390.0" y="321" text-anchor="middle">0.4</text>
<line class="ax" x1="70" y1="306" x2="390" y2="306"/>
<line class="ax" x1="70" y1="56" x2="70" y2="306"/>
<text class="lab" x="230.0" y="338" text-anchor="middle">u = w₂ − w₁</text>
<text class="lab" transform="translate(30,181.0) rotate(-90)" text-anchor="middle">eigenvalues of G</text>
<text class="hd" x="70" y="44">Fisher matrix near the overlap singularity</text>
<polyline class="ln s2" points="390.0,175.3 374.8,180.7 359.5,186.2 344.3,191.7 329.0,197.4 313.8,203.1 298.6,208.8 283.3,214.6 268.1,220.4 252.9,226.3 237.6,232.1 222.4,238.0 207.1,243.9 191.9,249.8 176.7,255.7 161.4,261.6 146.2,267.5 131.0,273.4 115.7,279.3 100.5,285.2 85.2,291.1 70.0,297.1"/>
<polyline class="ln s1" points="390.0,127.9 374.8,129.9 359.5,131.9 344.3,133.9 329.0,135.9 313.8,137.9 298.6,139.9 283.3,141.9 268.1,143.9 252.9,145.9 237.6,147.9 222.4,149.9 207.1,151.9 191.9,153.9 176.7,155.9 161.4,157.9 146.2,159.9 131.0,161.9 115.7,163.8 100.5,165.8 85.2,167.8 70.0,169.8"/>
<polyline class="ln s3" points="390.0,99.2 374.8,99.1 359.5,99.0 344.3,99.0 329.0,98.9 313.8,98.8 298.6,98.7 283.3,98.7 268.1,98.6 252.9,98.6 237.6,98.5 222.4,98.5 207.1,98.4 191.9,98.4 176.7,98.4 161.4,98.4 146.2,98.3 131.0,98.3 115.7,98.3 100.5,98.3 85.2,98.3 70.0,98.3"/>
<polyline class="ln s0" points="390.0,66.4 374.8,66.5 359.5,66.5 344.3,66.6 329.0,66.6 313.8,66.7 298.6,66.7 283.3,66.7 268.1,66.8 252.9,66.8 237.6,66.8 222.4,66.9 207.1,66.9 191.9,66.9 176.7,66.9 161.4,66.9 146.2,66.9 131.0,66.9 115.7,66.9 100.5,67.0 85.2,67.0 70.0,67.0"/>
<polyline class="dash s4" points="390.0,120.6 374.8,122.0 359.5,123.5 344.3,125.0 329.0,126.7 313.8,128.3 298.6,130.0 283.3,131.8 268.1,133.6 252.9,135.4 237.6,137.2 222.4,139.0 207.1,140.9 191.9,142.8 176.7,144.7 161.4,146.6 146.2,148.5 131.0,150.4 115.7,152.3 100.5,154.3 85.2,156.2 70.0,158.1"/>
<text class="sm" x="124.2" y="240.5" text-anchor="start">slope 6</text>
<text class="sm" x="171.0" y="175.0" text-anchor="start">slope 2</text>
<line class="s2" style="stroke-width:2.2" x1="212" y1="262" x2="234" y2="262"/>
<text class="sm" x="240" y="265.5">smallest (∝ u⁶)</text>
<line class="s1" style="stroke-width:2.2" x1="212" y1="277" x2="234" y2="277"/>
<text class="sm" x="240" y="280.5">second (∝ u²)</text>
<line class="dash s4" style="stroke-width:2.2" x1="212" y1="292" x2="234" y2="292"/>
<text class="sm" x="240" y="295.5">block approx. (u², u²)</text>
<line class="gd" x1="470" y1="306.0" x2="770" y2="306.0"/>
<text class="sm" x="464" y="309.5" text-anchor="end">0</text>
<line class="gd" x1="470" y1="222.7" x2="770" y2="222.7"/>
<text class="sm" x="464" y="226.2" text-anchor="end">0.2</text>
<line class="gd" x1="470" y1="139.3" x2="770" y2="139.3"/>
<text class="sm" x="464" y="142.8" text-anchor="end">0.4</text>
<line class="gd" x1="470" y1="56.0" x2="770" y2="56.0"/>
<text class="sm" x="464" y="59.5" text-anchor="end">0.6</text>
<line class="gd" x1="545.0" y1="56" x2="545.0" y2="306"/>
<text class="sm" x="545.0" y="321" text-anchor="middle">1</text>
<line class="gd" x1="620.0" y1="56" x2="620.0" y2="306"/>
<text class="sm" x="620.0" y="321" text-anchor="middle">1.04</text>
<line class="gd" x1="695.0" y1="56" x2="695.0" y2="306"/>
<text class="sm" x="695.0" y="321" text-anchor="middle">1.08</text>
<line class="gd" x1="770.0" y1="56" x2="770.0" y2="306"/>
<text class="sm" x="770.0" y="321" text-anchor="middle">1.12</text>
<line class="ax" x1="470" y1="306" x2="770" y2="306"/>
<line class="ax" x1="470" y1="56" x2="470" y2="306"/>
<text class="lab" x="620.0" y="338" text-anchor="middle">z</text>
<text class="lab" transform="translate(430,181.0) rotate(-90)" text-anchor="middle">u</text>
<text class="hd" x="470" y="44">Basin of the stable part of R_o (K > 0)</text>
<polygon class="fillS" points="545.2,305.6 547.1,301.6 549.0,297.6 550.9,293.6 552.7,289.6 554.6,285.6 556.5,281.6 558.4,277.6 560.3,273.6 562.2,269.6 564.1,265.6 566.0,261.6 567.9,257.7 569.7,253.7 571.6,249.7 573.5,245.7 575.4,241.8 577.3,237.8 579.2,233.8 581.1,229.9 583.0,225.9 584.9,221.9 586.7,218.0 588.6,214.0 590.5,210.1 592.4,206.1 594.3,202.2 596.2,198.3 598.1,194.3 600.0,190.4 601.9,186.4 603.8,182.5 605.6,178.6 607.5,174.7 609.4,170.7 611.3,166.8 613.2,162.9 615.1,159.0 617.0,155.1 618.9,151.2 620.8,147.2 622.6,143.3 624.5,139.4 626.4,135.5 628.3,131.6 630.2,127.7 632.1,123.9 634.0,120.0 635.9,116.1 637.8,112.2 639.6,108.3 641.5,104.4 643.4,100.6 645.3,96.7 647.2,92.8 649.1,88.9 651.0,85.1 652.9,81.2 654.8,77.3 656.6,73.5 658.5,69.6 660.4,65.8 662.3,61.9 664.2,58.1 770.0,58.1 770.0,306.0 545.2,306.0"/>
<polyline class="ln s1" points="545.2,305.6 547.1,301.6 549.0,297.6 550.9,293.6 552.7,289.6 554.6,285.6 556.5,281.6 558.4,277.6 560.3,273.6 562.2,269.6 564.1,265.6 566.0,261.6 567.9,257.7 569.7,253.7 571.6,249.7 573.5,245.7 575.4,241.8 577.3,237.8 579.2,233.8 581.1,229.9 583.0,225.9 584.9,221.9 586.7,218.0 588.6,214.0 590.5,210.1 592.4,206.1 594.3,202.2 596.2,198.3 598.1,194.3 600.0,190.4 601.9,186.4 603.8,182.5 605.6,178.6 607.5,174.7 609.4,170.7 611.3,166.8 613.2,162.9 615.1,159.0 617.0,155.1 618.9,151.2 620.8,147.2 622.6,143.3 624.5,139.4 626.4,135.5 628.3,131.6 630.2,127.7 632.1,123.9 634.0,120.0 635.9,116.1 637.8,112.2 639.6,108.3 641.5,104.4 643.4,100.6 645.3,96.7 647.2,92.8 649.1,88.9 651.0,85.1 652.9,81.2 654.8,77.3 656.6,73.5 658.5,69.6 660.4,65.8 662.3,61.9 664.2,58.1"/>
<polyline class="dash s0" points="545.0,306.0 662.7,56.0"/>
<polyline class="dash sk" points="545.0,306.0 545.0,56.0"/>
<circle class="f2 ring" cx="626.4" cy="139.3" r="4.4"/>
<circle class="f2 ring" cx="584.3" cy="222.7" r="4.4"/>
<text class="sm" x="685.6" y="256.0" text-anchor="middle">trapped: u → 0</text>
<text class="sm" x="498.1" y="181.0" text-anchor="start">escapes</text>
<text class="sm" x="550.6" y="68.5" text-anchor="start">|z| = 1</text>
<line class="s1" style="stroke-width:2.2" x1="486" y1="90" x2="508" y2="90"/>
<text class="sm" x="514" y="93.5">(12.148) through (1, 0)</text>
<line class="dash s0" style="stroke-width:2.2" x1="486" y1="105" x2="508" y2="105"/>
<text class="sm" x="514" y="108.5">wedge z − 1 = u/r</text>
<text class="sm" x="70" y="372">Left: at fixed (s, r, z) the two smallest eigenvalues of the Fisher matrix scale like u⁶ and u²; a layer-wise block</text>
<text class="sm" x="70" y="387">approximation keeps the null vectors on the overlap set but is only of order u² small. Right: the exact plain-gradient flow (dots:</text>
<text class="sm" x="70" y="402">bisection at u₀ = 0.4 and 0.2) has a wedge-shaped basin next to |z| = 1, as the printed separatrix says: finite measure, not stable.</text>
</svg>
