<svg viewBox="0 0 800 790" xmlns="http://www.w3.org/2000/svg" role="img">
<title>Independent component analysis: contrast, stability and equivariance</title>
<desc>Four panels. (a) Mutual information of the two outputs of a rotation of two independent uniform variables against the rotation angle: zero at 0 and 90 degrees, 1 minus ln 2 at 45 degrees, and 0.2945 at the offset of the principal component solution of the book's example. (b) The plane of the excess kurtoses of two sources with the region where the cubic nonlinearity gives a stable separating point, bounded by the curve (3 + k1)(3 + k2) = 9, and the tested source pairs. (c) Cross-talk index against learning step: the natural gradient gives the same curve for two mixing matrices, the ordinary gradient converges for one and diverges for the other. (d) Measured linear response of the online learning rule against the prediction from the Hessian, for four source and nonlinearity pairs.</desc>
<style>
  text{font-family:ui-sans-serif,-apple-system,"Segoe UI",sans-serif;font-weight:400}
  .lab{font-size:11px;fill:#57564f} .hd{font-size:13px;font-weight:500;fill:#1a1a19}
  .sm{font-size:10.5px;fill:#57564f} .v{font-size:11px;fill:#1a1a19}
  .ax{stroke:#8a8880;stroke-width:0.9;fill:none} .gd{stroke:#e2e1da;stroke-width:0.6;fill:none}
  .s1{stroke:#2a78d6} .s2{stroke:#eb6834} .s3{stroke:#1baf7a} .s4{stroke:#eda100} .s0{stroke:#8a8880}
  .f1{fill:#2a78d6} .f2{fill:#eb6834} .f3{fill:#1baf7a} .f4{fill:#eda100} .f0{fill:#8a8880}
  .ln{stroke-width:2;fill:none;stroke-linecap:round;stroke-linejoin:round}
  .thin{stroke-width:1;fill:none}
  .dash{stroke-width:1.4;fill:none;stroke-dasharray:5 3}
  .con{stroke-width:0.9;fill:none;opacity:.75}
  .fillS{fill:#2a78d6;opacity:.08}
  .ring{stroke:#fdfdfc;stroke-width:1.5}
  .fillB{fill:#2a78d6;opacity:.85} .fillG{fill:#1baf7a;opacity:.85} .fillO{fill:#eb6834;opacity:.85}
  .sk{stroke:#1a1a19} .fk{fill:#1a1a19}
  .halo{stroke:#fdfdfc;stroke-width:3.4px;stroke-linejoin:round;paint-order:stroke}
  .dot{stroke-width:1.2;fill:none;stroke-dasharray:1.5 3.5;stroke-linecap:round}
  @media (prefers-color-scheme: dark){
    .lab,.sm{fill:#b6b4ab} .hd,.v{fill:#eceae3} .ax{stroke:#85837b} .gd{stroke:#33312e}
    .s1{stroke:#3987e5} .s2{stroke:#d95926} .s3{stroke:#199e70} .s4{stroke:#c98500} .s0{stroke:#85837b}
    .f1{fill:#3987e5} .f2{fill:#d95926} .f3{fill:#199e70} .f4{fill:#c98500} .f0{fill:#85837b}
    .fillS{fill:#3987e5}
    .ring{stroke:#161615}
    .fillB{fill:#3987e5} .fillG{fill:#199e70} .fillO{fill:#d95926}
    .sk{stroke:#eceae3} .fk{fill:#eceae3}
    .halo{stroke:#161615}
  }
</style>
<line class="gd" x1="70" y1="306.0" x2="380" y2="306.0"/>
<text class="sm" x="64" y="309.5" text-anchor="end">0</text>
<line class="gd" x1="70" y1="236.6" x2="380" y2="236.6"/>
<text class="sm" x="64" y="240.1" text-anchor="end">0.1</text>
<line class="gd" x1="70" y1="167.1" x2="380" y2="167.1"/>
<text class="sm" x="64" y="170.6" text-anchor="end">0.2</text>
<line class="gd" x1="70" y1="97.7" x2="380" y2="97.7"/>
<text class="sm" x="64" y="101.2" text-anchor="end">0.3</text>
<line class="gd" x1="70.0" y1="56" x2="70.0" y2="306"/>
<text class="sm" x="70.0" y="321" text-anchor="middle">0</text>
<line class="gd" x1="121.7" y1="56" x2="121.7" y2="306"/>
<text class="sm" x="121.7" y="321" text-anchor="middle">15</text>
<line class="gd" x1="173.3" y1="56" x2="173.3" y2="306"/>
<text class="sm" x="173.3" y="321" text-anchor="middle">30</text>
<line class="gd" x1="225.0" y1="56" x2="225.0" y2="306"/>
<text class="sm" x="225.0" y="321" text-anchor="middle">45</text>
<line class="gd" x1="276.7" y1="56" x2="276.7" y2="306"/>
<text class="sm" x="276.7" y="321" text-anchor="middle">60</text>
<line class="gd" x1="328.3" y1="56" x2="328.3" y2="306"/>
<text class="sm" x="328.3" y="321" text-anchor="middle">75</text>
<line class="gd" x1="380.0" y1="56" x2="380.0" y2="306"/>
<text class="sm" x="380.0" y="321" text-anchor="middle">90</text>
<line class="ax" x1="70" y1="306" x2="380" y2="306"/>
<line class="ax" x1="70" y1="56" x2="70" y2="306"/>
<text class="lab" x="225.0" y="338" text-anchor="middle">rotation angle t (degrees)</text>
<text class="lab" transform="translate(30,181.0) rotate(-90)" text-anchor="middle">I(y_1, y_2) in nats</text>
<text class="hd" x="70" y="44">Two uniform sources, rotated</text>
<polyline class="ln s1" points="70.0,306.0 71.7,300.0 73.4,294.1 75.2,288.3 76.9,282.6 78.6,277.0 80.3,271.5 82.1,266.1 83.8,260.8 85.5,255.6 87.2,250.5 88.9,245.5 90.7,240.6 92.4,235.8 94.1,231.1 95.8,226.5 97.6,222.0 99.3,217.6 101.0,213.2 102.7,209.0 104.4,204.8 106.2,200.7 107.9,196.8 109.6,192.9 111.3,189.1 113.1,185.4 114.8,181.7 116.5,178.2 118.2,174.7 119.9,171.4 121.7,168.1 123.4,164.9 125.1,161.7 126.8,158.7 128.6,155.7 130.3,152.9 132.0,150.1 133.7,147.3 135.4,144.7 137.2,142.1 138.9,139.6 140.6,137.2 142.3,134.9 144.1,132.6 145.8,130.4 147.5,128.3 149.2,126.3 150.9,124.3 152.7,122.4 154.4,120.6 156.1,118.8 157.8,117.1 159.6,115.5 161.3,113.9 163.0,112.4 164.7,111.0 166.4,109.7 168.2,108.4 169.9,107.1 171.6,106.0 173.3,104.8 175.1,103.8 176.8,102.8 178.5,101.9 180.2,101.0 181.9,100.2 183.7,99.4 185.4,98.7 187.1,98.0 188.8,97.4 190.6,96.8 192.3,96.3 194.0,95.8 195.7,95.4 197.4,95.0 199.2,94.6 200.9,94.3 202.6,94.1 204.3,93.8 206.1,93.6 207.8,93.5 209.5,93.3 211.2,93.2 212.9,93.1 214.7,93.0 216.4,93.0 218.1,92.9 219.8,92.9 221.6,92.9 223.3,92.9 225.0,92.9 226.7,92.9 228.4,92.9 230.2,92.9 231.9,92.9 233.6,93.0 235.3,93.0 237.1,93.1 238.8,93.2 240.5,93.3 242.2,93.5 243.9,93.6 245.7,93.8 247.4,94.1 249.1,94.3 250.8,94.6 252.6,95.0 254.3,95.4 256.0,95.8 257.7,96.3 259.4,96.8 261.2,97.4 262.9,98.0 264.6,98.7 266.3,99.4 268.1,100.2 269.8,101.0 271.5,101.9 273.2,102.8 274.9,103.8 276.7,104.8 278.4,106.0 280.1,107.1 281.8,108.4 283.6,109.7 285.3,111.0 287.0,112.4 288.7,113.9 290.4,115.5 292.2,117.1 293.9,118.8 295.6,120.6 297.3,122.4 299.1,124.3 300.8,126.3 302.5,128.3 304.2,130.4 305.9,132.6 307.7,134.9 309.4,137.2 311.1,139.6 312.8,142.1 314.6,144.7 316.3,147.3 318.0,150.1 319.7,152.9 321.4,155.7 323.2,158.7 324.9,161.7 326.6,164.9 328.3,168.1 330.1,171.4 331.8,174.7 333.5,178.2 335.2,181.7 336.9,185.4 338.7,189.1 340.4,192.9 342.1,196.8 343.8,200.7 345.6,204.8 347.3,209.0 349.0,213.2 350.7,217.6 352.4,222.0 354.2,226.5 355.9,231.1 357.6,235.8 359.3,240.6 361.1,245.5 362.8,250.5 364.5,255.6 366.2,260.8 367.9,266.1 369.7,271.5 371.4,277.0 373.1,282.6 374.8,288.3 376.6,294.1 378.3,300.0 380.0,306.0"/>
<circle class="f3 ring" cx="70.0" cy="306.0" r="4.5"/>
<circle class="f3 ring" cx="380.0" cy="306.0" r="4.5"/>
<circle class="f2 ring" cx="179.2" cy="101.5" r="5"/>
<text class="sm halo" x="168.9" y="66.7" text-anchor="end">PCA: 31.7 deg off</text>
<text class="sm halo" x="168.9" y="86.2" text-anchor="end">I = 0.295 nats</text>
<text class="sm" x="228.4" y="80.3" text-anchor="start">1 - ln 2 at 45 deg</text>
<text class="sm" x="80.3" y="288.6" text-anchor="start">sources: I = 0</text>
<line class="gd" x1="470" y1="281.0" x2="770" y2="281.0"/>
<text class="sm" x="464" y="284.5" text-anchor="end">−1</text>
<line class="gd" x1="470" y1="231.0" x2="770" y2="231.0"/>
<text class="sm" x="464" y="234.5" text-anchor="end">0</text>
<line class="gd" x1="470" y1="181.0" x2="770" y2="181.0"/>
<text class="sm" x="464" y="184.5" text-anchor="end">1</text>
<line class="gd" x1="470" y1="131.0" x2="770" y2="131.0"/>
<text class="sm" x="464" y="134.5" text-anchor="end">2</text>
<line class="gd" x1="470" y1="81.0" x2="770" y2="81.0"/>
<text class="sm" x="464" y="84.5" text-anchor="end">3</text>
<line class="gd" x1="500.0" y1="56" x2="500.0" y2="306"/>
<text class="sm" x="500.0" y="321" text-anchor="middle">−1</text>
<line class="gd" x1="560.0" y1="56" x2="560.0" y2="306"/>
<text class="sm" x="560.0" y="321" text-anchor="middle">0</text>
<line class="gd" x1="620.0" y1="56" x2="620.0" y2="306"/>
<text class="sm" x="620.0" y="321" text-anchor="middle">1</text>
<line class="gd" x1="680.0" y1="56" x2="680.0" y2="306"/>
<text class="sm" x="680.0" y="321" text-anchor="middle">2</text>
<line class="gd" x1="740.0" y1="56" x2="740.0" y2="306"/>
<text class="sm" x="740.0" y="321" text-anchor="middle">3</text>
<line class="ax" x1="470" y1="306" x2="770" y2="306"/>
<line class="ax" x1="470" y1="56" x2="470" y2="306"/>
<text class="lab" x="620.0" y="338" text-anchor="middle">excess kurtosis of source 1</text>
<text class="lab" transform="translate(430,181.0) rotate(-90)" text-anchor="middle">excess kurtosis of source 2</text>
<text class="hd" x="470" y="44">Cubic phi: kappa_1 kappa_2 > 1</text>
<polygon class="fillS" points="470.0,306.0 740.0,306.0 740.0,306.0 738.6,305.7 737.3,305.4 735.9,305.1 734.6,304.9 733.2,304.6 731.9,304.3 730.5,304.0 729.1,303.7 727.8,303.4 726.4,303.1 725.1,302.8 723.7,302.4 722.4,302.1 721.0,301.8 719.6,301.5 718.3,301.2 716.9,300.9 715.6,300.5 714.2,300.2 712.9,299.9 711.5,299.6 710.2,299.2 708.8,298.9 707.4,298.5 706.1,298.2 704.7,297.9 703.4,297.5 702.0,297.2 700.7,296.8 699.3,296.4 697.9,296.1 696.6,295.7 695.2,295.3 693.9,295.0 692.5,294.6 691.2,294.2 689.8,293.8 688.4,293.5 687.1,293.1 685.7,292.7 684.4,292.3 683.0,291.9 681.7,291.5 680.3,291.1 678.9,290.7 677.6,290.3 676.2,289.9 674.9,289.4 673.5,289.0 672.2,288.6 670.8,288.2 669.4,287.7 668.1,287.3 666.7,286.8 665.4,286.4 664.0,285.9 662.7,285.5 661.3,285.0 659.9,284.6 658.6,284.1 657.2,283.6 655.9,283.1 654.5,282.6 653.2,282.2 651.8,281.7 650.5,281.2 649.1,280.7 647.7,280.2 646.4,279.6 645.0,279.1 643.7,278.6 642.3,278.1 641.0,277.5 639.6,277.0 638.2,276.4 636.9,275.9 635.5,275.3 634.2,274.8 632.8,274.2 631.5,273.6 630.1,273.0 628.7,272.5 627.4,271.9 626.0,271.3 624.7,270.6 623.3,270.0 622.0,269.4 620.6,268.8 619.2,268.1 617.9,267.5 616.5,266.9 615.2,266.2 613.8,265.5 612.5,264.9 611.1,264.2 609.7,263.5 608.4,262.8 607.0,262.1 605.7,261.4 604.3,260.6 603.0,259.9 601.6,259.2 600.3,258.4 598.9,257.7 597.5,256.9 596.2,256.1 594.8,255.3 593.5,254.5 592.1,253.7 590.8,252.9 589.4,252.1 588.0,251.2 586.7,250.4 585.3,249.5 584.0,248.6 582.6,247.7 581.3,246.8 579.9,245.9 578.5,245.0 577.2,244.1 575.8,243.1 574.5,242.2 573.1,241.2 571.8,240.2 570.4,239.2 569.0,238.2 567.7,237.1 566.3,236.1 565.0,235.0 563.6,234.0 562.3,232.9 560.9,231.8 559.5,230.6 558.2,229.5 556.8,228.3 555.5,227.1 554.1,225.9 552.8,224.7 551.4,223.5 550.1,222.2 548.7,220.9 547.3,219.6 546.0,218.3 544.6,217.0 543.3,215.6 541.9,214.2 540.6,212.8 539.2,211.4 537.8,209.9 536.5,208.5 535.1,206.9 533.8,205.4 532.4,203.8 531.1,202.3 529.7,200.6 528.3,199.0 527.0,197.3 525.6,195.6 524.3,193.9 522.9,192.1 521.6,190.3 520.2,188.4 518.8,186.5 517.5,184.6 516.1,182.7 514.8,180.7 513.4,178.6 512.1,176.5 510.7,174.4 509.3,172.3 508.0,170.0 506.6,167.8 505.3,165.5 503.9,163.1 502.6,160.7 501.2,158.2 499.8,155.7 498.5,153.1 497.1,150.5 495.8,147.8 494.4,145.0 493.1,142.2 491.7,139.3 490.4,136.3 489.0,133.3 487.6,130.2 486.3,127.0 484.9,123.7 483.6,120.3 482.2,116.8 480.9,113.3 479.5,109.6 478.1,105.9 476.8,102.0 475.4,98.1 474.1,94.0 472.7,89.8 471.4,85.5 470.0,81.0 470.0,306.0"/>
<polyline class="ln sk" points="470.0,81.0 471.4,85.5 472.7,89.8 474.1,94.0 475.4,98.1 476.8,102.0 478.1,105.9 479.5,109.6 480.9,113.3 482.2,116.8 483.6,120.3 484.9,123.7 486.3,127.0 487.6,130.2 489.0,133.3 490.4,136.3 491.7,139.3 493.1,142.2 494.4,145.0 495.8,147.8 497.1,150.5 498.5,153.1 499.8,155.7 501.2,158.2 502.6,160.7 503.9,163.1 505.3,165.5 506.6,167.8 508.0,170.0 509.3,172.3 510.7,174.4 512.1,176.5 513.4,178.6 514.8,180.7 516.1,182.7 517.5,184.6 518.8,186.5 520.2,188.4 521.6,190.3 522.9,192.1 524.3,193.9 525.6,195.6 527.0,197.3 528.3,199.0 529.7,200.6 531.1,202.3 532.4,203.8 533.8,205.4 535.1,206.9 536.5,208.5 537.8,209.9 539.2,211.4 540.6,212.8 541.9,214.2 543.3,215.6 544.6,217.0 546.0,218.3 547.3,219.6 548.7,220.9 550.1,222.2 551.4,223.5 552.8,224.7 554.1,225.9 555.5,227.1 556.8,228.3 558.2,229.5 559.5,230.6 560.9,231.8 562.3,232.9 563.6,234.0 565.0,235.0 566.3,236.1 567.7,237.1 569.0,238.2 570.4,239.2 571.8,240.2 573.1,241.2 574.5,242.2 575.8,243.1 577.2,244.1 578.5,245.0 579.9,245.9 581.3,246.8 582.6,247.7 584.0,248.6 585.3,249.5 586.7,250.4 588.0,251.2 589.4,252.1 590.8,252.9 592.1,253.7 593.5,254.5 594.8,255.3 596.2,256.1 597.5,256.9 598.9,257.7 600.3,258.4 601.6,259.2 603.0,259.9 604.3,260.6 605.7,261.4 607.0,262.1 608.4,262.8 609.7,263.5 611.1,264.2 612.5,264.9 613.8,265.5 615.2,266.2 616.5,266.9 617.9,267.5 619.2,268.1 620.6,268.8 622.0,269.4 623.3,270.0 624.7,270.6 626.0,271.3 627.4,271.9 628.7,272.5 630.1,273.0 631.5,273.6 632.8,274.2 634.2,274.8 635.5,275.3 636.9,275.9 638.2,276.4 639.6,277.0 641.0,277.5 642.3,278.1 643.7,278.6 645.0,279.1 646.4,279.6 647.7,280.2 649.1,280.7 650.5,281.2 651.8,281.7 653.2,282.2 654.5,282.6 655.9,283.1 657.2,283.6 658.6,284.1 659.9,284.6 661.3,285.0 662.7,285.5 664.0,285.9 665.4,286.4 666.7,286.8 668.1,287.3 669.4,287.7 670.8,288.2 672.2,288.6 673.5,289.0 674.9,289.4 676.2,289.9 677.6,290.3 678.9,290.7 680.3,291.1 681.7,291.5 683.0,291.9 684.4,292.3 685.7,292.7 687.1,293.1 688.4,293.5 689.8,293.8 691.2,294.2 692.5,294.6 693.9,295.0 695.2,295.3 696.6,295.7 697.9,296.1 699.3,296.4 700.7,296.8 702.0,297.2 703.4,297.5 704.7,297.9 706.1,298.2 707.4,298.5 708.8,298.9 710.2,299.2 711.5,299.6 712.9,299.9 714.2,300.2 715.6,300.5 716.9,300.9 718.3,301.2 719.6,301.5 721.0,301.8 722.4,302.1 723.7,302.4 725.1,302.8 726.4,303.1 727.8,303.4 729.1,303.7 730.5,304.0 731.9,304.3 733.2,304.6 734.6,304.9 735.9,305.1 737.3,305.4 738.6,305.7 740.0,306.0"/>
<circle class="f1 ring" cx="488.0" cy="291.0" r="4.4"/>
<circle class="f1 ring" cx="488.0" cy="291.0" r="2.6"/>
<text class="sm halo" x="493.4" y="285.0" text-anchor="start">U+U</text>
<circle class="f1 ring" cx="488.0" cy="296.6" r="4.4"/>
<circle class="f1 ring" cx="481.3" cy="291.0" r="2.6"/>
<text class="sm halo" x="493.4" y="310.6" text-anchor="start">U+B</text>
<circle class="f1 ring" cx="488.0" cy="171.0" r="4.4"/>
<circle class="f1 ring" cx="632.0" cy="291.0" r="2.6"/>
<text class="sm halo" x="493.4" y="166.0" text-anchor="start">U+Lg</text>
<circle class="f4 ring" cx="488.0" cy="131.0" r="4.4"/>
<circle class="f4 ring" cx="680.0" cy="291.0" r="2.6"/>
<text class="sm halo" x="493.4" y="126.0" text-anchor="start">U+S</text>
<circle class="f2 ring" cx="488.0" cy="81.0" r="4.4"/>
<circle class="f2 ring" cx="740.0" cy="291.0" r="2.6"/>
<text class="sm halo" x="493.4" y="76.0" text-anchor="start">U+La</text>
<circle class="f2 ring" cx="632.0" cy="171.0" r="4.4"/>
<circle class="f2 ring" cx="632.0" cy="171.0" r="2.6"/>
<text class="sm halo" x="637.4" y="166.0" text-anchor="start">Lg+Lg</text>
<circle class="f2 ring" cx="740.0" cy="81.0" r="4.4"/>
<circle class="f2 ring" cx="740.0" cy="81.0" r="2.6"/>
<text class="sm halo" x="745.4" y="76.0" text-anchor="start">La+La</text>
<text class="sm" x="476.0" y="213.5" text-anchor="start">stable</text>
<text class="sm" x="656.0" y="121.0" text-anchor="start">unstable</text>
<line class="gd" x1="70" y1="635.6" x2="380" y2="635.6"/>
<text class="sm" x="64" y="639.1" text-anchor="end">−3</text>
<line class="gd" x1="70" y1="583.5" x2="380" y2="583.5"/>
<text class="sm" x="64" y="587.0" text-anchor="end">−2</text>
<line class="gd" x1="70" y1="531.4" x2="380" y2="531.4"/>
<text class="sm" x="64" y="534.9" text-anchor="end">−1</text>
<line class="gd" x1="70" y1="479.3" x2="380" y2="479.3"/>
<text class="sm" x="64" y="482.8" text-anchor="end">0</text>
<line class="gd" x1="70" y1="427.2" x2="380" y2="427.2"/>
<text class="sm" x="64" y="430.8" text-anchor="end">1</text>
<line class="gd" x1="70.0" y1="396" x2="70.0" y2="646"/>
<text class="sm" x="70.0" y="661" text-anchor="middle">0</text>
<line class="gd" x1="147.5" y1="396" x2="147.5" y2="646"/>
<text class="sm" x="147.5" y="661" text-anchor="middle">150</text>
<line class="gd" x1="225.0" y1="396" x2="225.0" y2="646"/>
<text class="sm" x="225.0" y="661" text-anchor="middle">300</text>
<line class="gd" x1="302.5" y1="396" x2="302.5" y2="646"/>
<text class="sm" x="302.5" y="661" text-anchor="middle">450</text>
<line class="gd" x1="380.0" y1="396" x2="380.0" y2="646"/>
<text class="sm" x="380.0" y="661" text-anchor="middle">600</text>
<line class="ax" x1="70" y1="646" x2="380" y2="646"/>
<line class="ax" x1="70" y1="396" x2="70" y2="646"/>
<text class="lab" x="225.0" y="678" text-anchor="middle">learning step</text>
<text class="lab" transform="translate(30,521.0) rotate(-90)" text-anchor="middle">log10 cross-talk index</text>
<text class="hd" x="70" y="384">Natural gradient: one curve for any A</text>
<polyline class="ln s3" points="70.0,506.8 72.1,508.4 74.1,511.2 76.2,508.7 78.3,521.8 80.3,525.5 82.4,531.7 84.5,523.8 86.5,529.6 88.6,528.0 90.7,526.6 92.7,522.8 94.8,524.1 96.9,527.0 98.9,522.5 101.0,521.0 103.1,523.6 105.1,519.8 107.2,516.8 109.3,512.1 111.3,523.9 113.4,524.6 115.5,525.0 117.5,522.2 119.6,539.7 121.7,537.3 123.7,544.8 125.8,532.8 127.9,526.9 129.9,535.7 132.0,530.9 134.1,536.7 136.1,543.3 138.2,535.6 140.3,534.8 142.3,531.3 144.4,515.6 146.5,518.3 148.5,518.2 150.6,523.0 152.7,525.5 154.7,524.5 156.8,523.9 158.9,521.8 160.9,517.6 163.0,526.2 165.1,533.8 167.1,523.2 169.2,525.7 171.3,518.6 173.3,515.6 175.4,520.4 177.5,515.6 179.5,516.1 181.6,525.0 183.7,528.6 185.7,526.2 187.8,523.5 189.9,526.4 191.9,521.5 194.0,534.3 196.1,543.9 198.1,532.2 200.2,545.1 202.3,542.0 204.3,532.5 206.4,525.3 208.5,528.9 210.5,532.3 212.6,532.8 214.7,530.3 216.7,553.8 218.8,546.6 220.9,548.3 222.9,545.0 225.0,544.2 227.1,546.7 229.1,569.1 231.2,550.7 233.3,550.2 235.3,545.4 237.4,538.2 239.5,552.5 241.5,553.3 243.6,546.4 245.7,544.8 247.7,538.6 249.8,534.5 251.9,568.4 253.9,560.0 256.0,542.6 258.1,548.0 260.1,565.6 262.2,553.7 264.3,542.3 266.3,565.9 268.4,570.0 270.5,557.5 272.5,552.9 274.6,555.3 276.7,572.1 278.7,560.0 280.8,567.2 282.9,556.1 284.9,573.5 287.0,568.1 289.1,552.0 291.1,575.8 293.2,574.7 295.3,584.3 297.3,580.9 299.4,582.8 301.5,604.8 303.5,629.9 305.6,644.4 307.7,600.5 309.7,585.7 311.8,569.9 313.9,577.7 315.9,564.7 320.1,552.8 322.1,564.3 324.2,576.9 326.3,617.9 328.3,566.8 330.4,589.8 332.5,567.6 334.5,578.3 336.6,559.8 338.7,549.2 340.7,552.7 342.8,551.6 344.9,567.2 346.9,568.2 349.0,617.6 351.1,597.6 357.3,558.9 359.3,579.8 361.4,628.0 363.5,600.1 365.5,549.1 367.6,557.9 369.7,572.7 371.7,557.0 373.8,561.3 375.9,549.1 377.9,596.8"/>
<polyline class="ln s2" points="70.0,508.9 72.1,485.0 74.1,484.4 76.2,473.9 78.3,484.3 80.3,489.4"/>
<polyline class="ln s1" points="70.0,507.4 72.1,507.1 74.1,508.1 76.2,510.6 78.3,515.1 80.3,514.0 82.4,516.8 84.5,519.1 86.5,519.4 88.6,519.9 90.7,520.7 92.7,521.2 94.8,521.1 96.9,521.9 98.9,521.2 101.0,520.7 103.1,518.4 105.1,518.8 107.2,517.4 109.3,513.9 111.3,518.4 113.4,519.6 115.5,521.0 117.5,518.3 119.6,524.4 121.7,523.8 123.7,525.7 125.8,525.5 127.9,528.9 129.9,530.0 132.0,527.1 134.1,528.5 136.1,526.9 138.2,526.3 140.3,524.2 142.3,523.4 144.4,521.1 146.5,519.0 148.5,521.6 150.6,521.1 152.7,522.1 154.7,521.6 156.8,521.7 158.9,521.4 160.9,522.5 163.0,521.9 165.1,520.2 167.1,519.2 169.2,518.9 171.3,517.1 173.3,515.5 175.4,521.7 177.5,526.3 179.5,527.3 181.6,528.7 183.7,528.2 185.7,529.1 187.8,526.4 189.9,527.4 191.9,527.0 194.0,536.5 196.1,536.8 198.1,542.5 200.2,541.8 202.3,542.7 204.3,546.9 206.4,546.8 208.5,547.8 210.5,550.1 212.6,550.4 214.7,553.0 216.7,559.5 218.8,559.2 220.9,560.0 222.9,556.3 225.0,557.8 227.1,561.1 229.1,566.4 231.2,562.6 233.3,560.6 235.3,557.7 237.4,558.5 239.5,564.4 241.5,565.0 243.6,570.3 245.7,567.9 247.7,555.2 249.8,554.9 251.9,567.2 253.9,559.4 256.0,556.8 258.1,557.9 260.1,569.2 262.2,567.4 264.3,556.4 266.3,560.0 268.4,563.1 270.5,563.3 272.5,561.8 274.6,556.3 276.7,563.2 278.7,564.0 280.8,571.5 282.9,570.3 284.9,580.4 287.0,586.7 289.1,581.3 291.1,582.3 293.2,573.6 295.3,582.1 297.3,583.2 299.4,582.2 301.5,583.7 303.5,582.6 305.6,593.0 307.7,620.0 309.7,585.8 311.8,584.6 313.9,606.9 315.9,587.1 318.0,637.4 320.1,606.0 322.1,600.1 324.2,594.5 326.3,605.3 328.3,587.4 330.4,586.6 332.5,577.5 334.5,599.2 336.6,575.4 338.7,566.1 340.7,569.2 342.8,560.8 344.9,557.8 346.9,559.7 349.0,568.8 351.1,596.2 353.1,593.8 355.2,610.5 357.3,604.5 359.3,602.4 361.4,610.3 363.5,611.8 365.5,591.1 367.6,595.9 369.7,600.7 371.7,573.6 373.8,570.0 375.9,555.2 377.9,594.5"/>
<polyline class="dash s0" points="70.0,507.4 72.1,507.1 74.1,508.1 76.2,510.6 78.3,515.1 80.3,514.0 82.4,516.8 84.5,519.1 86.5,519.4 88.6,519.9 90.7,520.7 92.7,521.2 94.8,521.1 96.9,521.9 98.9,521.2 101.0,520.7 103.1,518.4 105.1,518.8 107.2,517.4 109.3,513.9 111.3,518.4 113.4,519.6 115.5,521.0 117.5,518.3 119.6,524.4 121.7,523.8 123.7,525.7 125.8,525.5 127.9,528.9 129.9,530.0 132.0,527.1 134.1,528.5 136.1,526.9 138.2,526.3 140.3,524.2 142.3,523.4 144.4,521.1 146.5,519.0 148.5,521.6 150.6,521.1 152.7,522.1 154.7,521.6 156.8,521.7 158.9,521.4 160.9,522.5 163.0,521.9 165.1,520.2 167.1,519.2 169.2,518.9 171.3,517.1 173.3,515.5 175.4,521.7 177.5,526.3 179.5,527.3 181.6,528.7 183.7,528.2 185.7,529.1 187.8,526.4 189.9,527.4 191.9,527.0 194.0,536.5 196.1,536.8 198.1,542.5 200.2,541.8 202.3,542.7 204.3,546.9 206.4,546.8 208.5,547.8 210.5,550.1 212.6,550.4 214.7,553.0 216.7,559.5 218.8,559.2 220.9,560.0 222.9,556.3 225.0,557.8 227.1,561.1 229.1,566.4 231.2,562.6 233.3,560.6 235.3,557.7 237.4,558.5 239.5,564.4 241.5,565.0 243.6,570.3 245.7,567.9 247.7,555.2 249.8,554.9 251.9,567.2 253.9,559.4 256.0,556.8 258.1,557.9 260.1,569.2 262.2,567.4 264.3,556.4 266.3,560.0 268.4,563.1 270.5,563.3 272.5,561.8 274.6,556.3 276.7,563.2 278.7,564.0 280.8,571.5 282.9,570.3 284.9,580.4 287.0,586.7 289.1,581.3 291.1,582.3 293.2,573.6 295.3,582.1 297.3,583.2 299.4,582.2 301.5,583.7 303.5,582.6 305.6,593.0 307.7,620.0 309.7,585.8 311.8,584.6 313.9,606.9 315.9,587.1 318.0,637.4 320.1,606.0 322.1,600.1 324.2,594.5 326.3,605.3 328.3,587.4 330.4,586.6 332.5,577.5 334.5,599.2 336.6,575.4 338.7,566.1 340.7,569.2 342.8,560.8 344.9,557.8 346.9,559.7 349.0,568.8 351.1,596.2 353.1,593.8 355.2,610.5 357.3,604.5 359.3,602.4 361.4,610.3 363.5,611.8 365.5,591.1 367.6,595.9 369.7,600.7 371.7,573.6 373.8,570.0 375.9,555.2 377.9,594.5"/>
<line class="ln s1" style="stroke-width:2.2" x1="170" y1="424" x2="192" y2="424"/>
<text class="sm" x="198" y="427.5">natural, A<tspan dy="3.5" font-size="8.5">1</tspan></text>
<line class="dash s0" style="stroke-width:2.2" x1="170" y1="439" x2="192" y2="439"/>
<text class="sm" x="198" y="442.5">natural, A<tspan dy="3.5" font-size="8.5">2</tspan><tspan dy="-3.5"> (same curve)</tspan></text>
<line class="ln s3" style="stroke-width:2.2" x1="170" y1="454" x2="192" y2="454"/>
<text class="sm" x="198" y="457.5">ordinary, A<tspan dy="3.5" font-size="8.5">1</tspan></text>
<line class="ln s2" style="stroke-width:2.2" x1="170" y1="469" x2="192" y2="469"/>
<text class="sm" x="198" y="472.5">ordinary, A<tspan dy="3.5" font-size="8.5">2</tspan><tspan dy="-3.5">: diverges</tspan></text>
<line class="gd" x1="470" y1="646.0" x2="770" y2="646.0"/>
<text class="sm" x="464" y="649.5" text-anchor="end">0</text>
<line class="gd" x1="470" y1="590.4" x2="770" y2="590.4"/>
<text class="sm" x="464" y="593.9" text-anchor="end">0.4</text>
<line class="gd" x1="470" y1="534.9" x2="770" y2="534.9"/>
<text class="sm" x="464" y="538.4" text-anchor="end">0.8</text>
<line class="gd" x1="470" y1="479.3" x2="770" y2="479.3"/>
<text class="sm" x="464" y="482.8" text-anchor="end">1.2</text>
<line class="gd" x1="470" y1="423.8" x2="770" y2="423.8"/>
<text class="sm" x="464" y="427.3" text-anchor="end">1.6</text>
<line class="gd" x1="470.0" y1="396" x2="470.0" y2="646"/>
<text class="sm" x="470.0" y="661" text-anchor="middle">0</text>
<line class="gd" x1="536.7" y1="396" x2="536.7" y2="646"/>
<text class="sm" x="536.7" y="661" text-anchor="middle">0.4</text>
<line class="gd" x1="603.3" y1="396" x2="603.3" y2="646"/>
<text class="sm" x="603.3" y="661" text-anchor="middle">0.8</text>
<line class="gd" x1="670.0" y1="396" x2="670.0" y2="646"/>
<text class="sm" x="670.0" y="661" text-anchor="middle">1.2</text>
<line class="gd" x1="736.7" y1="396" x2="736.7" y2="646"/>
<text class="sm" x="736.7" y="661" text-anchor="middle">1.6</text>
<line class="ax" x1="470" y1="646" x2="770" y2="646"/>
<line class="ax" x1="470" y1="396" x2="470" y2="646"/>
<text class="lab" x="620.0" y="678" text-anchor="middle">predicted exp(-h_min t)</text>
<text class="lab" transform="translate(430,521.0) rotate(-90)" text-anchor="middle">measured response</text>
<text class="hd" x="470" y="384">The learning rule against the Hessian</text>
<polyline class="dash s0" points="470.0,646.0 770.0,396.0"/>
<circle class="f4 ring" cx="513.9" cy="612.7" r="3.2"/>
<circle class="f1 ring" cx="513.9" cy="608.6" r="4.5"/>
<text class="sm" x="523.9" y="594.7" text-anchor="start">U+U cubic</text>
<circle class="f4 ring" cx="567.9" cy="565.8" r="3.2"/>
<circle class="f1 ring" cx="567.9" cy="563.8" r="4.5"/>
<text class="sm" x="576.2" y="576.3" text-anchor="start">Lg+La tanh</text>
<circle class="f4 ring" cx="738.2" cy="423.2" r="3.2"/>
<circle class="f1 ring" cx="738.2" cy="422.3" r="4.5"/>
<text class="sm" x="654.9" y="436.2" text-anchor="start">U+U tanh</text>
<circle class="f4 ring" cx="486" cy="420" r="3.2"/><text class="sm" x="494" y="424">eps = 0.01</text><circle class="f1 ring" cx="486" cy="436" r="4.5"/><text class="sm" x="494" y="440">extrapolated to eps = 0</text>
<text class="sm" x="70" y="706">(a) Second-order statistics fix the output only up to a rotation; independence picks the angle. (b) Stability of the</text>
<text class="sm" x="70" y="721">separating point for phi(y) = y<tspan dy="-4.5" font-size="8.5">3</tspan><tspan dy="4.5">: the shaded region is (3 + k</tspan><tspan dy="3.5" font-size="8.5">1</tspan><tspan dy="-3.5">)(3 + k</tspan><tspan dy="3.5" font-size="8.5">2</tspan><tspan dy="-3.5">) &lt; 9 (U uniform, B bimodal, Lg logistic, S sech,</tspan></text>
<text class="sm" x="70" y="736">La Laplace; small dots: the same pair with the roles swapped). (c) The natural gradient depends on A only through the</text>
<text class="sm" x="70" y="751">starting C = W A; the ordinary gradient does not. (d) Mean response of paired online runs to a perturbation along the</text>
<text class="sm" x="70" y="766">weakest eigenvector of the Hessian (t = 2) against the linearised prediction.</text>
</svg>
