<svg viewBox="0 0 800 430" xmlns="http://www.w3.org/2000/svg" role="img">
<title>Sparse recovery: the measurement threshold and the m-projection onto the L1 ball</title>
<desc>Left: fraction of exactly recovered k-sparse signals of length 200 against the number of measurements for k equal to 3, 5 and 8, with dotted vertical lines at the printed threshold 2 k ln n and circles at the measured 50 percent points, which are two to three times smaller. Right: in the plane, the diamond |theta|_1 &lt;= 1 and the regions of points whose m-projection onto it lies in the interior of an edge or at a vertex, the latter being the normal cones that make the solution sparse.</desc>
<style>
  text{font-family:ui-sans-serif,-apple-system,"Segoe UI",sans-serif;font-weight:400}
  .lab{font-size:11px;fill:#57564f} .hd{font-size:13px;font-weight:500;fill:#1a1a19}
  .sm{font-size:10.5px;fill:#57564f} .v{font-size:11px;fill:#1a1a19}
  .ax{stroke:#8a8880;stroke-width:0.9;fill:none} .gd{stroke:#e2e1da;stroke-width:0.6;fill:none}
  .s1{stroke:#2a78d6} .s2{stroke:#eb6834} .s3{stroke:#1baf7a} .s4{stroke:#eda100} .s0{stroke:#8a8880}
  .f1{fill:#2a78d6} .f2{fill:#eb6834} .f3{fill:#1baf7a} .f4{fill:#eda100} .f0{fill:#8a8880}
  .ln{stroke-width:2;fill:none;stroke-linecap:round;stroke-linejoin:round}
  .thin{stroke-width:1;fill:none}
  .dash{stroke-width:1.4;fill:none;stroke-dasharray:5 3}
  .con{stroke-width:0.9;fill:none;opacity:.75}
  .fillS{fill:#2a78d6;opacity:.08}
  .ring{stroke:#fdfdfc;stroke-width:1.5}
  .fillB{fill:#2a78d6;opacity:.85} .fillG{fill:#1baf7a;opacity:.85} .fillO{fill:#eb6834;opacity:.85}
  .sk{stroke:#1a1a19} .fk{fill:#1a1a19}
  .halo{stroke:#fdfdfc;stroke-width:3.4px;stroke-linejoin:round;paint-order:stroke}
  .dot{stroke-width:1.2;fill:none;stroke-dasharray:1.5 3.5;stroke-linecap:round}
  @media (prefers-color-scheme: dark){
    .lab,.sm{fill:#b6b4ab} .hd,.v{fill:#eceae3} .ax{stroke:#85837b} .gd{stroke:#33312e}
    .s1{stroke:#3987e5} .s2{stroke:#d95926} .s3{stroke:#199e70} .s4{stroke:#c98500} .s0{stroke:#85837b}
    .f1{fill:#3987e5} .f2{fill:#d95926} .f3{fill:#199e70} .f4{fill:#c98500} .f0{fill:#85837b}
    .fillS{fill:#3987e5}
    .ring{stroke:#161615}
    .fillB{fill:#3987e5} .fillG{fill:#199e70} .fillO{fill:#d95926}
    .sk{stroke:#eceae3} .fk{fill:#eceae3}
    .halo{stroke:#161615}
  }
</style>
<line class="gd" x1="70" y1="306.0" x2="390" y2="306.0"/>
<text class="sm" x="64" y="309.5" text-anchor="end">0</text>
<line class="gd" x1="70" y1="245.3" x2="390" y2="245.3"/>
<text class="sm" x="64" y="248.8" text-anchor="end">0.25</text>
<line class="gd" x1="70" y1="184.6" x2="390" y2="184.6"/>
<text class="sm" x="64" y="188.1" text-anchor="end">0.5</text>
<line class="gd" x1="70" y1="124.0" x2="390" y2="124.0"/>
<text class="sm" x="64" y="127.5" text-anchor="end">0.75</text>
<line class="gd" x1="70" y1="63.3" x2="390" y2="63.3"/>
<text class="sm" x="64" y="66.8" text-anchor="end">1</text>
<line class="gd" x1="70.0" y1="56" x2="70.0" y2="306"/>
<text class="sm" x="70.0" y="321" text-anchor="middle">10</text>
<line class="gd" x1="150.0" y1="56" x2="150.0" y2="306"/>
<text class="sm" x="150.0" y="321" text-anchor="middle">30</text>
<line class="gd" x1="230.0" y1="56" x2="230.0" y2="306"/>
<text class="sm" x="230.0" y="321" text-anchor="middle">50</text>
<line class="gd" x1="310.0" y1="56" x2="310.0" y2="306"/>
<text class="sm" x="310.0" y="321" text-anchor="middle">70</text>
<line class="gd" x1="390.0" y1="56" x2="390.0" y2="306"/>
<text class="sm" x="390.0" y="321" text-anchor="middle">90</text>
<line class="ax" x1="70" y1="306" x2="390" y2="306"/>
<line class="ax" x1="70" y1="56" x2="70" y2="306"/>
<text class="lab" x="230.0" y="338" text-anchor="middle">number of measurements m</text>
<text class="lab" transform="translate(30,181.0) rotate(-90)" text-anchor="middle">fraction of exact recoveries</text>
<text class="hd" x="70" y="44">n = 200: how many measurements?</text>
<polyline class="ln s1" points="70.0,289.8 86.0,200.8 102.0,168.5 118.0,103.7 134.0,63.3 150.0,63.3 174.0,63.3 206.0,63.3 254.0,63.3 310.0,63.3 390.0,63.3"/>
<circle class="f1 ring" cx="70.0" cy="289.8" r="3.2"/>
<circle class="f1 ring" cx="86.0" cy="200.8" r="3.2"/>
<circle class="f1 ring" cx="102.0" cy="168.5" r="3.2"/>
<circle class="f1 ring" cx="118.0" cy="103.7" r="3.2"/>
<circle class="f1 ring" cx="134.0" cy="63.3" r="3.2"/>
<circle class="f1 ring" cx="150.0" cy="63.3" r="3.2"/>
<circle class="f1 ring" cx="174.0" cy="63.3" r="3.2"/>
<circle class="f1 ring" cx="206.0" cy="63.3" r="3.2"/>
<circle class="f1 ring" cx="254.0" cy="63.3" r="3.2"/>
<circle class="f1 ring" cx="310.0" cy="63.3" r="3.2"/>
<circle class="f1 ring" cx="390.0" cy="63.3" r="3.2"/>
<polyline class="dot s1" points="157.2,306.0 157.2,63.3"/>
<circle class="f0 ring" cx="94.0" cy="184.6" r="4.6"/>
<polyline class="ln s3" points="70.0,306.0 86.0,306.0 102.0,273.6 118.0,233.2 134.0,111.8 150.0,87.6 174.0,63.3 206.0,63.3 254.0,63.3 310.0,63.3 390.0,63.3"/>
<circle class="f3 ring" cx="70.0" cy="306.0" r="3.2"/>
<circle class="f3 ring" cx="86.0" cy="306.0" r="3.2"/>
<circle class="f3 ring" cx="102.0" cy="273.6" r="3.2"/>
<circle class="f3 ring" cx="118.0" cy="233.2" r="3.2"/>
<circle class="f3 ring" cx="134.0" cy="111.8" r="3.2"/>
<circle class="f3 ring" cx="150.0" cy="87.6" r="3.2"/>
<circle class="f3 ring" cx="174.0" cy="63.3" r="3.2"/>
<circle class="f3 ring" cx="206.0" cy="63.3" r="3.2"/>
<circle class="f3 ring" cx="254.0" cy="63.3" r="3.2"/>
<circle class="f3 ring" cx="310.0" cy="63.3" r="3.2"/>
<circle class="f3 ring" cx="390.0" cy="63.3" r="3.2"/>
<polyline class="dot s3" points="241.9,306.0 241.9,63.3"/>
<circle class="f0 ring" cx="124.4" cy="184.6" r="4.6"/>
<polyline class="ln s2" points="70.0,306.0 86.0,306.0 102.0,306.0 118.0,297.9 134.0,289.8 150.0,225.1 174.0,152.3 206.0,95.6 254.0,63.3 310.0,63.3 390.0,63.3"/>
<circle class="f2 ring" cx="70.0" cy="306.0" r="3.2"/>
<circle class="f2 ring" cx="86.0" cy="306.0" r="3.2"/>
<circle class="f2 ring" cx="102.0" cy="306.0" r="3.2"/>
<circle class="f2 ring" cx="118.0" cy="297.9" r="3.2"/>
<circle class="f2 ring" cx="134.0" cy="289.8" r="3.2"/>
<circle class="f2 ring" cx="150.0" cy="225.1" r="3.2"/>
<circle class="f2 ring" cx="174.0" cy="152.3" r="3.2"/>
<circle class="f2 ring" cx="206.0" cy="95.6" r="3.2"/>
<circle class="f2 ring" cx="254.0" cy="63.3" r="3.2"/>
<circle class="f2 ring" cx="310.0" cy="63.3" r="3.2"/>
<circle class="f2 ring" cx="390.0" cy="63.3" r="3.2"/>
<polyline class="dot s2" points="369.1,306.0 369.1,63.3"/>
<circle class="f0 ring" cx="163.3" cy="184.6" r="4.6"/>
<line class="ln s1" style="stroke-width:2.2" x1="255" y1="250" x2="277" y2="250"/>
<text class="sm" x="283" y="253.5">k = 3</text>
<line class="ln s3" style="stroke-width:2.2" x1="255" y1="265" x2="277" y2="265"/>
<text class="sm" x="283" y="268.5">k = 5</text>
<line class="ln s2" style="stroke-width:2.2" x1="255" y1="280" x2="277" y2="280"/>
<text class="sm" x="283" y="283.5">k = 8</text>
<line class="gd" x1="470" y1="285.2" x2="770" y2="285.2"/>
<text class="sm" x="464" y="288.7" text-anchor="end">−2</text>
<line class="gd" x1="470" y1="233.1" x2="770" y2="233.1"/>
<text class="sm" x="464" y="236.6" text-anchor="end">−1</text>
<line class="gd" x1="470" y1="181.0" x2="770" y2="181.0"/>
<text class="sm" x="464" y="184.5" text-anchor="end">0</text>
<line class="gd" x1="470" y1="128.9" x2="770" y2="128.9"/>
<text class="sm" x="464" y="132.4" text-anchor="end">1</text>
<line class="gd" x1="470" y1="76.8" x2="770" y2="76.8"/>
<text class="sm" x="464" y="80.3" text-anchor="end">2</text>
<line class="gd" x1="495.0" y1="56" x2="495.0" y2="306"/>
<text class="sm" x="495.0" y="321" text-anchor="middle">−2</text>
<line class="gd" x1="557.5" y1="56" x2="557.5" y2="306"/>
<text class="sm" x="557.5" y="321" text-anchor="middle">−1</text>
<line class="gd" x1="620.0" y1="56" x2="620.0" y2="306"/>
<text class="sm" x="620.0" y="321" text-anchor="middle">0</text>
<line class="gd" x1="682.5" y1="56" x2="682.5" y2="306"/>
<text class="sm" x="682.5" y="321" text-anchor="middle">1</text>
<line class="gd" x1="745.0" y1="56" x2="745.0" y2="306"/>
<text class="sm" x="745.0" y="321" text-anchor="middle">2</text>
<line class="ax" x1="470" y1="306" x2="770" y2="306"/>
<line class="ax" x1="470" y1="56" x2="470" y2="306"/>
<text class="lab" x="620.0" y="338" text-anchor="middle">theta_1</text>
<text class="lab" transform="translate(430,181.0) rotate(-90)" text-anchor="middle">theta_2</text>
<text class="hd" x="470" y="44">Where the m-projection lands</text>
<rect class="fillO" style="opacity:0.35" x="468.3" y="304.6" width="269.7" height="2.8"/>
<rect class="fillG" style="opacity:0.35" x="738.0" y="304.6" width="33.7" height="2.8"/>
<rect class="fillO" style="opacity:0.35" x="468.3" y="301.8" width="262.9" height="2.8"/>
<rect class="fillG" style="opacity:0.35" x="731.2" y="301.8" width="40.4" height="2.8"/>
<rect class="fillO" style="opacity:0.35" x="468.3" y="299.0" width="259.6" height="2.8"/>
<rect class="fillG" style="opacity:0.35" x="727.9" y="299.0" width="43.8" height="2.8"/>
<rect class="fillO" style="opacity:0.35" x="468.3" y="296.2" width="256.2" height="2.8"/>
<rect class="fillG" style="opacity:0.35" x="724.5" y="296.2" width="47.2" height="2.8"/>
<rect class="fillO" style="opacity:0.35" x="468.3" y="293.4" width="249.4" height="2.8"/>
<rect class="fillG" style="opacity:0.35" x="717.8" y="293.4" width="53.9" height="2.8"/>
<rect class="fillO" style="opacity:0.35" x="468.3" y="290.6" width="246.1" height="2.8"/>
<rect class="fillG" style="opacity:0.35" x="714.4" y="290.6" width="57.3" height="2.8"/>
<rect class="fillO" style="opacity:0.35" x="468.3" y="287.7" width="242.7" height="2.8"/>
<rect class="fillG" style="opacity:0.35" x="711.0" y="287.7" width="60.7" height="2.8"/>
<rect class="fillO" style="opacity:0.35" x="468.3" y="284.9" width="236.0" height="2.8"/>
<rect class="fillG" style="opacity:0.35" x="704.3" y="284.9" width="67.4" height="2.8"/>
<rect class="fillO" style="opacity:0.35" x="468.3" y="282.1" width="232.6" height="2.8"/>
<rect class="fillG" style="opacity:0.35" x="700.9" y="282.1" width="70.8" height="2.8"/>
<rect class="fillO" style="opacity:0.35" x="468.3" y="279.3" width="229.2" height="2.8"/>
<rect class="fillG" style="opacity:0.35" x="697.5" y="279.3" width="74.2" height="2.8"/>
<rect class="fillO" style="opacity:0.35" x="468.3" y="276.5" width="222.5" height="2.8"/>
<rect class="fillG" style="opacity:0.35" x="690.8" y="276.5" width="80.9" height="2.8"/>
<rect class="fillO" style="opacity:0.35" x="468.3" y="273.7" width="219.1" height="2.8"/>
<rect class="fillG" style="opacity:0.35" x="687.4" y="273.7" width="84.3" height="2.8"/>
<rect class="fillO" style="opacity:0.35" x="468.3" y="270.9" width="215.7" height="2.8"/>
<rect class="fillG" style="opacity:0.35" x="684.0" y="270.9" width="87.6" height="2.8"/>
<rect class="fillO" style="opacity:0.35" x="468.3" y="268.1" width="209.0" height="2.8"/>
<rect class="fillG" style="opacity:0.35" x="677.3" y="268.1" width="94.4" height="2.8"/>
<rect class="fillO" style="opacity:0.35" x="468.3" y="265.3" width="205.6" height="2.8"/>
<rect class="fillG" style="opacity:0.35" x="673.9" y="265.3" width="97.8" height="2.8"/>
<rect class="fillG" style="opacity:0.35" x="468.3" y="262.5" width="3.4" height="2.8"/>
<rect class="fillO" style="opacity:0.35" x="471.7" y="262.5" width="198.9" height="2.8"/>
<rect class="fillG" style="opacity:0.35" x="670.6" y="262.5" width="101.1" height="2.8"/>
<rect class="fillG" style="opacity:0.35" x="468.3" y="259.7" width="16.9" height="2.8"/>
<rect class="fillO" style="opacity:0.35" x="485.2" y="259.7" width="178.7" height="2.8"/>
<rect class="fillG" style="opacity:0.35" x="663.8" y="259.7" width="107.9" height="2.8"/>
<rect class="fillG" style="opacity:0.35" x="468.3" y="256.8" width="30.3" height="2.8"/>
<rect class="fillO" style="opacity:0.35" x="498.7" y="256.8" width="161.8" height="2.8"/>
<rect class="fillG" style="opacity:0.35" x="660.4" y="256.8" width="111.2" height="2.8"/>
<rect class="fillG" style="opacity:0.35" x="468.3" y="254.0" width="43.8" height="2.8"/>
<rect class="fillO" style="opacity:0.35" x="512.1" y="254.0" width="144.9" height="2.8"/>
<rect class="fillG" style="opacity:0.35" x="657.1" y="254.0" width="114.6" height="2.8"/>
<rect class="fillG" style="opacity:0.35" x="468.3" y="251.2" width="57.3" height="2.8"/>
<rect class="fillO" style="opacity:0.35" x="525.6" y="251.2" width="124.7" height="2.8"/>
<rect class="fillG" style="opacity:0.35" x="650.3" y="251.2" width="121.3" height="2.8"/>
<rect class="fillG" style="opacity:0.35" x="468.3" y="248.4" width="70.8" height="2.8"/>
<rect class="fillO" style="opacity:0.35" x="539.1" y="248.4" width="107.9" height="2.8"/>
<rect class="fillG" style="opacity:0.35" x="647.0" y="248.4" width="124.7" height="2.8"/>
<rect class="fillG" style="opacity:0.35" x="468.3" y="245.6" width="84.3" height="2.8"/>
<rect class="fillO" style="opacity:0.35" x="552.6" y="245.6" width="91.0" height="2.8"/>
<rect class="fillG" style="opacity:0.35" x="643.6" y="245.6" width="128.1" height="2.8"/>
<rect class="fillG" style="opacity:0.35" x="468.3" y="242.8" width="97.8" height="2.8"/>
<rect class="fillO" style="opacity:0.35" x="566.1" y="242.8" width="70.8" height="2.8"/>
<rect class="fillG" style="opacity:0.35" x="636.9" y="242.8" width="134.8" height="2.8"/>
<rect class="fillG" style="opacity:0.35" x="468.3" y="240.0" width="111.2" height="2.8"/>
<rect class="fillO" style="opacity:0.35" x="579.6" y="240.0" width="53.9" height="2.8"/>
<rect class="fillG" style="opacity:0.35" x="633.5" y="240.0" width="138.2" height="2.8"/>
<rect class="fillG" style="opacity:0.35" x="468.3" y="237.2" width="124.7" height="2.8"/>
<rect class="fillO" style="opacity:0.35" x="593.0" y="237.2" width="37.1" height="2.8"/>
<rect class="fillG" style="opacity:0.35" x="630.1" y="237.2" width="141.6" height="2.8"/>
<rect class="fillG" style="opacity:0.35" x="468.3" y="234.4" width="138.2" height="2.8"/>
<rect class="fillO" style="opacity:0.35" x="606.5" y="234.4" width="16.9" height="2.8"/>
<rect class="fillG" style="opacity:0.35" x="623.4" y="234.4" width="148.3" height="2.8"/>
<rect class="fillG" style="opacity:0.35" x="468.3" y="231.6" width="296.6" height="2.8"/>
<rect class="fillO" style="opacity:0.35" x="764.9" y="231.6" width="6.7" height="2.8"/>
<rect class="fillG" style="opacity:0.35" x="468.3" y="228.8" width="148.3" height="2.8"/>
<rect class="fillG" style="opacity:0.35" x="623.4" y="228.8" width="138.2" height="2.8"/>
<rect class="fillO" style="opacity:0.35" x="761.6" y="228.8" width="10.1" height="2.8"/>
<rect class="fillG" style="opacity:0.35" x="468.3" y="225.9" width="144.9" height="2.8"/>
<rect class="fillG" style="opacity:0.35" x="626.7" y="225.9" width="131.5" height="2.8"/>
<rect class="fillO" style="opacity:0.35" x="758.2" y="225.9" width="13.5" height="2.8"/>
<rect class="fillG" style="opacity:0.35" x="468.3" y="223.1" width="141.6" height="2.8"/>
<rect class="fillG" style="opacity:0.35" x="630.1" y="223.1" width="121.3" height="2.8"/>
<rect class="fillO" style="opacity:0.35" x="751.5" y="223.1" width="20.2" height="2.8"/>
<rect class="fillG" style="opacity:0.35" x="468.3" y="220.3" width="138.2" height="2.8"/>
<rect class="fillG" style="opacity:0.35" x="633.5" y="220.3" width="114.6" height="2.8"/>
<rect class="fillO" style="opacity:0.35" x="748.1" y="220.3" width="23.6" height="2.8"/>
<rect class="fillG" style="opacity:0.35" x="468.3" y="217.5" width="134.8" height="2.8"/>
<rect class="fillG" style="opacity:0.35" x="636.9" y="217.5" width="107.9" height="2.8"/>
<rect class="fillO" style="opacity:0.35" x="744.7" y="217.5" width="27.0" height="2.8"/>
<rect class="fillG" style="opacity:0.35" x="468.3" y="214.7" width="131.5" height="2.8"/>
<rect class="fillG" style="opacity:0.35" x="640.2" y="214.7" width="97.8" height="2.8"/>
<rect class="fillO" style="opacity:0.35" x="738.0" y="214.7" width="33.7" height="2.8"/>
<rect class="fillG" style="opacity:0.35" x="468.3" y="211.9" width="128.1" height="2.8"/>
<rect class="fillG" style="opacity:0.35" x="643.6" y="211.9" width="91.0" height="2.8"/>
<rect class="fillO" style="opacity:0.35" x="734.6" y="211.9" width="37.1" height="2.8"/>
<rect class="fillG" style="opacity:0.35" x="468.3" y="209.1" width="124.7" height="2.8"/>
<rect class="fillG" style="opacity:0.35" x="647.0" y="209.1" width="84.3" height="2.8"/>
<rect class="fillO" style="opacity:0.35" x="731.2" y="209.1" width="40.4" height="2.8"/>
<rect class="fillG" style="opacity:0.35" x="468.3" y="206.3" width="121.3" height="2.8"/>
<rect class="fillG" style="opacity:0.35" x="650.3" y="206.3" width="74.2" height="2.8"/>
<rect class="fillO" style="opacity:0.35" x="724.5" y="206.3" width="47.2" height="2.8"/>
<rect class="fillG" style="opacity:0.35" x="468.3" y="203.5" width="118.0" height="2.8"/>
<rect class="fillG" style="opacity:0.35" x="653.7" y="203.5" width="67.4" height="2.8"/>
<rect class="fillO" style="opacity:0.35" x="721.1" y="203.5" width="50.6" height="2.8"/>
<rect class="fillG" style="opacity:0.35" x="468.3" y="200.7" width="114.6" height="2.8"/>
<rect class="fillG" style="opacity:0.35" x="657.1" y="200.7" width="60.7" height="2.8"/>
<rect class="fillO" style="opacity:0.35" x="717.8" y="200.7" width="53.9" height="2.8"/>
<rect class="fillG" style="opacity:0.35" x="468.3" y="197.9" width="111.2" height="2.8"/>
<rect class="fillG" style="opacity:0.35" x="660.4" y="197.9" width="50.6" height="2.8"/>
<rect class="fillO" style="opacity:0.35" x="711.0" y="197.9" width="60.7" height="2.8"/>
<rect class="fillO" style="opacity:0.35" x="468.3" y="195.0" width="13.5" height="2.8"/>
<rect class="fillG" style="opacity:0.35" x="481.8" y="195.0" width="94.4" height="2.8"/>
<rect class="fillG" style="opacity:0.35" x="663.8" y="195.0" width="43.8" height="2.8"/>
<rect class="fillO" style="opacity:0.35" x="707.6" y="195.0" width="64.0" height="2.8"/>
<rect class="fillO" style="opacity:0.35" x="468.3" y="192.2" width="27.0" height="2.8"/>
<rect class="fillG" style="opacity:0.35" x="495.3" y="192.2" width="77.5" height="2.8"/>
<rect class="fillG" style="opacity:0.35" x="667.2" y="192.2" width="37.1" height="2.8"/>
<rect class="fillO" style="opacity:0.35" x="704.3" y="192.2" width="67.4" height="2.8"/>
<rect class="fillO" style="opacity:0.35" x="468.3" y="189.4" width="40.4" height="2.8"/>
<rect class="fillG" style="opacity:0.35" x="508.8" y="189.4" width="60.7" height="2.8"/>
<rect class="fillG" style="opacity:0.35" x="670.6" y="189.4" width="27.0" height="2.8"/>
<rect class="fillO" style="opacity:0.35" x="697.5" y="189.4" width="74.2" height="2.8"/>
<rect class="fillO" style="opacity:0.35" x="468.3" y="186.6" width="53.9" height="2.8"/>
<rect class="fillG" style="opacity:0.35" x="522.2" y="186.6" width="43.8" height="2.8"/>
<rect class="fillG" style="opacity:0.35" x="673.9" y="186.6" width="20.2" height="2.8"/>
<rect class="fillO" style="opacity:0.35" x="694.2" y="186.6" width="77.5" height="2.8"/>
<rect class="fillO" style="opacity:0.35" x="468.3" y="183.8" width="67.4" height="2.8"/>
<rect class="fillG" style="opacity:0.35" x="535.7" y="183.8" width="27.0" height="2.8"/>
<rect class="fillG" style="opacity:0.35" x="677.3" y="183.8" width="13.5" height="2.8"/>
<rect class="fillO" style="opacity:0.35" x="690.8" y="183.8" width="80.9" height="2.8"/>
<rect class="fillO" style="opacity:0.35" x="468.3" y="181.0" width="80.9" height="2.8"/>
<rect class="fillG" style="opacity:0.35" x="549.2" y="181.0" width="10.1" height="2.8"/>
<rect class="fillG" style="opacity:0.35" x="680.7" y="181.0" width="3.4" height="2.8"/>
<rect class="fillO" style="opacity:0.35" x="684.0" y="181.0" width="87.6" height="2.8"/>
<rect class="fillO" style="opacity:0.35" x="468.3" y="178.2" width="87.6" height="2.8"/>
<rect class="fillG" style="opacity:0.35" x="556.0" y="178.2" width="3.4" height="2.8"/>
<rect class="fillG" style="opacity:0.35" x="680.7" y="178.2" width="10.1" height="2.8"/>
<rect class="fillO" style="opacity:0.35" x="690.8" y="178.2" width="80.9" height="2.8"/>
<rect class="fillO" style="opacity:0.35" x="468.3" y="175.4" width="80.9" height="2.8"/>
<rect class="fillG" style="opacity:0.35" x="549.2" y="175.4" width="13.5" height="2.8"/>
<rect class="fillG" style="opacity:0.35" x="677.3" y="175.4" width="27.0" height="2.8"/>
<rect class="fillO" style="opacity:0.35" x="704.3" y="175.4" width="67.4" height="2.8"/>
<rect class="fillO" style="opacity:0.35" x="468.3" y="172.6" width="77.5" height="2.8"/>
<rect class="fillG" style="opacity:0.35" x="545.8" y="172.6" width="20.2" height="2.8"/>
<rect class="fillG" style="opacity:0.35" x="673.9" y="172.6" width="43.8" height="2.8"/>
<rect class="fillO" style="opacity:0.35" x="717.8" y="172.6" width="53.9" height="2.8"/>
<rect class="fillO" style="opacity:0.35" x="468.3" y="169.8" width="74.2" height="2.8"/>
<rect class="fillG" style="opacity:0.35" x="542.5" y="169.8" width="27.0" height="2.8"/>
<rect class="fillG" style="opacity:0.35" x="670.6" y="169.8" width="60.7" height="2.8"/>
<rect class="fillO" style="opacity:0.35" x="731.2" y="169.8" width="40.4" height="2.8"/>
<rect class="fillO" style="opacity:0.35" x="468.3" y="167.0" width="67.4" height="2.8"/>
<rect class="fillG" style="opacity:0.35" x="535.7" y="167.0" width="37.1" height="2.8"/>
<rect class="fillG" style="opacity:0.35" x="667.2" y="167.0" width="77.5" height="2.8"/>
<rect class="fillO" style="opacity:0.35" x="744.7" y="167.0" width="27.0" height="2.8"/>
<rect class="fillO" style="opacity:0.35" x="468.3" y="164.1" width="64.0" height="2.8"/>
<rect class="fillG" style="opacity:0.35" x="532.4" y="164.1" width="43.8" height="2.8"/>
<rect class="fillG" style="opacity:0.35" x="663.8" y="164.1" width="94.4" height="2.8"/>
<rect class="fillO" style="opacity:0.35" x="758.2" y="164.1" width="13.5" height="2.8"/>
<rect class="fillO" style="opacity:0.35" x="468.3" y="161.3" width="60.7" height="2.8"/>
<rect class="fillG" style="opacity:0.35" x="529.0" y="161.3" width="50.6" height="2.8"/>
<rect class="fillG" style="opacity:0.35" x="660.4" y="161.3" width="111.2" height="2.8"/>
<rect class="fillO" style="opacity:0.35" x="468.3" y="158.5" width="53.9" height="2.8"/>
<rect class="fillG" style="opacity:0.35" x="522.2" y="158.5" width="60.7" height="2.8"/>
<rect class="fillG" style="opacity:0.35" x="657.1" y="158.5" width="114.6" height="2.8"/>
<rect class="fillO" style="opacity:0.35" x="468.3" y="155.7" width="50.6" height="2.8"/>
<rect class="fillG" style="opacity:0.35" x="518.9" y="155.7" width="67.4" height="2.8"/>
<rect class="fillG" style="opacity:0.35" x="653.7" y="155.7" width="118.0" height="2.8"/>
<rect class="fillO" style="opacity:0.35" x="468.3" y="152.9" width="47.2" height="2.8"/>
<rect class="fillG" style="opacity:0.35" x="515.5" y="152.9" width="74.2" height="2.8"/>
<rect class="fillG" style="opacity:0.35" x="650.3" y="152.9" width="121.3" height="2.8"/>
<rect class="fillO" style="opacity:0.35" x="468.3" y="150.1" width="40.4" height="2.8"/>
<rect class="fillG" style="opacity:0.35" x="508.8" y="150.1" width="84.3" height="2.8"/>
<rect class="fillG" style="opacity:0.35" x="647.0" y="150.1" width="124.7" height="2.8"/>
<rect class="fillO" style="opacity:0.35" x="468.3" y="147.3" width="37.1" height="2.8"/>
<rect class="fillG" style="opacity:0.35" x="505.4" y="147.3" width="91.0" height="2.8"/>
<rect class="fillG" style="opacity:0.35" x="643.6" y="147.3" width="128.1" height="2.8"/>
<rect class="fillO" style="opacity:0.35" x="468.3" y="144.5" width="33.7" height="2.8"/>
<rect class="fillG" style="opacity:0.35" x="502.0" y="144.5" width="97.8" height="2.8"/>
<rect class="fillG" style="opacity:0.35" x="640.2" y="144.5" width="131.5" height="2.8"/>
<rect class="fillO" style="opacity:0.35" x="468.3" y="141.7" width="27.0" height="2.8"/>
<rect class="fillG" style="opacity:0.35" x="495.3" y="141.7" width="107.9" height="2.8"/>
<rect class="fillG" style="opacity:0.35" x="636.9" y="141.7" width="134.8" height="2.8"/>
<rect class="fillO" style="opacity:0.35" x="468.3" y="138.9" width="23.6" height="2.8"/>
<rect class="fillG" style="opacity:0.35" x="491.9" y="138.9" width="114.6" height="2.8"/>
<rect class="fillG" style="opacity:0.35" x="633.5" y="138.9" width="138.2" height="2.8"/>
<rect class="fillO" style="opacity:0.35" x="468.3" y="136.1" width="20.2" height="2.8"/>
<rect class="fillG" style="opacity:0.35" x="488.5" y="136.1" width="121.3" height="2.8"/>
<rect class="fillG" style="opacity:0.35" x="630.1" y="136.1" width="141.6" height="2.8"/>
<rect class="fillO" style="opacity:0.35" x="468.3" y="133.2" width="13.5" height="2.8"/>
<rect class="fillG" style="opacity:0.35" x="481.8" y="133.2" width="131.5" height="2.8"/>
<rect class="fillG" style="opacity:0.35" x="626.7" y="133.2" width="144.9" height="2.8"/>
<rect class="fillO" style="opacity:0.35" x="468.3" y="130.4" width="10.1" height="2.8"/>
<rect class="fillG" style="opacity:0.35" x="478.4" y="130.4" width="138.2" height="2.8"/>
<rect class="fillG" style="opacity:0.35" x="623.4" y="130.4" width="148.3" height="2.8"/>
<rect class="fillO" style="opacity:0.35" x="468.3" y="127.6" width="6.7" height="2.8"/>
<rect class="fillG" style="opacity:0.35" x="475.1" y="127.6" width="296.6" height="2.8"/>
<rect class="fillG" style="opacity:0.35" x="468.3" y="124.8" width="148.3" height="2.8"/>
<rect class="fillO" style="opacity:0.35" x="616.6" y="124.8" width="16.9" height="2.8"/>
<rect class="fillG" style="opacity:0.35" x="633.5" y="124.8" width="138.2" height="2.8"/>
<rect class="fillG" style="opacity:0.35" x="468.3" y="122.0" width="141.6" height="2.8"/>
<rect class="fillO" style="opacity:0.35" x="609.9" y="122.0" width="37.1" height="2.8"/>
<rect class="fillG" style="opacity:0.35" x="647.0" y="122.0" width="124.7" height="2.8"/>
<rect class="fillG" style="opacity:0.35" x="468.3" y="119.2" width="138.2" height="2.8"/>
<rect class="fillO" style="opacity:0.35" x="606.5" y="119.2" width="53.9" height="2.8"/>
<rect class="fillG" style="opacity:0.35" x="660.4" y="119.2" width="111.2" height="2.8"/>
<rect class="fillG" style="opacity:0.35" x="468.3" y="116.4" width="134.8" height="2.8"/>
<rect class="fillO" style="opacity:0.35" x="603.1" y="116.4" width="70.8" height="2.8"/>
<rect class="fillG" style="opacity:0.35" x="673.9" y="116.4" width="97.8" height="2.8"/>
<rect class="fillG" style="opacity:0.35" x="468.3" y="113.6" width="128.1" height="2.8"/>
<rect class="fillO" style="opacity:0.35" x="596.4" y="113.6" width="91.0" height="2.8"/>
<rect class="fillG" style="opacity:0.35" x="687.4" y="113.6" width="84.3" height="2.8"/>
<rect class="fillG" style="opacity:0.35" x="468.3" y="110.8" width="124.7" height="2.8"/>
<rect class="fillO" style="opacity:0.35" x="593.0" y="110.8" width="107.9" height="2.8"/>
<rect class="fillG" style="opacity:0.35" x="700.9" y="110.8" width="70.8" height="2.8"/>
<rect class="fillG" style="opacity:0.35" x="468.3" y="108.0" width="121.3" height="2.8"/>
<rect class="fillO" style="opacity:0.35" x="589.7" y="108.0" width="124.7" height="2.8"/>
<rect class="fillG" style="opacity:0.35" x="714.4" y="108.0" width="57.3" height="2.8"/>
<rect class="fillG" style="opacity:0.35" x="468.3" y="105.2" width="114.6" height="2.8"/>
<rect class="fillO" style="opacity:0.35" x="582.9" y="105.2" width="144.9" height="2.8"/>
<rect class="fillG" style="opacity:0.35" x="727.9" y="105.2" width="43.8" height="2.8"/>
<rect class="fillG" style="opacity:0.35" x="468.3" y="102.3" width="111.2" height="2.8"/>
<rect class="fillO" style="opacity:0.35" x="579.6" y="102.3" width="161.8" height="2.8"/>
<rect class="fillG" style="opacity:0.35" x="741.3" y="102.3" width="30.3" height="2.8"/>
<rect class="fillG" style="opacity:0.35" x="468.3" y="99.5" width="107.9" height="2.8"/>
<rect class="fillO" style="opacity:0.35" x="576.2" y="99.5" width="178.7" height="2.8"/>
<rect class="fillG" style="opacity:0.35" x="754.8" y="99.5" width="16.9" height="2.8"/>
<rect class="fillG" style="opacity:0.35" x="468.3" y="96.7" width="101.1" height="2.8"/>
<rect class="fillO" style="opacity:0.35" x="569.4" y="96.7" width="198.9" height="2.8"/>
<rect class="fillG" style="opacity:0.35" x="768.3" y="96.7" width="3.4" height="2.8"/>
<rect class="fillG" style="opacity:0.35" x="468.3" y="93.9" width="97.8" height="2.8"/>
<rect class="fillO" style="opacity:0.35" x="566.1" y="93.9" width="205.6" height="2.8"/>
<rect class="fillG" style="opacity:0.35" x="468.3" y="91.1" width="94.4" height="2.8"/>
<rect class="fillO" style="opacity:0.35" x="562.7" y="91.1" width="209.0" height="2.8"/>
<rect class="fillG" style="opacity:0.35" x="468.3" y="88.3" width="87.6" height="2.8"/>
<rect class="fillO" style="opacity:0.35" x="556.0" y="88.3" width="215.7" height="2.8"/>
<rect class="fillG" style="opacity:0.35" x="468.3" y="85.5" width="84.3" height="2.8"/>
<rect class="fillO" style="opacity:0.35" x="552.6" y="85.5" width="219.1" height="2.8"/>
<rect class="fillG" style="opacity:0.35" x="468.3" y="82.7" width="80.9" height="2.8"/>
<rect class="fillO" style="opacity:0.35" x="549.2" y="82.7" width="222.5" height="2.8"/>
<rect class="fillG" style="opacity:0.35" x="468.3" y="79.9" width="74.2" height="2.8"/>
<rect class="fillO" style="opacity:0.35" x="542.5" y="79.9" width="229.2" height="2.8"/>
<rect class="fillG" style="opacity:0.35" x="468.3" y="77.1" width="70.8" height="2.8"/>
<rect class="fillO" style="opacity:0.35" x="539.1" y="77.1" width="232.6" height="2.8"/>
<rect class="fillG" style="opacity:0.35" x="468.3" y="74.3" width="67.4" height="2.8"/>
<rect class="fillO" style="opacity:0.35" x="535.7" y="74.3" width="236.0" height="2.8"/>
<rect class="fillG" style="opacity:0.35" x="468.3" y="71.4" width="60.7" height="2.8"/>
<rect class="fillO" style="opacity:0.35" x="529.0" y="71.4" width="242.7" height="2.8"/>
<rect class="fillG" style="opacity:0.35" x="468.3" y="68.6" width="57.3" height="2.8"/>
<rect class="fillO" style="opacity:0.35" x="525.6" y="68.6" width="246.1" height="2.8"/>
<rect class="fillG" style="opacity:0.35" x="468.3" y="65.8" width="53.9" height="2.8"/>
<rect class="fillO" style="opacity:0.35" x="522.2" y="65.8" width="249.4" height="2.8"/>
<rect class="fillG" style="opacity:0.35" x="468.3" y="63.0" width="47.2" height="2.8"/>
<rect class="fillO" style="opacity:0.35" x="515.5" y="63.0" width="256.2" height="2.8"/>
<rect class="fillG" style="opacity:0.35" x="468.3" y="60.2" width="43.8" height="2.8"/>
<rect class="fillO" style="opacity:0.35" x="512.1" y="60.2" width="259.6" height="2.8"/>
<rect class="fillG" style="opacity:0.35" x="468.3" y="57.4" width="40.4" height="2.8"/>
<rect class="fillO" style="opacity:0.35" x="508.8" y="57.4" width="262.9" height="2.8"/>
<rect class="fillG" style="opacity:0.35" x="468.3" y="54.6" width="33.7" height="2.8"/>
<rect class="fillO" style="opacity:0.35" x="502.0" y="54.6" width="269.7" height="2.8"/>
<polyline class="ln sk" points="682.5,181.0 620.0,128.9 557.5,181.0 620.0,233.1 682.5,181.0"/>
<polyline class="thin s2" points="732.5,170.6 682.5,181.0"/>
<circle class="f0 ring" cx="732.5" cy="170.6" r="3.0"/>
<circle class="f2 ring" cx="682.5" cy="181.0" r="3.6"/>
<polyline class="thin s2" points="545.0,82.0 620.0,128.9"/>
<circle class="f0 ring" cx="545.0" cy="82.0" r="3.0"/>
<circle class="f2 ring" cx="620.0" cy="128.9" r="3.6"/>
<polyline class="thin s2" points="645.0,264.3 620.0,233.1"/>
<circle class="f0 ring" cx="645.0" cy="264.3" r="3.0"/>
<circle class="f2 ring" cx="620.0" cy="233.1" r="3.6"/>
<polyline class="thin s2" points="495.0,217.5 578.4,198.4"/>
<circle class="f0 ring" cx="495.0" cy="217.5" r="3.0"/>
<circle class="f2 ring" cx="578.4" cy="198.4" r="3.6"/>
<polyline class="thin s2" points="682.5,113.3 620.0,128.9"/>
<circle class="f0 ring" cx="682.5" cy="113.3" r="3.0"/>
<circle class="f2 ring" cx="620.0" cy="128.9" r="3.6"/>
<rect class="fillG" style="opacity:0.5" x="478" y="70" width="20" height="10"/><text class="sm" x="504" y="79">projection on an edge of the ball</text>
<rect class="fillO" style="opacity:0.5" x="478" y="85" width="20" height="10"/><text class="sm" x="504" y="94">projection on a vertex</text>
<text class="sm" x="70" y="376">Left: fraction of 30 random problems recovered exactly (m x 200 Gaussian A, k non-zeros); dotted lines: the printed</text>
<text class="sm" x="70" y="391">threshold 2 k ln n; circles: the 50 percent points. Right: points theta* of the plane (grey dots) and their m-projections</text>
<text class="sm" x="70" y="406">onto the unit L1 ball for the metric G = [[1, .8], [.8, 1.6]]: the orange regions are the normal cones of the four</text>
<text class="sm" x="70" y="421">vertices, which is why the solution is sparse (white: points inside the ball, projected onto themselves).</text>
</svg>
