<svg viewBox="0 0 800 374" xmlns="http://www.w3.org/2000/svg" role="img">
<title>A sphere needs two charts</title>
<desc>Left: a sphere with latitude and longitude lines; longitude is undefined at the poles and jumps at the 180 degree meridian. Middle and right: stereographic projections from the north and from the south pole, each missing one point, with the ring |latitude| &lt; 60 degrees shaded as the overlap where the two labels are related by r to 1/r.</desc>
<style>
  text{font-family:ui-sans-serif,-apple-system,"Segoe UI",sans-serif;font-weight:400}
  .lab{font-size:11px;fill:#57564f} .hd{font-size:13px;font-weight:500;fill:#1a1a19}
  .sm{font-size:10.5px;fill:#57564f} .v{font-size:11px;fill:#1a1a19}
  .ax{stroke:#8a8880;stroke-width:0.9;fill:none} .gd{stroke:#e2e1da;stroke-width:0.6;fill:none}
  .s1{stroke:#2a78d6} .s2{stroke:#eb6834} .s3{stroke:#1baf7a} .s4{stroke:#eda100} .s0{stroke:#8a8880}
  .f1{fill:#2a78d6} .f2{fill:#eb6834} .f3{fill:#1baf7a} .f4{fill:#eda100} .f0{fill:#8a8880}
  .ln{stroke-width:2;fill:none;stroke-linecap:round;stroke-linejoin:round}
  .thin{stroke-width:1;fill:none}
  .dash{stroke-width:1.4;fill:none;stroke-dasharray:5 3}
  .con{stroke-width:0.9;fill:none;opacity:.75}
  .fillS{fill:#2a78d6;opacity:.08}
  .ring{stroke:#fdfdfc;stroke-width:1.5}
  @media (prefers-color-scheme: dark){
    .lab,.sm{fill:#b6b4ab} .hd,.v{fill:#eceae3} .ax{stroke:#85837b} .gd{stroke:#33312e}
    .s1{stroke:#3987e5} .s2{stroke:#d95926} .s3{stroke:#199e70} .s4{stroke:#c98500} .s0{stroke:#85837b}
    .f1{fill:#3987e5} .f2{fill:#d95926} .f3{fill:#199e70} .f4{fill:#c98500} .f0{fill:#85837b}
    .fillS{fill:#3987e5}
    .ring{stroke:#161615}
  }
</style>
<text class="hd" x="40" y="36">latitude / longitude</text>
<polyline class="ax" points="221.4,145.0 221.2,140.4 220.9,135.9 220.3,131.4 219.4,126.9 218.4,122.5 217.1,118.1 215.5,113.8 213.8,109.6 211.8,105.5 209.6,101.5 207.2,97.6 204.6,93.9 201.8,90.3 198.8,86.8 195.7,83.5 192.3,80.4 188.8,77.5 185.2,74.7 181.4,72.2 177.5,69.8 173.5,67.7 169.4,65.8 165.1,64.1 160.8,62.6 156.4,61.3 152.0,60.3 147.5,59.5 143.0,59.0 138.4,58.7 133.9,58.6 129.3,58.8 124.8,59.2 120.3,59.9 115.8,60.8 111.4,61.9 107.0,63.3 102.7,64.9 98.6,66.7 94.5,68.7 90.5,71.0 86.7,73.4 83.0,76.1 79.4,78.9 76.0,82.0 72.7,85.2 69.7,88.5 66.8,92.0 64.1,95.7 61.6,99.5 59.3,103.5 57.2,107.5 55.3,111.7 53.7,115.9 52.3,120.3 51.1,124.7 50.1,129.1 49.4,133.6 48.9,138.2 48.7,142.7 48.7,147.3 48.9,151.8 49.4,156.4 50.1,160.9 51.1,165.3 52.3,169.7 53.7,174.1 55.3,178.3 57.2,182.5 59.3,186.5 61.6,190.5 64.1,194.3 66.8,198.0 69.7,201.5 72.7,204.8 76.0,208.0 79.4,211.1 83.0,213.9 86.7,216.6 90.5,219.0 94.5,221.3 98.6,223.3 102.7,225.1 107.0,226.7 111.4,228.1 115.8,229.2 120.3,230.1 124.8,230.8 129.3,231.2 133.9,231.4 138.4,231.3 143.0,231.0 147.5,230.5 152.0,229.7 156.4,228.7 160.8,227.4 165.1,225.9 169.4,224.2 173.5,222.3 177.5,220.2 181.4,217.8 185.2,215.3 188.8,212.5 192.3,209.6 195.7,206.5 198.8,203.2 201.8,199.7 204.6,196.1 207.2,192.4 209.6,188.5 211.8,184.5 213.8,180.4 215.5,176.2 217.1,171.9 218.4,167.5 219.4,163.1 220.3,158.6 220.9,154.1 221.2,149.6 221.4,145.0"/>
<polyline class="ln s1" points="113.4,228.6 114.7,228.9 116.1,229.2 117.4,229.5 118.8,229.7 120.2,229.9 121.7,230.1 123.1,230.3 124.6,230.5 126.0,230.6 127.5,230.8 129.0,230.9 130.5,230.9 132.0,231.0 133.5,231.0 135.0,231.0 136.5,231.0 138.0,231.0 139.5,230.9 141.0,230.9 142.5,230.8 144.0,230.6 145.4,230.5 146.9,230.3 148.3,230.1 149.8,229.9 151.2,229.7 152.6,229.5 153.9,229.2 155.3,228.9 156.6,228.6 157.9,228.3 159.1,227.9 160.4,227.5"/>
<polyline class="ln s1" points="109.6,227.5 110.9,227.9 112.1,228.3 113.4,228.6"/>
<polyline class="thin gd" points="161.6,227.2 162.8,226.8 163.9,226.3 165.0,225.9 166.1,225.5 167.1,225.0 168.1,224.5 169.0,224.0 169.9,223.5 170.8,223.0 171.6,222.5 172.4,221.9 173.1,221.4 173.8,220.8 174.4,220.2 175.0,219.6 175.6,219.0 176.1,218.4 176.5,217.8 176.9,217.2 177.2,216.6 177.5,216.0 177.8,215.3 177.9,214.7 178.1,214.1 178.2,213.4 178.2,212.8 178.2,212.1 178.1,211.5 177.9,210.9 177.8,210.2 177.5,209.6 177.2,209.0 176.9,208.4 176.5,207.8 176.1,207.1 175.6,206.5 175.0,205.9 174.4,205.4 173.8,204.8 173.1,204.2 172.4,203.7 171.6,203.1 170.8,202.6 169.9,202.1 169.0,201.6 168.1,201.1 167.1,200.6 166.1,200.1 165.0,199.7 163.9,199.2 162.8,198.8 161.6,198.4 160.4,198.0 159.1,197.7 157.9,197.3 156.6,197.0 155.3,196.7 153.9,196.4 152.6,196.1 151.2,195.9 149.8,195.6 148.3,195.4 146.9,195.2 145.4,195.1 144.0,194.9 142.5,194.8 141.0,194.7 139.5,194.6 138.0,194.6 136.5,194.5 135.0,194.5 133.5,194.5 132.0,194.6 130.5,194.6 129.0,194.7 127.5,194.8 126.0,194.9 124.6,195.1 123.1,195.2 121.7,195.4 120.2,195.6 118.8,195.9 117.4,196.1 116.1,196.4 114.7,196.7 113.4,197.0 112.1,197.3 110.9,197.7 109.6,198.0 108.4,198.4 107.2,198.8 106.1,199.2 105.0,199.7 103.9,200.1 102.9,200.6 101.9,201.1 101.0,201.6 100.1,202.1 99.2,202.6 98.4,203.1 97.6,203.7 96.9,204.2 96.2,204.8 95.6,205.4 95.0,205.9 94.4,206.5 93.9,207.1 93.5,207.8 93.1,208.4 92.8,209.0 92.5,209.6 92.2,210.2 92.1,210.9 91.9,211.5 91.8,212.1 91.8,212.8 91.8,213.4 91.9,214.1 92.1,214.7 92.2,215.3 92.5,216.0 92.8,216.6 93.1,217.2 93.5,217.8 93.9,218.4 94.4,219.0 95.0,219.6 95.6,220.2 96.2,220.8 96.9,221.4 97.6,221.9 98.4,222.5 99.2,223.0 100.1,223.5 101.0,224.0 101.9,224.5 102.9,225.0 103.9,225.5 105.0,225.9 106.1,226.3 107.2,226.8 108.4,227.2"/>
<polyline class="thin s1" points="97.6,211.5 99.9,212.0 102.2,212.5 104.6,213.0 107.0,213.4 109.4,213.8 111.9,214.2 114.4,214.5 116.9,214.8 119.4,215.1 122.0,215.3 124.6,215.4 127.2,215.6 129.8,215.7 132.4,215.7 135.0,215.7 137.6,215.7 140.2,215.7 142.8,215.6 145.4,215.4 148.0,215.3 150.6,215.1 153.1,214.8 155.6,214.5 158.1,214.2 160.6,213.8 163.0,213.4 165.4,213.0 167.8,212.5 170.1,212.0 172.4,211.5 174.6,210.9 176.8,210.3 179.0,209.7 181.0,209.0 183.1,208.3 185.0,207.6 187.0,206.9 188.8,206.1 190.6,205.3 192.3,204.5 193.9,203.6 195.5,202.7 197.0,201.8 198.4,200.9 199.8,199.9 201.0,199.0 202.2,198.0 203.3,197.0 204.3,196.0 205.3,194.9 206.1,193.9 206.9,192.8"/>
<polyline class="thin s1" points="63.1,192.8 63.9,193.9 64.7,194.9 65.7,196.0 66.7,197.0 67.8,198.0 69.0,199.0 70.2,199.9 71.6,200.9 73.0,201.8 74.5,202.7 76.1,203.6 77.7,204.5 79.4,205.3 81.2,206.1 83.0,206.9 85.0,207.6 86.9,208.3 89.0,209.0 91.0,209.7 93.2,210.3 95.4,210.9 97.6,211.5"/>
<polyline class="thin gd" points="207.6,191.8 208.2,190.7 208.7,189.6 209.1,188.5 209.4,187.4 209.6,186.3 209.7,185.2 209.8,184.1 209.7,183.0 209.6,181.9 209.4,180.8 209.1,179.7 208.7,178.6 208.2,177.6 207.6,176.5 206.9,175.4 206.1,174.4 205.3,173.3 204.3,172.3 203.3,171.3 202.2,170.3 201.0,169.3 199.8,168.3 198.4,167.4 197.0,166.5 195.5,165.6 193.9,164.7 192.3,163.8 190.6,163.0 188.8,162.2 187.0,161.4 185.0,160.6 183.1,159.9 181.0,159.2 179.0,158.6 176.8,157.9 174.6,157.3 172.4,156.8 170.1,156.2 167.8,155.7 165.4,155.3 163.0,154.8 160.6,154.4 158.1,154.1 155.6,153.8 153.1,153.5 150.6,153.2 148.0,153.0 145.4,152.8 142.8,152.7 140.2,152.6 137.6,152.5 135.0,152.5 132.4,152.5 129.8,152.6 127.2,152.7 124.6,152.8 122.0,153.0 119.4,153.2 116.9,153.5 114.4,153.8 111.9,154.1 109.4,154.4 107.0,154.8 104.6,155.3 102.2,155.7 99.9,156.2 97.6,156.8 95.4,157.3 93.2,157.9 91.0,158.6 89.0,159.2 86.9,159.9 85.0,160.6 83.0,161.4 81.2,162.2 79.4,163.0 77.7,163.8 76.1,164.7 74.5,165.6 73.0,166.5 71.6,167.4 70.2,168.3 69.0,169.3 67.8,170.3 66.7,171.3 65.7,172.3 64.7,173.3 63.9,174.4 63.1,175.4 62.4,176.5 61.8,177.6 61.3,178.6 60.9,179.7 60.6,180.8 60.4,181.9 60.3,183.0 60.2,184.1 60.3,185.2 60.4,186.3 60.6,187.4 60.9,188.5 61.3,189.6 61.8,190.7 62.4,191.8"/>
<polyline class="thin s1" points="91.8,176.6 94.5,177.2 97.1,177.8 99.9,178.3 102.6,178.8 105.5,179.3 108.3,179.7 111.2,180.1 114.1,180.4 117.0,180.7 120.0,180.9 123.0,181.1 126.0,181.3 129.0,181.4 132.0,181.5 135.0,181.5 138.0,181.5 141.0,181.4 144.0,181.3 147.0,181.1 150.0,180.9 153.0,180.7 155.9,180.4 158.8,180.1 161.7,179.7 164.5,179.3 167.4,178.8 170.1,178.3 172.9,177.8 175.5,177.2 178.2,176.6 180.8,176.0 183.3,175.3 185.8,174.5 188.2,173.8 190.5,173.0 192.8,172.1 195.0,171.3 197.1,170.4 199.2,169.4 201.2,168.5 203.1,167.5 204.9,166.5 206.6,165.4 208.2,164.3 209.8,163.2 211.3,162.1 212.6,161.0 213.9,159.8 215.1,158.7 216.2,157.5 217.1,156.3 218.0,155.1 218.8,153.8 219.5,152.6 220.1,151.3 220.5,150.1 220.9,148.8 221.2,147.5 221.3,146.3"/>
<polyline class="thin s1" points="48.7,146.3 48.8,147.5 49.1,148.8 49.5,150.1 49.9,151.3 50.5,152.6 51.2,153.8 52.0,155.1 52.9,156.3 53.8,157.5 54.9,158.7 56.1,159.8 57.4,161.0 58.7,162.1 60.2,163.2 61.8,164.3 63.4,165.4 65.1,166.5 66.9,167.5 68.8,168.5 70.8,169.4 72.9,170.4 75.0,171.3 77.2,172.1 79.5,173.0 81.8,173.8 84.2,174.5 86.7,175.3 89.2,176.0 91.8,176.6"/>
<polyline class="thin gd" points="221.4,145.0 221.3,143.7 221.2,142.5 220.9,141.2 220.5,139.9 220.1,138.7 219.5,137.4 218.8,136.2 218.0,134.9 217.1,133.7 216.2,132.5 215.1,131.3 213.9,130.2 212.6,129.0 211.3,127.9 209.8,126.8 208.2,125.7 206.6,124.6 204.9,123.5 203.1,122.5 201.2,121.5 199.2,120.6 197.1,119.6 195.0,118.7 192.8,117.9 190.5,117.0 188.2,116.2 185.8,115.5 183.3,114.7 180.8,114.0 178.2,113.4 175.5,112.8 172.9,112.2 170.1,111.7 167.4,111.2 164.5,110.7 161.7,110.3 158.8,109.9 155.9,109.6 153.0,109.3 150.0,109.1 147.0,108.9 144.0,108.7 141.0,108.6 138.0,108.5 135.0,108.5 132.0,108.5 129.0,108.6 126.0,108.7 123.0,108.9 120.0,109.1 117.0,109.3 114.1,109.6 111.2,109.9 108.3,110.3 105.5,110.7 102.6,111.2 99.9,111.7 97.1,112.2 94.5,112.8 91.8,113.4 89.2,114.0 86.7,114.7 84.2,115.5 81.8,116.2 79.5,117.0 77.2,117.9 75.0,118.7 72.9,119.6 70.8,120.6 68.8,121.5 66.9,122.5 65.1,123.5 63.4,124.6 61.8,125.7 60.2,126.8 58.7,127.9 57.4,129.0 56.1,130.2 54.9,131.3 53.8,132.5 52.9,133.7 52.0,134.9 51.2,136.2 50.5,137.4 49.9,138.7 49.5,139.9 49.1,141.2 48.8,142.5 48.7,143.7 48.6,145.0"/>
<polyline class="thin s1" points="97.6,133.2 99.9,133.8 102.2,134.3 104.6,134.7 107.0,135.2 109.4,135.6 111.9,135.9 114.4,136.2 116.9,136.5 119.4,136.8 122.0,137.0 124.6,137.2 127.2,137.3 129.8,137.4 132.4,137.5 135.0,137.5 137.6,137.5 140.2,137.4 142.8,137.3 145.4,137.2 148.0,137.0 150.6,136.8 153.1,136.5 155.6,136.2 158.1,135.9 160.6,135.6 163.0,135.2 165.4,134.7 167.8,134.3 170.1,133.8 172.4,133.2 174.6,132.7 176.8,132.1 179.0,131.4 181.0,130.8 183.1,130.1 185.0,129.4 187.0,128.6 188.8,127.8 190.6,127.0 192.3,126.2 193.9,125.3 195.5,124.4 197.0,123.5 198.4,122.6 199.8,121.7 201.0,120.7 202.2,119.7 203.3,118.7 204.3,117.7 205.3,116.7 206.1,115.6 206.9,114.6 207.6,113.5 208.2,112.4 208.7,111.4 209.1,110.3 209.4,109.2 209.6,108.1 209.7,107.0 209.8,105.9 209.7,104.8 209.6,103.7 209.4,102.6 209.1,101.5 208.7,100.4 208.2,99.3 207.6,98.2"/>
<polyline class="thin s1" points="62.4,98.2 61.8,99.3 61.3,100.4 60.9,101.5 60.6,102.6 60.4,103.7 60.3,104.8 60.2,105.9 60.3,107.0 60.4,108.1 60.6,109.2 60.9,110.3 61.3,111.4 61.8,112.4 62.4,113.5 63.1,114.6 63.9,115.6 64.7,116.7 65.7,117.7 66.7,118.7 67.8,119.7 69.0,120.7 70.2,121.7 71.6,122.6 73.0,123.5 74.5,124.4 76.1,125.3 77.7,126.2 79.4,127.0 81.2,127.8 83.0,128.6 85.0,129.4 86.9,130.1 89.0,130.8 91.0,131.4 93.2,132.1 95.4,132.7 97.6,133.2"/>
<polyline class="thin gd" points="206.9,97.2 206.1,96.1 205.3,95.1 204.3,94.0 203.3,93.0 202.2,92.0 201.0,91.0 199.8,90.1 198.4,89.1 197.0,88.2 195.5,87.3 193.9,86.4 192.3,85.5 190.6,84.7 188.8,83.9 187.0,83.1 185.0,82.4 183.1,81.7 181.0,81.0 179.0,80.3 176.8,79.7 174.6,79.1 172.4,78.5 170.1,78.0 167.8,77.5 165.4,77.0 163.0,76.6 160.6,76.2 158.1,75.8 155.6,75.5 153.1,75.2 150.6,74.9 148.0,74.7 145.4,74.6 142.8,74.4 140.2,74.3 137.6,74.3 135.0,74.3 132.4,74.3 129.8,74.3 127.2,74.4 124.6,74.6 122.0,74.7 119.4,74.9 116.9,75.2 114.4,75.5 111.9,75.8 109.4,76.2 107.0,76.6 104.6,77.0 102.2,77.5 99.9,78.0 97.6,78.5 95.4,79.1 93.2,79.7 91.0,80.3 89.0,81.0 86.9,81.7 85.0,82.4 83.0,83.1 81.2,83.9 79.4,84.7 77.7,85.5 76.1,86.4 74.5,87.3 73.0,88.2 71.6,89.1 70.2,90.1 69.0,91.0 67.8,92.0 66.7,93.0 65.7,94.0 64.7,95.1 63.9,96.1 63.1,97.2"/>
<polyline class="ln s1" points="113.4,93.0 114.7,93.3 116.1,93.6 117.4,93.9 118.8,94.1 120.2,94.4 121.7,94.6 123.1,94.8 124.6,94.9 126.0,95.1 127.5,95.2 129.0,95.3 130.5,95.4 132.0,95.4 133.5,95.5 135.0,95.5 136.5,95.5 138.0,95.4 139.5,95.4 141.0,95.3 142.5,95.2 144.0,95.1 145.4,94.9 146.9,94.8 148.3,94.6 149.8,94.4 151.2,94.1 152.6,93.9 153.9,93.6 155.3,93.3 156.6,93.0 157.9,92.7 159.1,92.3 160.4,92.0 161.6,91.6 162.8,91.2 163.9,90.8 165.0,90.3 166.1,89.9 167.1,89.4 168.1,88.9 169.0,88.4 169.9,87.9 170.8,87.4 171.6,86.9 172.4,86.3 173.1,85.8 173.8,85.2 174.4,84.6 175.0,84.1 175.6,83.5 176.1,82.9 176.5,82.2 176.9,81.6 177.2,81.0 177.5,80.4 177.8,79.8 177.9,79.1 178.1,78.5 178.2,77.9 178.2,77.2 178.2,76.6 178.1,75.9 177.9,75.3 177.8,74.7 177.5,74.0 177.2,73.4 176.9,72.8 176.5,72.2 176.1,71.6 175.6,71.0 175.0,70.4 174.4,69.8 173.8,69.2 173.1,68.6 172.4,68.1 171.6,67.5 170.8,67.0 169.9,66.5 169.0,66.0 168.1,65.5 167.1,65.0 166.1,64.5 165.0,64.1 163.9,63.7 162.8,63.2 161.6,62.8"/>
<polyline class="ln s1" points="108.4,62.8 107.2,63.2 106.1,63.7 105.0,64.1 103.9,64.5 102.9,65.0 101.9,65.5 101.0,66.0 100.1,66.5 99.2,67.0 98.4,67.5 97.6,68.1 96.9,68.6 96.2,69.2 95.6,69.8 95.0,70.4 94.4,71.0 93.9,71.6 93.5,72.2 93.1,72.8 92.8,73.4 92.5,74.0 92.2,74.7 92.1,75.3 91.9,75.9 91.8,76.6 91.8,77.2 91.8,77.9 91.9,78.5 92.1,79.1 92.2,79.8 92.5,80.4 92.8,81.0 93.1,81.6 93.5,82.2 93.9,82.9 94.4,83.5 95.0,84.1 95.6,84.6 96.2,85.2 96.9,85.8 97.6,86.3 98.4,86.9 99.2,87.4 100.1,87.9 101.0,88.4 101.9,88.9 102.9,89.4 103.9,89.9 105.0,90.3 106.1,90.8 107.2,91.2 108.4,91.6 109.6,92.0 110.9,92.3 112.1,92.7 113.4,93.0"/>
<polyline class="thin gd" points="160.4,62.5 159.1,62.1 157.9,61.7 156.6,61.4 155.3,61.1 153.9,60.8 152.6,60.5 151.2,60.3 149.8,60.1 148.3,59.9 146.9,59.7 145.4,59.5 144.0,59.4 142.5,59.2 141.0,59.1 139.5,59.1 138.0,59.0 136.5,59.0 135.0,59.0 133.5,59.0 132.0,59.0 130.5,59.1 129.0,59.1 127.5,59.2 126.0,59.4 124.6,59.5 123.1,59.7 121.7,59.9 120.2,60.1 118.8,60.3 117.4,60.5 116.1,60.8 114.7,61.1 113.4,61.4 112.1,61.7 110.9,62.1 109.6,62.5"/>
<polyline class="thin s4" points="135.0,231.4 135.0,231.2 135.0,231.0 135.0,230.7 135.0,230.3 135.0,229.8 135.0,229.2 135.0,228.4 135.0,227.6 135.0,226.7 135.0,225.6 135.0,224.5 135.0,223.3 135.0,222.0 135.0,220.5 135.0,219.0 135.0,217.4 135.0,215.7 135.0,214.0 135.0,212.1 135.0,210.2 135.0,208.2 135.0,206.1 135.0,203.9 135.0,201.7 135.0,199.4 135.0,197.0 135.0,194.5 135.0,192.0 135.0,189.5 135.0,186.9 135.0,184.2 135.0,181.5 135.0,178.7 135.0,175.9 135.0,173.1 135.0,170.3 135.0,167.4 135.0,164.4 135.0,161.5 135.0,158.5 135.0,155.5 135.0,152.5 135.0,149.5 135.0,146.5 135.0,143.5 135.0,140.5 135.0,137.5 135.0,134.5 135.0,131.5 135.0,128.5 135.0,125.6 135.0,122.6 135.0,119.7 135.0,116.9 135.0,114.1 135.0,111.3 135.0,108.5 135.0,105.8 135.0,103.1 135.0,100.5 135.0,98.0 135.0,95.5 135.0,93.0 135.0,90.6 135.0,88.3 135.0,86.1 135.0,83.9 135.0,81.8 135.0,79.8 135.0,77.9 135.0,76.0 135.0,74.3 135.0,72.6 135.0,71.0 135.0,69.5 135.0,68.0 135.0,66.7"/>
<polyline class="thin gd" points="135.0,223.3 135.0,224.5 135.0,225.6 135.0,226.7 135.0,227.6 135.0,228.4 135.0,229.2 135.0,229.8 135.0,230.3 135.0,230.7 135.0,231.0 135.0,231.2 135.0,231.4"/>
<polyline class="thin s4" points="156.6,228.6 157.9,228.1 159.1,227.6 160.4,226.9 161.6,226.1 162.8,225.3 163.9,224.3 165.0,223.3 166.1,222.1 167.1,220.9 168.1,219.5 169.0,218.1 169.9,216.6 170.8,215.0 171.6,213.3 172.4,211.5 173.1,209.7 173.8,207.7 174.4,205.7 175.0,203.6 175.6,201.5 176.1,199.2 176.5,197.0 176.9,194.6 177.2,192.2 177.5,189.7 177.8,187.2 177.9,184.6 178.1,182.0 178.2,179.3 178.2,176.6 178.2,173.9 178.1,171.1 177.9,168.3 177.8,165.4 177.5,162.5 177.2,159.6 176.9,156.7 176.5,153.8 176.1,150.9 175.6,147.9 175.0,145.0 174.4,142.0 173.8,139.1 173.1,136.2 172.4,133.2 171.6,130.3 170.8,127.4 169.9,124.6 169.0,121.7 168.1,118.9 167.1,116.1 166.1,113.4 165.0,110.7 163.9,108.0 162.8,105.4 161.6,102.8 160.4,100.3 159.1,97.8 157.9,95.4 156.6,93.0 155.3,90.7 153.9,88.5 152.6,86.4 151.2,84.3 149.8,82.3 148.3,80.3 146.9,78.5 145.4,76.7 144.0,75.0 142.5,73.4 141.0,71.9 139.5,70.5 138.0,69.1 136.5,67.9 135.0,66.7"/>
<polyline class="thin gd" points="135.0,223.3 136.5,224.3 138.0,225.3 139.5,226.1 141.0,226.9 142.5,227.6 144.0,228.1 145.4,228.6 146.9,229.0 148.3,229.2 149.8,229.4 151.2,229.4 152.6,229.4 153.9,229.2 155.3,228.9"/>
<polyline class="thin s4" points="187.0,214.0 188.8,212.5 190.6,210.9 192.3,209.3 193.9,207.6 195.5,205.8 197.0,203.9 198.4,202.0 199.8,199.9 201.0,197.9 202.2,195.7 203.3,193.5 204.3,191.2 205.3,188.9 206.1,186.5 206.9,184.1 207.6,181.6 208.2,179.1 208.7,176.6 209.1,174.0 209.4,171.3 209.6,168.7 209.7,166.0 209.8,163.2 209.7,160.5 209.6,157.7 209.4,155.0 209.1,152.2 208.7,149.4 208.2,146.6 207.6,143.8 206.9,141.0 206.1,138.2 205.3,135.4 204.3,132.6 203.3,129.8 202.2,127.1 201.0,124.4 199.8,121.7 198.4,119.0 197.0,116.4 195.5,113.8 193.9,111.2 192.3,108.7 190.6,106.2 188.8,103.8 187.0,101.4 185.0,99.0 183.1,96.8 181.0,94.6 179.0,92.4 176.8,90.3 174.6,88.3 172.4,86.3 170.1,84.5 167.8,82.6 165.4,80.9 163.0,79.3 160.6,77.7 158.1,76.2 155.6,74.8 153.1,73.5 150.6,72.2 148.0,71.1 145.4,70.0 142.8,69.1 140.2,68.2 137.6,67.4 135.0,66.7"/>
<polyline class="thin gd" points="135.0,223.3 137.6,223.9 140.2,224.4 142.8,224.8 145.4,225.1 148.0,225.3 150.6,225.4 153.1,225.4 155.6,225.3 158.1,225.1 160.6,224.8 163.0,224.4 165.4,223.9 167.8,223.4 170.1,222.7 172.4,221.9 174.6,221.0 176.8,220.1 179.0,219.1 181.0,217.9 183.1,216.7 185.0,215.4"/>
<polyline class="thin s4" points="221.3,142.3 221.2,139.5 220.9,136.8 220.5,134.1 220.1,131.4 219.5,128.7 218.8,126.1 218.0,123.4 217.1,120.8 216.2,118.2 215.1,115.7 213.9,113.2 212.6,110.7 211.3,108.3 209.8,105.9 208.2,103.5 206.6,101.2 204.9,99.0 203.1,96.8 201.2,94.7 199.2,92.6 197.1,90.6 195.0,88.7 192.8,86.8 190.5,85.0 188.2,83.3 185.8,81.7 183.3,80.1 180.8,78.6 178.2,77.2 175.5,75.9 172.9,74.6 170.1,73.5 167.4,72.4 164.5,71.4 161.7,70.6 158.8,69.8 155.9,69.1 153.0,68.4 150.0,67.9 147.0,67.5 144.0,67.2 141.0,66.9 138.0,66.8 135.0,66.7"/>
<polyline class="thin gd" points="135.0,223.3 138.0,223.2 141.0,223.1 144.0,222.8 147.0,222.5 150.0,222.1 153.0,221.6 155.9,220.9 158.8,220.2 161.7,219.4 164.5,218.6 167.4,217.6 170.1,216.5 172.9,215.4 175.5,214.1 178.2,212.8 180.8,211.4 183.3,209.9 185.8,208.3 188.2,206.7 190.5,205.0 192.8,203.2 195.0,201.3 197.1,199.4 199.2,197.4 201.2,195.3 203.1,193.2 204.9,191.0 206.6,188.8 208.2,186.5 209.8,184.1 211.3,181.7 212.6,179.3 213.9,176.8 215.1,174.3 216.2,171.8 217.1,169.2 218.0,166.6 218.8,163.9 219.5,161.3 220.1,158.6 220.5,155.9 220.9,153.2 221.2,150.5 221.3,147.7 221.4,145.0"/>
<polyline class="thin s4" points="185.0,74.6 183.1,73.3 181.0,72.1 179.0,70.9 176.8,69.9 174.6,69.0 172.4,68.1 170.1,67.3 167.8,66.6 165.4,66.1 163.0,65.6 160.6,65.2 158.1,64.9 155.6,64.7 153.1,64.6 150.6,64.6 148.0,64.7 145.4,64.9 142.8,65.2 140.2,65.6 137.6,66.1 135.0,66.7"/>
<polyline class="thin gd" points="135.0,223.3 137.6,222.6 140.2,221.8 142.8,220.9 145.4,220.0 148.0,218.9 150.6,217.8 153.1,216.5 155.6,215.2 158.1,213.8 160.6,212.3 163.0,210.7 165.4,209.1 167.8,207.4 170.1,205.5 172.4,203.7 174.6,201.7 176.8,199.7 179.0,197.6 181.0,195.4 183.1,193.2 185.0,191.0 187.0,188.6 188.8,186.2 190.6,183.8 192.3,181.3 193.9,178.8 195.5,176.2 197.0,173.6 198.4,171.0 199.8,168.3 201.0,165.6 202.2,162.9 203.3,160.2 204.3,157.4 205.3,154.6 206.1,151.8 206.9,149.0 207.6,146.2 208.2,143.4 208.7,140.6 209.1,137.8 209.4,135.0 209.6,132.3 209.7,129.5 209.8,126.8 209.7,124.0 209.6,121.3 209.4,118.7 209.1,116.0 208.7,113.4 208.2,110.9 207.6,108.4 206.9,105.9 206.1,103.5 205.3,101.1 204.3,98.8 203.3,96.5 202.2,94.3 201.0,92.1 199.8,90.1 198.4,88.0 197.0,86.1 195.5,84.2 193.9,82.4 192.3,80.7 190.6,79.1 188.8,77.5 187.0,76.0"/>
<polyline class="thin s4" points="155.3,61.1 153.9,60.8 152.6,60.6 151.2,60.6 149.8,60.6 148.3,60.8 146.9,61.0 145.4,61.4 144.0,61.9 142.5,62.4 141.0,63.1 139.5,63.9 138.0,64.7 136.5,65.7 135.0,66.7"/>
<polyline class="thin gd" points="135.0,223.3 136.5,222.1 138.0,220.9 139.5,219.5 141.0,218.1 142.5,216.6 144.0,215.0 145.4,213.3 146.9,211.5 148.3,209.7 149.8,207.7 151.2,205.7 152.6,203.6 153.9,201.5 155.3,199.3 156.6,197.0 157.9,194.6 159.1,192.2 160.4,189.7 161.6,187.2 162.8,184.6 163.9,182.0 165.0,179.3 166.1,176.6 167.1,173.9 168.1,171.1 169.0,168.3 169.9,165.4 170.8,162.6 171.6,159.7 172.4,156.8 173.1,153.8 173.8,150.9 174.4,148.0 175.0,145.0 175.6,142.1 176.1,139.1 176.5,136.2 176.9,133.3 177.2,130.4 177.5,127.5 177.8,124.6 177.9,121.7 178.1,118.9 178.2,116.1 178.2,113.4 178.2,110.7 178.1,108.0 177.9,105.4 177.8,102.8 177.5,100.3 177.2,97.8 176.9,95.4 176.5,93.0 176.1,90.8 175.6,88.5 175.0,86.4 174.4,84.3 173.8,82.3 173.1,80.3 172.4,78.5 171.6,76.7 170.8,75.0 169.9,73.4 169.0,71.9 168.1,70.5 167.1,69.1 166.1,67.9 165.0,66.7 163.9,65.7 162.8,64.7 161.6,63.9 160.4,63.1 159.1,62.4 157.9,61.9 156.6,61.4"/>
<polyline class="thin s4" points="135.0,58.6 135.0,58.8 135.0,59.0 135.0,59.3 135.0,59.7 135.0,60.2 135.0,60.8 135.0,61.6 135.0,62.4 135.0,63.3 135.0,64.4 135.0,65.5 135.0,66.7"/>
<polyline class="thin gd" points="135.0,223.3 135.0,222.0 135.0,220.5 135.0,219.0 135.0,217.4 135.0,215.7 135.0,214.0 135.0,212.1 135.0,210.2 135.0,208.2 135.0,206.1 135.0,203.9 135.0,201.7 135.0,199.4 135.0,197.0 135.0,194.5 135.0,192.0 135.0,189.5 135.0,186.9 135.0,184.2 135.0,181.5 135.0,178.7 135.0,175.9 135.0,173.1 135.0,170.3 135.0,167.4 135.0,164.4 135.0,161.5 135.0,158.5 135.0,155.5 135.0,152.5 135.0,149.5 135.0,146.5 135.0,143.5 135.0,140.5 135.0,137.5 135.0,134.5 135.0,131.5 135.0,128.5 135.0,125.6 135.0,122.6 135.0,119.7 135.0,116.9 135.0,114.1 135.0,111.3 135.0,108.5 135.0,105.8 135.0,103.1 135.0,100.5 135.0,98.0 135.0,95.5 135.0,93.0 135.0,90.6 135.0,88.3 135.0,86.1 135.0,83.9 135.0,81.8 135.0,79.8 135.0,77.9 135.0,76.0 135.0,74.3 135.0,72.6 135.0,71.0 135.0,69.5 135.0,68.0 135.0,66.7 135.0,65.5 135.0,64.4 135.0,63.3 135.0,62.4 135.0,61.6 135.0,60.8 135.0,60.2 135.0,59.7 135.0,59.3 135.0,59.0 135.0,58.8 135.0,58.6"/>
<polyline class="thin s4" points="114.7,61.1 116.1,60.8 117.4,60.6 118.8,60.6 120.2,60.6 121.7,60.8 123.1,61.0 124.6,61.4 126.0,61.9 127.5,62.4 129.0,63.1 130.5,63.9 132.0,64.7 133.5,65.7 135.0,66.7"/>
<polyline class="thin gd" points="135.0,223.3 133.5,222.1 132.0,220.9 130.5,219.5 129.0,218.1 127.5,216.6 126.0,215.0 124.6,213.3 123.1,211.5 121.7,209.7 120.2,207.7 118.8,205.7 117.4,203.6 116.1,201.5 114.7,199.3 113.4,197.0 112.1,194.6 110.9,192.2 109.6,189.7 108.4,187.2 107.2,184.6 106.1,182.0 105.0,179.3 103.9,176.6 102.9,173.9 101.9,171.1 101.0,168.3 100.1,165.4 99.2,162.6 98.4,159.7 97.6,156.8 96.9,153.8 96.2,150.9 95.6,148.0 95.0,145.0 94.4,142.1 93.9,139.1 93.5,136.2 93.1,133.3 92.8,130.4 92.5,127.5 92.2,124.6 92.1,121.7 91.9,118.9 91.8,116.1 91.8,113.4 91.8,110.7 91.9,108.0 92.1,105.4 92.2,102.8 92.5,100.3 92.8,97.8 93.1,95.4 93.5,93.0 93.9,90.8 94.4,88.5 95.0,86.4 95.6,84.3 96.2,82.3 96.9,80.3 97.6,78.5 98.4,76.7 99.2,75.0 100.1,73.4 101.0,71.9 101.9,70.5 102.9,69.1 103.9,67.9 105.0,66.7 106.1,65.7 107.2,64.7 108.4,63.9 109.6,63.1 110.9,62.4 112.1,61.9 113.4,61.4"/>
<polyline class="thin s4" points="85.0,74.6 86.9,73.3 89.0,72.1 91.0,70.9 93.2,69.9 95.4,69.0 97.6,68.1 99.9,67.3 102.2,66.6 104.6,66.1 107.0,65.6 109.4,65.2 111.9,64.9 114.4,64.7 116.9,64.6 119.4,64.6 122.0,64.7 124.6,64.9 127.2,65.2 129.8,65.6 132.4,66.1 135.0,66.7"/>
<polyline class="thin gd" points="135.0,223.3 132.4,222.6 129.8,221.8 127.2,220.9 124.6,220.0 122.0,218.9 119.4,217.8 116.9,216.5 114.4,215.2 111.9,213.8 109.4,212.3 107.0,210.7 104.6,209.1 102.2,207.4 99.9,205.5 97.6,203.7 95.4,201.7 93.2,199.7 91.0,197.6 89.0,195.4 86.9,193.2 85.0,191.0 83.0,188.6 81.2,186.2 79.4,183.8 77.7,181.3 76.1,178.8 74.5,176.2 73.0,173.6 71.6,171.0 70.2,168.3 69.0,165.6 67.8,162.9 66.7,160.2 65.7,157.4 64.7,154.6 63.9,151.8 63.1,149.0 62.4,146.2 61.8,143.4 61.3,140.6 60.9,137.8 60.6,135.0 60.4,132.3 60.3,129.5 60.2,126.8 60.3,124.0 60.4,121.3 60.6,118.7 60.9,116.0 61.3,113.4 61.8,110.9 62.4,108.4 63.1,105.9 63.9,103.5 64.7,101.1 65.7,98.8 66.7,96.5 67.8,94.3 69.0,92.1 70.2,90.1 71.6,88.0 73.0,86.1 74.5,84.2 76.1,82.4 77.7,80.7 79.4,79.1 81.2,77.5 83.0,76.0"/>
<polyline class="thin s4" points="48.7,142.3 48.8,139.5 49.1,136.8 49.5,134.1 49.9,131.4 50.5,128.7 51.2,126.1 52.0,123.4 52.9,120.8 53.8,118.2 54.9,115.7 56.1,113.2 57.4,110.7 58.7,108.3 60.2,105.9 61.8,103.5 63.4,101.2 65.1,99.0 66.9,96.8 68.8,94.7 70.8,92.6 72.9,90.6 75.0,88.7 77.2,86.8 79.5,85.0 81.8,83.3 84.2,81.7 86.7,80.1 89.2,78.6 91.8,77.2 94.5,75.9 97.1,74.6 99.9,73.5 102.6,72.4 105.5,71.4 108.3,70.6 111.2,69.8 114.1,69.1 117.0,68.4 120.0,67.9 123.0,67.5 126.0,67.2 129.0,66.9 132.0,66.8 135.0,66.7"/>
<polyline class="thin gd" points="135.0,223.3 132.0,223.2 129.0,223.1 126.0,222.8 123.0,222.5 120.0,222.1 117.0,221.6 114.1,220.9 111.2,220.2 108.3,219.4 105.5,218.6 102.6,217.6 99.9,216.5 97.1,215.4 94.5,214.1 91.8,212.8 89.2,211.4 86.7,209.9 84.2,208.3 81.8,206.7 79.5,205.0 77.2,203.2 75.0,201.3 72.9,199.4 70.8,197.4 68.8,195.3 66.9,193.2 65.1,191.0 63.4,188.8 61.8,186.5 60.2,184.1 58.7,181.7 57.4,179.3 56.1,176.8 54.9,174.3 53.8,171.8 52.9,169.2 52.0,166.6 51.2,163.9 50.5,161.3 49.9,158.6 49.5,155.9 49.1,153.2 48.8,150.5 48.7,147.7 48.6,145.0"/>
<polyline class="thin s4" points="83.0,214.0 81.2,212.5 79.4,210.9 77.7,209.3 76.1,207.6 74.5,205.8 73.0,203.9 71.6,202.0 70.2,199.9 69.0,197.9 67.8,195.7 66.7,193.5 65.7,191.2 64.7,188.9 63.9,186.5 63.1,184.1 62.4,181.6 61.8,179.1 61.3,176.6 60.9,174.0 60.6,171.3 60.4,168.7 60.3,166.0 60.2,163.2 60.3,160.5 60.4,157.7 60.6,155.0 60.9,152.2 61.3,149.4 61.8,146.6 62.4,143.8 63.1,141.0 63.9,138.2 64.7,135.4 65.7,132.6 66.7,129.8 67.8,127.1 69.0,124.4 70.2,121.7 71.6,119.0 73.0,116.4 74.5,113.8 76.1,111.2 77.7,108.7 79.4,106.2 81.2,103.8 83.0,101.4 85.0,99.0 86.9,96.8 89.0,94.6 91.0,92.4 93.2,90.3 95.4,88.3 97.6,86.3 99.9,84.5 102.2,82.6 104.6,80.9 107.0,79.3 109.4,77.7 111.9,76.2 114.4,74.8 116.9,73.5 119.4,72.2 122.0,71.1 124.6,70.0 127.2,69.1 129.8,68.2 132.4,67.4 135.0,66.7"/>
<polyline class="thin gd" points="135.0,223.3 132.4,223.9 129.8,224.4 127.2,224.8 124.6,225.1 122.0,225.3 119.4,225.4 116.9,225.4 114.4,225.3 111.9,225.1 109.4,224.8 107.0,224.4 104.6,223.9 102.2,223.4 99.9,222.7 97.6,221.9 95.4,221.0 93.2,220.1 91.0,219.1 89.0,217.9 86.9,216.7 85.0,215.4"/>
<polyline class="dash s2" points="113.4,228.6 112.1,228.1 110.9,227.6 109.6,226.9 108.4,226.1 107.2,225.3 106.1,224.3 105.0,223.3 103.9,222.1 102.9,220.9 101.9,219.5 101.0,218.1 100.1,216.6 99.2,215.0 98.4,213.3 97.6,211.5 96.9,209.7 96.2,207.7 95.6,205.7 95.0,203.6 94.4,201.5 93.9,199.2 93.5,197.0 93.1,194.6 92.8,192.2 92.5,189.7 92.2,187.2 92.1,184.6 91.9,182.0 91.8,179.3 91.8,176.6 91.8,173.9 91.9,171.1 92.1,168.3 92.2,165.4 92.5,162.5 92.8,159.6 93.1,156.7 93.5,153.8 93.9,150.9 94.4,147.9 95.0,145.0 95.6,142.0 96.2,139.1 96.9,136.2 97.6,133.2 98.4,130.3 99.2,127.4 100.1,124.6 101.0,121.7 101.9,118.9 102.9,116.1 103.9,113.4 105.0,110.7 106.1,108.0 107.2,105.4 108.4,102.8 109.6,100.3 110.9,97.8 112.1,95.4 113.4,93.0 114.7,90.7 116.1,88.5 117.4,86.4 118.8,84.3 120.2,82.3 121.7,80.3 123.1,78.5 124.6,76.7 126.0,75.0 127.5,73.4 129.0,71.9 130.5,70.5 132.0,69.1 133.5,67.9 135.0,66.7"/>
<polyline class="thin gd" points="135.0,223.3 133.5,224.3 132.0,225.3 130.5,226.1 129.0,226.9 127.5,227.6 126.0,228.1 124.6,228.6 123.1,229.0 121.7,229.2 120.2,229.4 118.8,229.4 117.4,229.4 116.1,229.2 114.7,228.9"/>
<circle class="f2 ring" cx="135.0" cy="66.7" r="5"/>
<text class="sm" x="135.0" y="57.7" text-anchor="middle">north pole: longitude undefined</text>
<circle class="f0 ring" cx="135.0" cy="223.3" r="3"/>
<text class="sm" x="135.0" y="239.3" text-anchor="middle">south pole (behind): same problem</text>
<text class="sm" x="79.8" y="206.6" text-anchor="start">180°: +180 meets −180</text>
<circle class="f2 ring" cx="135.0" cy="137.5" r="4.5"/>
<text class="v" x="142.0" y="131.5" text-anchor="start">P</text>
<text class="hd" x="300" y="36">chart N: project from the north pole</text>
<path class="fillS" fill-rule="evenodd" d="M 479.4,145.0 L 479.3,140.5 L 478.9,136.1 L 478.4,131.7 L 477.5,127.3 L 476.5,123.0 L 475.2,118.7 L 473.7,114.5 L 472.0,110.4 L 470.1,106.4 L 467.9,102.5 L 465.6,98.7 L 463.0,95.0 L 460.3,91.5 L 457.4,88.1 L 454.3,84.9 L 451.0,81.9 L 447.6,79.0 L 444.1,76.3 L 440.4,73.8 L 436.6,71.5 L 432.6,69.4 L 428.6,67.6 L 424.5,65.9 L 420.2,64.4 L 416.0,63.2 L 411.6,62.2 L 407.2,61.5 L 402.8,60.9 L 398.3,60.7 L 393.9,60.6 L 389.4,60.8 L 385.0,61.2 L 380.6,61.8 L 376.2,62.7 L 371.9,63.8 L 367.6,65.1 L 363.5,66.7 L 359.4,68.5 L 355.4,70.5 L 351.5,72.6 L 347.8,75.0 L 344.1,77.6 L 340.6,80.4 L 337.3,83.4 L 334.1,86.5 L 331.1,89.8 L 328.3,93.2 L 325.7,96.8 L 323.2,100.6 L 321.0,104.4 L 318.9,108.4 L 317.1,112.4 L 315.5,116.6 L 314.1,120.8 L 313.0,125.1 L 312.0,129.5 L 311.3,133.9 L 310.8,138.3 L 310.6,142.8 L 310.6,147.2 L 310.8,151.7 L 311.3,156.1 L 312.0,160.5 L 313.0,164.9 L 314.1,169.2 L 315.5,173.4 L 317.1,177.6 L 318.9,181.6 L 321.0,185.6 L 323.2,189.4 L 325.7,193.2 L 328.3,196.8 L 331.1,200.2 L 334.1,203.5 L 337.3,206.6 L 340.6,209.6 L 344.1,212.4 L 347.8,215.0 L 351.5,217.4 L 355.4,219.5 L 359.4,221.5 L 363.5,223.3 L 367.6,224.9 L 371.9,226.2 L 376.2,227.3 L 380.6,228.2 L 385.0,228.8 L 389.4,229.2 L 393.9,229.4 L 398.3,229.3 L 402.8,229.1 L 407.2,228.5 L 411.6,227.8 L 416.0,226.8 L 420.2,225.6 L 424.5,224.1 L 428.6,222.4 L 432.6,220.6 L 436.6,218.5 L 440.4,216.2 L 444.1,213.7 L 447.6,211.0 L 451.0,208.1 L 454.3,205.1 L 457.4,201.9 L 460.3,198.5 L 463.0,195.0 L 465.6,191.3 L 467.9,187.5 L 470.1,183.6 L 472.0,179.6 L 473.7,175.5 L 475.2,171.3 L 476.5,167.0 L 477.5,162.7 L 478.4,158.3 L 478.9,153.9 L 479.3,149.5 L 479.4,145.0 Z M 401.1,145.0 L 401.1,144.7 L 401.0,144.4 L 401.0,144.0 L 400.9,143.7 L 400.9,143.4 L 400.8,143.1 L 400.7,142.8 L 400.5,142.5 L 400.4,142.2 L 400.2,141.9 L 400.1,141.7 L 399.9,141.4 L 399.7,141.2 L 399.5,140.9 L 399.3,140.7 L 399.0,140.5 L 398.8,140.3 L 398.5,140.1 L 398.3,139.9 L 398.0,139.7 L 397.7,139.6 L 397.4,139.4 L 397.1,139.3 L 396.8,139.2 L 396.5,139.1 L 396.2,139.1 L 395.9,139.0 L 395.6,139.0 L 395.2,138.9 L 394.9,138.9 L 394.6,139.0 L 394.3,139.0 L 394.0,139.0 L 393.7,139.1 L 393.3,139.2 L 393.0,139.3 L 392.7,139.4 L 392.4,139.5 L 392.2,139.6 L 391.9,139.8 L 391.6,140.0 L 391.3,140.2 L 391.1,140.4 L 390.9,140.6 L 390.6,140.8 L 390.4,141.0 L 390.2,141.3 L 390.0,141.5 L 389.8,141.8 L 389.7,142.1 L 389.5,142.4 L 389.4,142.7 L 389.3,143.0 L 389.2,143.3 L 389.1,143.6 L 389.0,143.9 L 389.0,144.2 L 389.0,144.5 L 388.9,144.8 L 388.9,145.2 L 389.0,145.5 L 389.0,145.8 L 389.0,146.1 L 389.1,146.4 L 389.2,146.7 L 389.3,147.0 L 389.4,147.3 L 389.5,147.6 L 389.7,147.9 L 389.8,148.2 L 390.0,148.5 L 390.2,148.7 L 390.4,149.0 L 390.6,149.2 L 390.9,149.4 L 391.1,149.6 L 391.3,149.8 L 391.6,150.0 L 391.9,150.2 L 392.2,150.4 L 392.4,150.5 L 392.7,150.6 L 393.0,150.7 L 393.3,150.8 L 393.7,150.9 L 394.0,151.0 L 394.3,151.0 L 394.6,151.0 L 394.9,151.1 L 395.2,151.1 L 395.6,151.0 L 395.9,151.0 L 396.2,150.9 L 396.5,150.9 L 396.8,150.8 L 397.1,150.7 L 397.4,150.6 L 397.7,150.4 L 398.0,150.3 L 398.3,150.1 L 398.5,149.9 L 398.8,149.7 L 399.0,149.5 L 399.3,149.3 L 399.5,149.1 L 399.7,148.8 L 399.9,148.6 L 400.1,148.3 L 400.2,148.1 L 400.4,147.8 L 400.5,147.5 L 400.7,147.2 L 400.8,146.9 L 400.9,146.6 L 400.9,146.3 L 401.0,146.0 L 401.0,145.6 L 401.1,145.3 L 401.1,145.0 Z"/>
<polyline class="ln s1" points="388.9,145.0 388.9,145.2 389.0,145.4 389.0,145.6 389.0,145.8 389.0,146.1 389.1,146.3 389.1,146.5 389.2,146.7 389.2,146.9 389.3,147.1 389.4,147.3 389.5,147.5 389.6,147.7 389.6,147.8 389.8,148.0 389.9,148.2 390.0,148.4 390.1,148.6 390.2,148.7 390.4,148.9 390.5,149.1 390.6,149.2 390.8,149.4 390.9,149.5 391.1,149.6 391.3,149.8 391.4,149.9 391.6,150.0 391.8,150.1 392.0,150.2 392.2,150.4 392.3,150.4 392.5,150.5 392.7,150.6 392.9,150.7 393.1,150.8 393.3,150.8 393.5,150.9 393.7,150.9 393.9,151.0 394.2,151.0 394.4,151.0 394.6,151.0 394.8,151.1 395.0,151.1 395.2,151.1 395.4,151.0 395.6,151.0 395.8,151.0 396.1,151.0 396.3,150.9 396.5,150.9 396.7,150.8 396.9,150.8 397.1,150.7 397.3,150.6 397.5,150.5 397.7,150.4 397.8,150.4 398.0,150.2 398.2,150.1 398.4,150.0 398.6,149.9 398.7,149.8 398.9,149.6 399.1,149.5 399.2,149.4 399.4,149.2 399.5,149.1 399.6,148.9 399.8,148.7 399.9,148.6 400.0,148.4 400.1,148.2 400.2,148.0 400.4,147.8 400.4,147.7 400.5,147.5 400.6,147.3 400.7,147.1 400.8,146.9 400.8,146.7 400.9,146.5 400.9,146.3 401.0,146.1 401.0,145.8 401.0,145.6 401.0,145.4 401.1,145.2 401.1,145.0 401.1,144.8 401.0,144.6 401.0,144.4 401.0,144.2 401.0,143.9 400.9,143.7 400.9,143.5 400.8,143.3 400.8,143.1 400.7,142.9 400.6,142.7 400.5,142.5 400.4,142.3 400.4,142.2 400.2,142.0 400.1,141.8 400.0,141.6 399.9,141.4 399.8,141.3 399.6,141.1 399.5,140.9 399.4,140.8 399.2,140.6 399.1,140.5 398.9,140.4 398.7,140.2 398.6,140.1 398.4,140.0 398.2,139.9 398.0,139.8 397.8,139.6 397.7,139.6 397.5,139.5 397.3,139.4 397.1,139.3 396.9,139.2 396.7,139.2 396.5,139.1 396.3,139.1 396.1,139.0 395.8,139.0 395.6,139.0 395.4,139.0 395.2,138.9 395.0,138.9 394.8,138.9 394.6,139.0 394.4,139.0 394.2,139.0 393.9,139.0 393.7,139.1 393.5,139.1 393.3,139.2 393.1,139.2 392.9,139.3 392.7,139.4 392.5,139.5 392.3,139.6 392.2,139.6 392.0,139.8 391.8,139.9 391.6,140.0 391.4,140.1 391.3,140.2 391.1,140.4 390.9,140.5 390.8,140.6 390.6,140.8 390.5,140.9 390.4,141.1 390.2,141.3 390.1,141.4 390.0,141.6 389.9,141.8 389.8,142.0 389.6,142.2 389.6,142.3 389.5,142.5 389.4,142.7 389.3,142.9 389.2,143.1 389.2,143.3 389.1,143.5 389.1,143.7 389.0,143.9 389.0,144.2 389.0,144.4 389.0,144.6 388.9,144.8 388.9,145.0"/>
<polyline class="thin s1" points="381.9,145.0 381.9,145.5 382.0,145.9 382.0,146.4 382.1,146.8 382.1,147.3 382.2,147.7 382.3,148.2 382.4,148.6 382.6,149.0 382.7,149.5 382.9,149.9 383.1,150.3 383.3,150.7 383.5,151.1 383.7,151.5 383.9,151.9 384.2,152.3 384.4,152.7 384.7,153.0 385.0,153.4 385.3,153.7 385.6,154.1 385.9,154.4 386.3,154.7 386.6,155.0 387.0,155.3 387.3,155.6 387.7,155.8 388.1,156.1 388.5,156.3 388.9,156.5 389.3,156.7 389.7,156.9 390.1,157.1 390.5,157.3 391.0,157.4 391.4,157.6 391.8,157.7 392.3,157.8 392.7,157.9 393.2,157.9 393.6,158.0 394.1,158.0 394.5,158.1 395.0,158.1 395.5,158.1 395.9,158.0 396.4,158.0 396.8,157.9 397.3,157.9 397.7,157.8 398.2,157.7 398.6,157.6 399.0,157.4 399.5,157.3 399.9,157.1 400.3,156.9 400.7,156.7 401.1,156.5 401.5,156.3 401.9,156.1 402.3,155.8 402.7,155.6 403.0,155.3 403.4,155.0 403.7,154.7 404.1,154.4 404.4,154.1 404.7,153.7 405.0,153.4 405.3,153.0 405.6,152.7 405.8,152.3 406.1,151.9 406.3,151.5 406.5,151.1 406.7,150.7 406.9,150.3 407.1,149.9 407.3,149.5 407.4,149.0 407.6,148.6 407.7,148.2 407.8,147.7 407.9,147.3 407.9,146.8 408.0,146.4 408.0,145.9 408.1,145.5 408.1,145.0 408.1,144.5 408.0,144.1 408.0,143.6 407.9,143.2 407.9,142.7 407.8,142.3 407.7,141.8 407.6,141.4 407.4,141.0 407.3,140.5 407.1,140.1 406.9,139.7 406.7,139.3 406.5,138.9 406.3,138.5 406.1,138.1 405.8,137.7 405.6,137.3 405.3,137.0 405.0,136.6 404.7,136.3 404.4,135.9 404.1,135.6 403.7,135.3 403.4,135.0 403.0,134.7 402.7,134.4 402.3,134.2 401.9,133.9 401.5,133.7 401.1,133.5 400.7,133.3 400.3,133.1 399.9,132.9 399.5,132.7 399.0,132.6 398.6,132.4 398.2,132.3 397.7,132.2 397.3,132.1 396.8,132.1 396.4,132.0 395.9,132.0 395.5,131.9 395.0,131.9 394.5,131.9 394.1,132.0 393.6,132.0 393.2,132.1 392.7,132.1 392.3,132.2 391.8,132.3 391.4,132.4 391.0,132.6 390.5,132.7 390.1,132.9 389.7,133.1 389.3,133.3 388.9,133.5 388.5,133.7 388.1,133.9 387.7,134.2 387.3,134.4 387.0,134.7 386.6,135.0 386.3,135.3 385.9,135.6 385.6,135.9 385.3,136.3 385.0,136.6 384.7,137.0 384.4,137.3 384.2,137.7 383.9,138.1 383.7,138.5 383.5,138.9 383.3,139.3 383.1,139.7 382.9,140.1 382.7,140.5 382.6,141.0 382.4,141.4 382.3,141.8 382.2,142.3 382.1,142.7 382.1,143.2 382.0,143.6 382.0,144.1 381.9,144.5 381.9,145.0"/>
<polyline class="thin s1" points="372.4,145.0 372.4,145.8 372.4,146.6 372.5,147.4 372.6,148.1 372.7,148.9 372.9,149.7 373.1,150.5 373.3,151.2 373.5,152.0 373.7,152.7 374.0,153.5 374.3,154.2 374.7,154.9 375.0,155.6 375.4,156.3 375.8,157.0 376.2,157.6 376.7,158.3 377.2,158.9 377.7,159.5 378.2,160.1 378.7,160.7 379.3,161.3 379.9,161.8 380.5,162.3 381.1,162.8 381.7,163.3 382.4,163.8 383.0,164.2 383.7,164.6 384.4,165.0 385.1,165.3 385.8,165.7 386.5,166.0 387.3,166.3 388.0,166.5 388.8,166.7 389.5,166.9 390.3,167.1 391.1,167.3 391.9,167.4 392.6,167.5 393.4,167.6 394.2,167.6 395.0,167.6 395.8,167.6 396.6,167.6 397.4,167.5 398.1,167.4 398.9,167.3 399.7,167.1 400.5,166.9 401.2,166.7 402.0,166.5 402.7,166.3 403.5,166.0 404.2,165.7 404.9,165.3 405.6,165.0 406.3,164.6 407.0,164.2 407.6,163.8 408.3,163.3 408.9,162.8 409.5,162.3 410.1,161.8 410.7,161.3 411.3,160.7 411.8,160.1 412.3,159.5 412.8,158.9 413.3,158.3 413.8,157.6 414.2,157.0 414.6,156.3 415.0,155.6 415.3,154.9 415.7,154.2 416.0,153.5 416.3,152.7 416.5,152.0 416.7,151.2 416.9,150.5 417.1,149.7 417.3,148.9 417.4,148.1 417.5,147.4 417.6,146.6 417.6,145.8 417.6,145.0 417.6,144.2 417.6,143.4 417.5,142.6 417.4,141.9 417.3,141.1 417.1,140.3 416.9,139.5 416.7,138.8 416.5,138.0 416.3,137.3 416.0,136.5 415.7,135.8 415.3,135.1 415.0,134.4 414.6,133.7 414.2,133.0 413.8,132.4 413.3,131.7 412.8,131.1 412.3,130.5 411.8,129.9 411.3,129.3 410.7,128.7 410.1,128.2 409.5,127.7 408.9,127.2 408.3,126.7 407.6,126.2 407.0,125.8 406.3,125.4 405.6,125.0 404.9,124.7 404.2,124.3 403.5,124.0 402.7,123.7 402.0,123.5 401.2,123.3 400.5,123.1 399.7,122.9 398.9,122.7 398.1,122.6 397.4,122.5 396.6,122.4 395.8,122.4 395.0,122.4 394.2,122.4 393.4,122.4 392.6,122.5 391.9,122.6 391.1,122.7 390.3,122.9 389.5,123.1 388.8,123.3 388.0,123.5 387.3,123.7 386.5,124.0 385.8,124.3 385.1,124.7 384.4,125.0 383.7,125.4 383.0,125.8 382.4,126.2 381.7,126.7 381.1,127.2 380.5,127.7 379.9,128.2 379.3,128.7 378.7,129.3 378.2,129.9 377.7,130.5 377.2,131.1 376.7,131.7 376.2,132.4 375.8,133.0 375.4,133.7 375.0,134.4 374.7,135.1 374.3,135.8 374.0,136.5 373.7,137.3 373.5,138.0 373.3,138.8 373.1,139.5 372.9,140.3 372.7,141.1 372.6,141.9 372.5,142.6 372.4,143.4 372.4,144.2 372.4,145.0"/>
<polyline class="thin s1" points="355.8,145.0 355.8,146.4 355.9,147.7 356.0,149.1 356.2,150.5 356.4,151.8 356.7,153.1 357.0,154.5 357.3,155.8 357.7,157.1 358.2,158.4 358.7,159.7 359.2,160.9 359.8,162.2 360.4,163.4 361.1,164.6 361.8,165.8 362.5,166.9 363.3,168.0 364.1,169.1 365.0,170.2 365.9,171.2 366.8,172.2 367.8,173.2 368.8,174.1 369.8,175.0 370.9,175.9 372.0,176.7 373.1,177.5 374.2,178.2 375.4,178.9 376.6,179.6 377.8,180.2 379.1,180.8 380.3,181.3 381.6,181.8 382.9,182.3 384.2,182.7 385.5,183.0 386.9,183.3 388.2,183.6 389.5,183.8 390.9,184.0 392.3,184.1 393.6,184.2 395.0,184.2 396.4,184.2 397.7,184.1 399.1,184.0 400.5,183.8 401.8,183.6 403.1,183.3 404.5,183.0 405.8,182.7 407.1,182.3 408.4,181.8 409.7,181.3 410.9,180.8 412.2,180.2 413.4,179.6 414.6,178.9 415.8,178.2 416.9,177.5 418.0,176.7 419.1,175.9 420.2,175.0 421.2,174.1 422.2,173.2 423.2,172.2 424.1,171.2 425.0,170.2 425.9,169.1 426.7,168.0 427.5,166.9 428.2,165.8 428.9,164.6 429.6,163.4 430.2,162.2 430.8,160.9 431.3,159.7 431.8,158.4 432.3,157.1 432.7,155.8 433.0,154.5 433.3,153.1 433.6,151.8 433.8,150.5 434.0,149.1 434.1,147.7 434.2,146.4 434.2,145.0 434.2,143.6 434.1,142.3 434.0,140.9 433.8,139.5 433.6,138.2 433.3,136.9 433.0,135.5 432.7,134.2 432.3,132.9 431.8,131.6 431.3,130.3 430.8,129.1 430.2,127.8 429.6,126.6 428.9,125.4 428.2,124.2 427.5,123.1 426.7,122.0 425.9,120.9 425.0,119.8 424.1,118.8 423.2,117.8 422.2,116.8 421.2,115.9 420.2,115.0 419.1,114.1 418.0,113.3 416.9,112.5 415.8,111.8 414.6,111.1 413.4,110.4 412.2,109.8 410.9,109.2 409.7,108.7 408.4,108.2 407.1,107.7 405.8,107.3 404.5,107.0 403.1,106.7 401.8,106.4 400.5,106.2 399.1,106.0 397.7,105.9 396.4,105.8 395.0,105.8 393.6,105.8 392.3,105.9 390.9,106.0 389.5,106.2 388.2,106.4 386.9,106.7 385.5,107.0 384.2,107.3 382.9,107.7 381.6,108.2 380.3,108.7 379.1,109.2 377.8,109.8 376.6,110.4 375.4,111.1 374.2,111.8 373.1,112.5 372.0,113.3 370.9,114.1 369.8,115.0 368.8,115.9 367.8,116.8 366.8,117.8 365.9,118.8 365.0,119.8 364.1,120.9 363.3,122.0 362.5,123.1 361.8,124.2 361.1,125.4 360.4,126.6 359.8,127.8 359.2,129.1 358.7,130.3 358.2,131.6 357.7,132.9 357.3,134.2 357.0,135.5 356.7,136.9 356.4,138.2 356.2,139.5 356.0,140.9 355.9,142.3 355.8,143.6 355.8,145.0"/>
<polyline class="ln s1" points="310.6,145.0 310.6,147.9 310.8,150.9 311.0,153.8 311.4,156.7 311.9,159.7 312.4,162.6 313.1,165.4 313.9,168.3 314.7,171.1 315.7,173.9 316.7,176.6 317.9,179.3 319.1,182.0 320.5,184.6 321.9,187.2 323.4,189.7 325.0,192.2 326.7,194.6 328.5,197.0 330.3,199.3 332.3,201.5 334.3,203.6 336.4,205.7 338.5,207.7 340.7,209.7 343.0,211.5 345.4,213.3 347.8,215.0 350.3,216.6 352.8,218.1 355.4,219.5 358.0,220.9 360.7,222.1 363.4,223.3 366.1,224.3 368.9,225.3 371.7,226.1 374.6,226.9 377.4,227.6 380.3,228.1 383.3,228.6 386.2,229.0 389.1,229.2 392.1,229.4 395.0,229.4 397.9,229.4 400.9,229.2 403.8,229.0 406.7,228.6 409.7,228.1 412.6,227.6 415.4,226.9 418.3,226.1 421.1,225.3 423.9,224.3 426.6,223.3 429.3,222.1 432.0,220.9 434.6,219.5 437.2,218.1 439.7,216.6 442.2,215.0 444.6,213.3 447.0,211.5 449.3,209.7 451.5,207.7 453.6,205.7 455.7,203.6 457.7,201.5 459.7,199.3 461.5,197.0 463.3,194.6 465.0,192.2 466.6,189.7 468.1,187.2 469.5,184.6 470.9,182.0 472.1,179.3 473.3,176.6 474.3,173.9 475.3,171.1 476.1,168.3 476.9,165.4 477.6,162.6 478.1,159.7 478.6,156.7 479.0,153.8 479.2,150.9 479.4,147.9 479.4,145.0 479.4,142.1 479.2,139.1 479.0,136.2 478.6,133.3 478.1,130.3 477.6,127.4 476.9,124.6 476.1,121.7 475.3,118.9 474.3,116.1 473.3,113.4 472.1,110.7 470.9,108.0 469.5,105.4 468.1,102.8 466.6,100.3 465.0,97.8 463.3,95.4 461.5,93.0 459.7,90.7 457.7,88.5 455.7,86.4 453.6,84.3 451.5,82.3 449.3,80.3 447.0,78.5 444.6,76.7 442.2,75.0 439.7,73.4 437.2,71.9 434.6,70.5 432.0,69.1 429.3,67.9 426.6,66.7 423.9,65.7 421.1,64.7 418.3,63.9 415.4,63.1 412.6,62.4 409.7,61.9 406.7,61.4 403.8,61.0 400.9,60.8 397.9,60.6 395.0,60.6 392.1,60.6 389.1,60.8 386.2,61.0 383.3,61.4 380.3,61.9 377.4,62.4 374.6,63.1 371.7,63.9 368.9,64.7 366.1,65.7 363.4,66.7 360.7,67.9 358.0,69.1 355.4,70.5 352.8,71.9 350.3,73.4 347.8,75.0 345.4,76.7 343.0,78.5 340.7,80.3 338.5,82.3 336.4,84.3 334.3,86.4 332.3,88.5 330.3,90.7 328.5,93.0 326.7,95.4 325.0,97.8 323.4,100.3 321.9,102.8 320.5,105.4 319.1,108.0 317.9,110.7 316.7,113.4 315.7,116.1 314.7,118.9 313.9,121.7 313.1,124.6 312.4,127.4 311.9,130.3 311.4,133.3 311.0,136.2 310.8,139.1 310.6,142.1 310.6,145.0"/>
<polyline class="thin s4" points="394.0,145.6 393.6,145.8 393.3,146.0 392.9,146.2 392.6,146.4 392.2,146.6 391.9,146.8 391.5,147.0 391.2,147.2 390.8,147.4 390.5,147.6 390.1,147.8 389.8,148.0 389.4,148.2 389.0,148.5 388.6,148.7 388.3,148.9 387.9,149.1 387.5,149.3 387.1,149.6 386.7,149.8 386.3,150.0 385.9,150.3 385.4,150.5 385.0,150.8 384.6,151.0 384.1,151.3 383.7,151.5 383.2,151.8 382.8,152.1 382.3,152.3 381.8,152.6 381.3,152.9 380.8,153.2 380.2,153.5 379.7,153.8 379.1,154.2 378.6,154.5 378.0,154.8 377.4,155.2 376.7,155.5 376.1,155.9 375.4,156.3 374.7,156.7 374.0,157.1 373.2,157.6 372.5,158.0 371.7,158.5 370.8,159.0 369.9,159.5 369.0,160.0 368.0,160.6 367.0,161.2 366.0,161.8 364.8,162.4 363.7,163.1 362.4,163.8 361.1,164.6 359.7,165.4 358.2,166.3 356.6,167.2 354.8,168.2 353.0,169.3 351.0,170.4 348.9,171.6 346.5,173.0 344.0,174.5 341.2,176.1 338.1,177.8 334.7,179.8 330.9,182.0 326.7,184.4 321.9,187.2 316.4,190.4 310.2,194.0 302.8,198.2"/>
<polyline class="thin s4" points="394.4,146.0 394.2,146.4 394.0,146.7 393.8,147.1 393.6,147.4 393.4,147.8 393.2,148.1 393.0,148.5 392.8,148.8 392.6,149.2 392.4,149.5 392.2,149.9 392.0,150.2 391.8,150.6 391.5,151.0 391.3,151.4 391.1,151.7 390.9,152.1 390.7,152.5 390.4,152.9 390.2,153.3 390.0,153.7 389.7,154.1 389.5,154.6 389.2,155.0 389.0,155.4 388.7,155.9 388.5,156.3 388.2,156.8 387.9,157.2 387.7,157.7 387.4,158.2 387.1,158.7 386.8,159.2 386.5,159.8 386.2,160.3 385.8,160.9 385.5,161.4 385.2,162.0 384.8,162.6 384.5,163.3 384.1,163.9 383.7,164.6 383.3,165.3 382.9,166.0 382.4,166.8 382.0,167.5 381.5,168.3 381.0,169.2 380.5,170.1 380.0,171.0 379.4,172.0 378.8,173.0 378.2,174.0 377.6,175.2 376.9,176.3 376.2,177.6 375.4,178.9 374.6,180.3 373.7,181.8 372.8,183.4 371.8,185.2 370.7,187.0 369.6,189.0 368.4,191.1 367.0,193.5 365.5,196.0 363.9,198.8 362.2,201.9 360.2,205.3 358.0,209.1 355.6,213.3 352.8,218.1 349.6,223.6 346.0,229.8 341.8,237.2"/>
<polyline class="thin s4" points="395.0,146.2 395.0,146.6 395.0,147.0 395.0,147.4 395.0,147.8 395.0,148.2 395.0,148.6 395.0,149.0 395.0,149.4 395.0,149.8 395.0,150.2 395.0,150.6 395.0,151.1 395.0,151.5 395.0,151.9 395.0,152.3 395.0,152.8 395.0,153.2 395.0,153.7 395.0,154.1 395.0,154.6 395.0,155.1 395.0,155.5 395.0,156.0 395.0,156.5 395.0,157.0 395.0,157.5 395.0,158.1 395.0,158.6 395.0,159.1 395.0,159.7 395.0,160.3 395.0,160.8 395.0,161.4 395.0,162.0 395.0,162.7 395.0,163.3 395.0,164.0 395.0,164.7 395.0,165.4 395.0,166.1 395.0,166.8 395.0,167.6 395.0,168.4 395.0,169.3 395.0,170.1 395.0,171.0 395.0,172.0 395.0,172.9 395.0,174.0 395.0,175.0 395.0,176.1 395.0,177.3 395.0,178.5 395.0,179.8 395.0,181.2 395.0,182.6 395.0,184.2 395.0,185.8 395.0,187.5 395.0,189.4 395.0,191.4 395.0,193.5 395.0,195.8 395.0,198.3 395.0,201.0 395.0,203.9 395.0,207.1 395.0,210.7 395.0,214.6 395.0,219.0 395.0,223.9 395.0,229.4 395.0,235.7"/>
<polyline class="thin s4" points="395.6,146.0 395.8,146.4 396.0,146.7 396.2,147.1 396.4,147.4 396.6,147.8 396.8,148.1 397.0,148.5 397.2,148.8 397.4,149.2 397.6,149.5 397.8,149.9 398.0,150.2 398.2,150.6 398.5,151.0 398.7,151.4 398.9,151.7 399.1,152.1 399.3,152.5 399.6,152.9 399.8,153.3 400.0,153.7 400.3,154.1 400.5,154.6 400.8,155.0 401.0,155.4 401.3,155.9 401.5,156.3 401.8,156.8 402.1,157.2 402.3,157.7 402.6,158.2 402.9,158.7 403.2,159.2 403.5,159.8 403.8,160.3 404.2,160.9 404.5,161.4 404.8,162.0 405.2,162.6 405.5,163.3 405.9,163.9 406.3,164.6 406.7,165.3 407.1,166.0 407.6,166.8 408.0,167.5 408.5,168.3 409.0,169.2 409.5,170.1 410.0,171.0 410.6,172.0 411.2,173.0 411.8,174.0 412.4,175.2 413.1,176.3 413.8,177.6 414.6,178.9 415.4,180.3 416.3,181.8 417.2,183.4 418.2,185.2 419.3,187.0 420.4,189.0 421.6,191.1 423.0,193.5 424.5,196.0 426.1,198.8 427.8,201.9 429.8,205.3 432.0,209.1 434.4,213.3 437.2,218.1 440.4,223.6 444.0,229.8 448.2,237.2"/>
<polyline class="thin s4" points="396.0,145.6 396.4,145.8 396.7,146.0 397.1,146.2 397.4,146.4 397.8,146.6 398.1,146.8 398.5,147.0 398.8,147.2 399.2,147.4 399.5,147.6 399.9,147.8 400.2,148.0 400.6,148.2 401.0,148.5 401.4,148.7 401.7,148.9 402.1,149.1 402.5,149.3 402.9,149.6 403.3,149.8 403.7,150.0 404.1,150.3 404.6,150.5 405.0,150.8 405.4,151.0 405.9,151.3 406.3,151.5 406.8,151.8 407.2,152.1 407.7,152.3 408.2,152.6 408.7,152.9 409.2,153.2 409.8,153.5 410.3,153.8 410.9,154.2 411.4,154.5 412.0,154.8 412.6,155.2 413.3,155.5 413.9,155.9 414.6,156.3 415.3,156.7 416.0,157.1 416.8,157.6 417.5,158.0 418.3,158.5 419.2,159.0 420.1,159.5 421.0,160.0 422.0,160.6 423.0,161.2 424.0,161.8 425.2,162.4 426.3,163.1 427.6,163.8 428.9,164.6 430.3,165.4 431.8,166.3 433.4,167.2 435.2,168.2 437.0,169.3 439.0,170.4 441.1,171.6 443.5,173.0 446.0,174.5 448.8,176.1 451.9,177.8 455.3,179.8 459.1,182.0 463.3,184.4 468.1,187.2 473.6,190.4 479.8,194.0 487.2,198.2"/>
<polyline class="thin s4" points="396.2,145.0 396.6,145.0 397.0,145.0 397.4,145.0 397.8,145.0 398.2,145.0 398.6,145.0 399.0,145.0 399.4,145.0 399.8,145.0 400.2,145.0 400.6,145.0 401.1,145.0 401.5,145.0 401.9,145.0 402.3,145.0 402.8,145.0 403.2,145.0 403.7,145.0 404.1,145.0 404.6,145.0 405.1,145.0 405.5,145.0 406.0,145.0 406.5,145.0 407.0,145.0 407.5,145.0 408.1,145.0 408.6,145.0 409.1,145.0 409.7,145.0 410.3,145.0 410.8,145.0 411.4,145.0 412.0,145.0 412.7,145.0 413.3,145.0 414.0,145.0 414.7,145.0 415.4,145.0 416.1,145.0 416.8,145.0 417.6,145.0 418.4,145.0 419.3,145.0 420.1,145.0 421.0,145.0 422.0,145.0 422.9,145.0 424.0,145.0 425.0,145.0 426.1,145.0 427.3,145.0 428.5,145.0 429.8,145.0 431.2,145.0 432.6,145.0 434.2,145.0 435.8,145.0 437.5,145.0 439.4,145.0 441.4,145.0 443.5,145.0 445.8,145.0 448.3,145.0 451.0,145.0 453.9,145.0 457.1,145.0 460.7,145.0 464.6,145.0 469.0,145.0 473.9,145.0 479.4,145.0 485.7,145.0"/>
<polyline class="thin s4" points="396.0,144.4 396.4,144.2 396.7,144.0 397.1,143.8 397.4,143.6 397.8,143.4 398.1,143.2 398.5,143.0 398.8,142.8 399.2,142.6 399.5,142.4 399.9,142.2 400.2,142.0 400.6,141.8 401.0,141.5 401.4,141.3 401.7,141.1 402.1,140.9 402.5,140.7 402.9,140.4 403.3,140.2 403.7,140.0 404.1,139.7 404.6,139.5 405.0,139.2 405.4,139.0 405.9,138.7 406.3,138.5 406.8,138.2 407.2,137.9 407.7,137.7 408.2,137.4 408.7,137.1 409.2,136.8 409.8,136.5 410.3,136.2 410.9,135.8 411.4,135.5 412.0,135.2 412.6,134.8 413.3,134.5 413.9,134.1 414.6,133.7 415.3,133.3 416.0,132.9 416.8,132.4 417.5,132.0 418.3,131.5 419.2,131.0 420.1,130.5 421.0,130.0 422.0,129.4 423.0,128.8 424.0,128.2 425.2,127.6 426.3,126.9 427.6,126.2 428.9,125.4 430.3,124.6 431.8,123.7 433.4,122.8 435.2,121.8 437.0,120.7 439.0,119.6 441.1,118.4 443.5,117.0 446.0,115.5 448.8,113.9 451.9,112.2 455.3,110.2 459.1,108.0 463.3,105.6 468.1,102.8 473.6,99.6 479.8,96.0 487.2,91.8"/>
<polyline class="thin s4" points="395.6,144.0 395.8,143.6 396.0,143.3 396.2,142.9 396.4,142.6 396.6,142.2 396.8,141.9 397.0,141.5 397.2,141.2 397.4,140.8 397.6,140.5 397.8,140.1 398.0,139.8 398.2,139.4 398.5,139.0 398.7,138.6 398.9,138.3 399.1,137.9 399.3,137.5 399.6,137.1 399.8,136.7 400.0,136.3 400.3,135.9 400.5,135.4 400.8,135.0 401.0,134.6 401.3,134.1 401.5,133.7 401.8,133.2 402.1,132.8 402.3,132.3 402.6,131.8 402.9,131.3 403.2,130.8 403.5,130.2 403.8,129.7 404.2,129.1 404.5,128.6 404.8,128.0 405.2,127.4 405.5,126.7 405.9,126.1 406.3,125.4 406.7,124.7 407.1,124.0 407.6,123.2 408.0,122.5 408.5,121.7 409.0,120.8 409.5,119.9 410.0,119.0 410.6,118.0 411.2,117.0 411.8,116.0 412.4,114.8 413.1,113.7 413.8,112.4 414.6,111.1 415.4,109.7 416.3,108.2 417.2,106.6 418.2,104.8 419.3,103.0 420.4,101.0 421.6,98.9 423.0,96.5 424.5,94.0 426.1,91.2 427.8,88.1 429.8,84.7 432.0,80.9 434.4,76.7 437.2,71.9 440.4,66.4 444.0,60.2 448.2,52.8"/>
<polyline class="thin s4" points="395.0,143.8 395.0,143.4 395.0,143.0 395.0,142.6 395.0,142.2 395.0,141.8 395.0,141.4 395.0,141.0 395.0,140.6 395.0,140.2 395.0,139.8 395.0,139.4 395.0,138.9 395.0,138.5 395.0,138.1 395.0,137.7 395.0,137.2 395.0,136.8 395.0,136.3 395.0,135.9 395.0,135.4 395.0,134.9 395.0,134.5 395.0,134.0 395.0,133.5 395.0,133.0 395.0,132.5 395.0,131.9 395.0,131.4 395.0,130.9 395.0,130.3 395.0,129.7 395.0,129.2 395.0,128.6 395.0,128.0 395.0,127.3 395.0,126.7 395.0,126.0 395.0,125.3 395.0,124.6 395.0,123.9 395.0,123.2 395.0,122.4 395.0,121.6 395.0,120.7 395.0,119.9 395.0,119.0 395.0,118.0 395.0,117.1 395.0,116.0 395.0,115.0 395.0,113.9 395.0,112.7 395.0,111.5 395.0,110.2 395.0,108.8 395.0,107.4 395.0,105.8 395.0,104.2 395.0,102.5 395.0,100.6 395.0,98.6 395.0,96.5 395.0,94.2 395.0,91.7 395.0,89.0 395.0,86.1 395.0,82.9 395.0,79.3 395.0,75.4 395.0,71.0 395.0,66.1 395.0,60.6 395.0,54.3"/>
<polyline class="thin s4" points="394.4,144.0 394.2,143.6 394.0,143.3 393.8,142.9 393.6,142.6 393.4,142.2 393.2,141.9 393.0,141.5 392.8,141.2 392.6,140.8 392.4,140.5 392.2,140.1 392.0,139.8 391.8,139.4 391.5,139.0 391.3,138.6 391.1,138.3 390.9,137.9 390.7,137.5 390.4,137.1 390.2,136.7 390.0,136.3 389.7,135.9 389.5,135.4 389.2,135.0 389.0,134.6 388.7,134.1 388.5,133.7 388.2,133.2 387.9,132.8 387.7,132.3 387.4,131.8 387.1,131.3 386.8,130.8 386.5,130.2 386.2,129.7 385.8,129.1 385.5,128.6 385.2,128.0 384.8,127.4 384.5,126.7 384.1,126.1 383.7,125.4 383.3,124.7 382.9,124.0 382.4,123.2 382.0,122.5 381.5,121.7 381.0,120.8 380.5,119.9 380.0,119.0 379.4,118.0 378.8,117.0 378.2,116.0 377.6,114.8 376.9,113.7 376.2,112.4 375.4,111.1 374.6,109.7 373.7,108.2 372.8,106.6 371.8,104.8 370.7,103.0 369.6,101.0 368.4,98.9 367.0,96.5 365.5,94.0 363.9,91.2 362.2,88.1 360.2,84.7 358.0,80.9 355.6,76.7 352.8,71.9 349.6,66.4 346.0,60.2 341.8,52.8"/>
<polyline class="thin s4" points="394.0,144.4 393.6,144.2 393.3,144.0 392.9,143.8 392.6,143.6 392.2,143.4 391.9,143.2 391.5,143.0 391.2,142.8 390.8,142.6 390.5,142.4 390.1,142.2 389.8,142.0 389.4,141.8 389.0,141.5 388.6,141.3 388.3,141.1 387.9,140.9 387.5,140.7 387.1,140.4 386.7,140.2 386.3,140.0 385.9,139.7 385.4,139.5 385.0,139.2 384.6,139.0 384.1,138.7 383.7,138.5 383.2,138.2 382.8,137.9 382.3,137.7 381.8,137.4 381.3,137.1 380.8,136.8 380.2,136.5 379.7,136.2 379.1,135.8 378.6,135.5 378.0,135.2 377.4,134.8 376.7,134.5 376.1,134.1 375.4,133.7 374.7,133.3 374.0,132.9 373.2,132.4 372.5,132.0 371.7,131.5 370.8,131.0 369.9,130.5 369.0,130.0 368.0,129.4 367.0,128.8 366.0,128.2 364.8,127.6 363.7,126.9 362.4,126.2 361.1,125.4 359.7,124.6 358.2,123.7 356.6,122.8 354.8,121.8 353.0,120.7 351.0,119.6 348.9,118.4 346.5,117.0 344.0,115.5 341.2,113.9 338.1,112.2 334.7,110.2 330.9,108.0 326.7,105.6 321.9,102.8 316.4,99.6 310.2,96.0 302.8,91.8"/>
<polyline class="dash s2" points="393.8,145.0 393.4,145.0 393.0,145.0 392.6,145.0 392.2,145.0 391.8,145.0 391.4,145.0 391.0,145.0 390.6,145.0 390.2,145.0 389.8,145.0 389.4,145.0 388.9,145.0 388.5,145.0 388.1,145.0 387.7,145.0 387.2,145.0 386.8,145.0 386.3,145.0 385.9,145.0 385.4,145.0 384.9,145.0 384.5,145.0 384.0,145.0 383.5,145.0 383.0,145.0 382.5,145.0 381.9,145.0 381.4,145.0 380.9,145.0 380.3,145.0 379.7,145.0 379.2,145.0 378.6,145.0 378.0,145.0 377.3,145.0 376.7,145.0 376.0,145.0 375.3,145.0 374.6,145.0 373.9,145.0 373.2,145.0 372.4,145.0 371.6,145.0 370.7,145.0 369.9,145.0 369.0,145.0 368.0,145.0 367.1,145.0 366.0,145.0 365.0,145.0 363.9,145.0 362.7,145.0 361.5,145.0 360.2,145.0 358.8,145.0 357.4,145.0 355.8,145.0 354.2,145.0 352.5,145.0 350.6,145.0 348.6,145.0 346.5,145.0 344.2,145.0 341.7,145.0 339.0,145.0 336.1,145.0 332.9,145.0 329.3,145.0 325.4,145.0 321.0,145.0 316.1,145.0 310.6,145.0 304.3,145.0"/>
<circle class="f2 ring" cx="395.0" cy="145.0" r="4"/>
<text class="sm" x="411.0" y="175.0" text-anchor="start">south pole</text>
<circle class="f2 ring" cx="361.1" cy="164.6" r="4.5"/>
<text class="v" x="368.1" y="158.6" text-anchor="start">P</text>
<text class="sm" x="395.0" y="256" text-anchor="middle">north pole → ∞ (not in this chart)</text>
<text class="hd" x="550" y="36">chart S: project from the south pole</text>
<path class="fillS" fill-rule="evenodd" d="M 729.4,145.0 L 729.3,140.5 L 728.9,136.1 L 728.4,131.7 L 727.5,127.3 L 726.5,123.0 L 725.2,118.7 L 723.7,114.5 L 722.0,110.4 L 720.1,106.4 L 717.9,102.5 L 715.6,98.7 L 713.0,95.0 L 710.3,91.5 L 707.4,88.1 L 704.3,84.9 L 701.0,81.9 L 697.6,79.0 L 694.1,76.3 L 690.4,73.8 L 686.6,71.5 L 682.6,69.4 L 678.6,67.6 L 674.5,65.9 L 670.2,64.4 L 666.0,63.2 L 661.6,62.2 L 657.2,61.5 L 652.8,60.9 L 648.3,60.7 L 643.9,60.6 L 639.4,60.8 L 635.0,61.2 L 630.6,61.8 L 626.2,62.7 L 621.9,63.8 L 617.6,65.1 L 613.5,66.7 L 609.4,68.5 L 605.4,70.5 L 601.5,72.6 L 597.8,75.0 L 594.1,77.6 L 590.6,80.4 L 587.3,83.4 L 584.1,86.5 L 581.1,89.8 L 578.3,93.2 L 575.7,96.8 L 573.2,100.6 L 571.0,104.4 L 568.9,108.4 L 567.1,112.4 L 565.5,116.6 L 564.1,120.8 L 563.0,125.1 L 562.0,129.5 L 561.3,133.9 L 560.8,138.3 L 560.6,142.8 L 560.6,147.2 L 560.8,151.7 L 561.3,156.1 L 562.0,160.5 L 563.0,164.9 L 564.1,169.2 L 565.5,173.4 L 567.1,177.6 L 568.9,181.6 L 571.0,185.6 L 573.2,189.4 L 575.7,193.2 L 578.3,196.8 L 581.1,200.2 L 584.1,203.5 L 587.3,206.6 L 590.6,209.6 L 594.1,212.4 L 597.8,215.0 L 601.5,217.4 L 605.4,219.5 L 609.4,221.5 L 613.5,223.3 L 617.6,224.9 L 621.9,226.2 L 626.2,227.3 L 630.6,228.2 L 635.0,228.8 L 639.4,229.2 L 643.9,229.4 L 648.3,229.3 L 652.8,229.1 L 657.2,228.5 L 661.6,227.8 L 666.0,226.8 L 670.2,225.6 L 674.5,224.1 L 678.6,222.4 L 682.6,220.6 L 686.6,218.5 L 690.4,216.2 L 694.1,213.7 L 697.6,211.0 L 701.0,208.1 L 704.3,205.1 L 707.4,201.9 L 710.3,198.5 L 713.0,195.0 L 715.6,191.3 L 717.9,187.5 L 720.1,183.6 L 722.0,179.6 L 723.7,175.5 L 725.2,171.3 L 726.5,167.0 L 727.5,162.7 L 728.4,158.3 L 728.9,153.9 L 729.3,149.5 L 729.4,145.0 Z M 651.1,145.0 L 651.1,144.7 L 651.0,144.4 L 651.0,144.0 L 650.9,143.7 L 650.9,143.4 L 650.8,143.1 L 650.7,142.8 L 650.5,142.5 L 650.4,142.2 L 650.2,141.9 L 650.1,141.7 L 649.9,141.4 L 649.7,141.2 L 649.5,140.9 L 649.3,140.7 L 649.0,140.5 L 648.8,140.3 L 648.5,140.1 L 648.3,139.9 L 648.0,139.7 L 647.7,139.6 L 647.4,139.4 L 647.1,139.3 L 646.8,139.2 L 646.5,139.1 L 646.2,139.1 L 645.9,139.0 L 645.6,139.0 L 645.2,138.9 L 644.9,138.9 L 644.6,139.0 L 644.3,139.0 L 644.0,139.0 L 643.7,139.1 L 643.3,139.2 L 643.0,139.3 L 642.7,139.4 L 642.4,139.5 L 642.2,139.6 L 641.9,139.8 L 641.6,140.0 L 641.3,140.2 L 641.1,140.4 L 640.9,140.6 L 640.6,140.8 L 640.4,141.0 L 640.2,141.3 L 640.0,141.5 L 639.8,141.8 L 639.7,142.1 L 639.5,142.4 L 639.4,142.7 L 639.3,143.0 L 639.2,143.3 L 639.1,143.6 L 639.0,143.9 L 639.0,144.2 L 639.0,144.5 L 638.9,144.8 L 638.9,145.2 L 639.0,145.5 L 639.0,145.8 L 639.0,146.1 L 639.1,146.4 L 639.2,146.7 L 639.3,147.0 L 639.4,147.3 L 639.5,147.6 L 639.7,147.9 L 639.8,148.2 L 640.0,148.5 L 640.2,148.7 L 640.4,149.0 L 640.6,149.2 L 640.9,149.4 L 641.1,149.6 L 641.3,149.8 L 641.6,150.0 L 641.9,150.2 L 642.2,150.4 L 642.4,150.5 L 642.7,150.6 L 643.0,150.7 L 643.3,150.8 L 643.7,150.9 L 644.0,151.0 L 644.3,151.0 L 644.6,151.0 L 644.9,151.1 L 645.2,151.1 L 645.6,151.0 L 645.9,151.0 L 646.2,150.9 L 646.5,150.9 L 646.8,150.8 L 647.1,150.7 L 647.4,150.6 L 647.7,150.4 L 648.0,150.3 L 648.3,150.1 L 648.5,149.9 L 648.8,149.7 L 649.0,149.5 L 649.3,149.3 L 649.5,149.1 L 649.7,148.8 L 649.9,148.6 L 650.1,148.3 L 650.2,148.1 L 650.4,147.8 L 650.5,147.5 L 650.7,147.2 L 650.8,146.9 L 650.9,146.6 L 650.9,146.3 L 651.0,146.0 L 651.0,145.6 L 651.1,145.3 L 651.1,145.0 Z"/>
<polyline class="ln s1" points="560.6,145.0 560.6,147.9 560.8,150.9 561.0,153.8 561.4,156.7 561.9,159.7 562.4,162.6 563.1,165.4 563.9,168.3 564.7,171.1 565.7,173.9 566.7,176.6 567.9,179.3 569.1,182.0 570.5,184.6 571.9,187.2 573.4,189.7 575.0,192.2 576.7,194.6 578.5,197.0 580.3,199.3 582.3,201.5 584.3,203.6 586.4,205.7 588.5,207.7 590.7,209.7 593.0,211.5 595.4,213.3 597.8,215.0 600.3,216.6 602.8,218.1 605.4,219.5 608.0,220.9 610.7,222.1 613.4,223.3 616.1,224.3 618.9,225.3 621.7,226.1 624.6,226.9 627.4,227.6 630.3,228.1 633.3,228.6 636.2,229.0 639.1,229.2 642.1,229.4 645.0,229.4 647.9,229.4 650.9,229.2 653.8,229.0 656.7,228.6 659.7,228.1 662.6,227.6 665.4,226.9 668.3,226.1 671.1,225.3 673.9,224.3 676.6,223.3 679.3,222.1 682.0,220.9 684.6,219.5 687.2,218.1 689.7,216.6 692.2,215.0 694.6,213.3 697.0,211.5 699.3,209.7 701.5,207.7 703.6,205.7 705.7,203.6 707.7,201.5 709.7,199.3 711.5,197.0 713.3,194.6 715.0,192.2 716.6,189.7 718.1,187.2 719.5,184.6 720.9,182.0 722.1,179.3 723.3,176.6 724.3,173.9 725.3,171.1 726.1,168.3 726.9,165.4 727.6,162.6 728.1,159.7 728.6,156.7 729.0,153.8 729.2,150.9 729.4,147.9 729.4,145.0 729.4,142.1 729.2,139.1 729.0,136.2 728.6,133.3 728.1,130.3 727.6,127.4 726.9,124.6 726.1,121.7 725.3,118.9 724.3,116.1 723.3,113.4 722.1,110.7 720.9,108.0 719.5,105.4 718.1,102.8 716.6,100.3 715.0,97.8 713.3,95.4 711.5,93.0 709.7,90.7 707.7,88.5 705.7,86.4 703.6,84.3 701.5,82.3 699.3,80.3 697.0,78.5 694.6,76.7 692.2,75.0 689.7,73.4 687.2,71.9 684.6,70.5 682.0,69.1 679.3,67.9 676.6,66.7 673.9,65.7 671.1,64.7 668.3,63.9 665.4,63.1 662.6,62.4 659.7,61.9 656.7,61.4 653.8,61.0 650.9,60.8 647.9,60.6 645.0,60.6 642.1,60.6 639.1,60.8 636.2,61.0 633.3,61.4 630.3,61.9 627.4,62.4 624.6,63.1 621.7,63.9 618.9,64.7 616.1,65.7 613.4,66.7 610.7,67.9 608.0,69.1 605.4,70.5 602.8,71.9 600.3,73.4 597.8,75.0 595.4,76.7 593.0,78.5 590.7,80.3 588.5,82.3 586.4,84.3 584.3,86.4 582.3,88.5 580.3,90.7 578.5,93.0 576.7,95.4 575.0,97.8 573.4,100.3 571.9,102.8 570.5,105.4 569.1,108.0 567.9,110.7 566.7,113.4 565.7,116.1 564.7,118.9 563.9,121.7 563.1,124.6 562.4,127.4 561.9,130.3 561.4,133.3 561.0,136.2 560.8,139.1 560.6,142.1 560.6,145.0"/>
<polyline class="thin s1" points="605.8,145.0 605.8,146.4 605.9,147.7 606.0,149.1 606.2,150.5 606.4,151.8 606.7,153.1 607.0,154.5 607.3,155.8 607.7,157.1 608.2,158.4 608.7,159.7 609.2,160.9 609.8,162.2 610.4,163.4 611.1,164.6 611.8,165.8 612.5,166.9 613.3,168.0 614.1,169.1 615.0,170.2 615.9,171.2 616.8,172.2 617.8,173.2 618.8,174.1 619.8,175.0 620.9,175.9 622.0,176.7 623.1,177.5 624.2,178.2 625.4,178.9 626.6,179.6 627.8,180.2 629.1,180.8 630.3,181.3 631.6,181.8 632.9,182.3 634.2,182.7 635.5,183.0 636.9,183.3 638.2,183.6 639.5,183.8 640.9,184.0 642.3,184.1 643.6,184.2 645.0,184.2 646.4,184.2 647.7,184.1 649.1,184.0 650.5,183.8 651.8,183.6 653.1,183.3 654.5,183.0 655.8,182.7 657.1,182.3 658.4,181.8 659.7,181.3 660.9,180.8 662.2,180.2 663.4,179.6 664.6,178.9 665.8,178.2 666.9,177.5 668.0,176.7 669.1,175.9 670.2,175.0 671.2,174.1 672.2,173.2 673.2,172.2 674.1,171.2 675.0,170.2 675.9,169.1 676.7,168.0 677.5,166.9 678.2,165.8 678.9,164.6 679.6,163.4 680.2,162.2 680.8,160.9 681.3,159.7 681.8,158.4 682.3,157.1 682.7,155.8 683.0,154.5 683.3,153.1 683.6,151.8 683.8,150.5 684.0,149.1 684.1,147.7 684.2,146.4 684.2,145.0 684.2,143.6 684.1,142.3 684.0,140.9 683.8,139.5 683.6,138.2 683.3,136.9 683.0,135.5 682.7,134.2 682.3,132.9 681.8,131.6 681.3,130.3 680.8,129.1 680.2,127.8 679.6,126.6 678.9,125.4 678.2,124.2 677.5,123.1 676.7,122.0 675.9,120.9 675.0,119.8 674.1,118.8 673.2,117.8 672.2,116.8 671.2,115.9 670.2,115.0 669.1,114.1 668.0,113.3 666.9,112.5 665.8,111.8 664.6,111.1 663.4,110.4 662.2,109.8 660.9,109.2 659.7,108.7 658.4,108.2 657.1,107.7 655.8,107.3 654.5,107.0 653.1,106.7 651.8,106.4 650.5,106.2 649.1,106.0 647.7,105.9 646.4,105.8 645.0,105.8 643.6,105.8 642.3,105.9 640.9,106.0 639.5,106.2 638.2,106.4 636.9,106.7 635.5,107.0 634.2,107.3 632.9,107.7 631.6,108.2 630.3,108.7 629.1,109.2 627.8,109.8 626.6,110.4 625.4,111.1 624.2,111.8 623.1,112.5 622.0,113.3 620.9,114.1 619.8,115.0 618.8,115.9 617.8,116.8 616.8,117.8 615.9,118.8 615.0,119.8 614.1,120.9 613.3,122.0 612.5,123.1 611.8,124.2 611.1,125.4 610.4,126.6 609.8,127.8 609.2,129.1 608.7,130.3 608.2,131.6 607.7,132.9 607.3,134.2 607.0,135.5 606.7,136.9 606.4,138.2 606.2,139.5 606.0,140.9 605.9,142.3 605.8,143.6 605.8,145.0"/>
<polyline class="thin s1" points="622.4,145.0 622.4,145.8 622.4,146.6 622.5,147.4 622.6,148.1 622.7,148.9 622.9,149.7 623.1,150.5 623.3,151.2 623.5,152.0 623.7,152.7 624.0,153.5 624.3,154.2 624.7,154.9 625.0,155.6 625.4,156.3 625.8,157.0 626.2,157.6 626.7,158.3 627.2,158.9 627.7,159.5 628.2,160.1 628.7,160.7 629.3,161.3 629.9,161.8 630.5,162.3 631.1,162.8 631.7,163.3 632.4,163.8 633.0,164.2 633.7,164.6 634.4,165.0 635.1,165.3 635.8,165.7 636.5,166.0 637.3,166.3 638.0,166.5 638.8,166.7 639.5,166.9 640.3,167.1 641.1,167.3 641.9,167.4 642.6,167.5 643.4,167.6 644.2,167.6 645.0,167.6 645.8,167.6 646.6,167.6 647.4,167.5 648.1,167.4 648.9,167.3 649.7,167.1 650.5,166.9 651.2,166.7 652.0,166.5 652.7,166.3 653.5,166.0 654.2,165.7 654.9,165.3 655.6,165.0 656.3,164.6 657.0,164.2 657.6,163.8 658.3,163.3 658.9,162.8 659.5,162.3 660.1,161.8 660.7,161.3 661.3,160.7 661.8,160.1 662.3,159.5 662.8,158.9 663.3,158.3 663.8,157.6 664.2,157.0 664.6,156.3 665.0,155.6 665.3,154.9 665.7,154.2 666.0,153.5 666.3,152.7 666.5,152.0 666.7,151.2 666.9,150.5 667.1,149.7 667.3,148.9 667.4,148.1 667.5,147.4 667.6,146.6 667.6,145.8 667.6,145.0 667.6,144.2 667.6,143.4 667.5,142.6 667.4,141.9 667.3,141.1 667.1,140.3 666.9,139.5 666.7,138.8 666.5,138.0 666.3,137.3 666.0,136.5 665.7,135.8 665.3,135.1 665.0,134.4 664.6,133.7 664.2,133.0 663.8,132.4 663.3,131.7 662.8,131.1 662.3,130.5 661.8,129.9 661.3,129.3 660.7,128.7 660.1,128.2 659.5,127.7 658.9,127.2 658.3,126.7 657.6,126.2 657.0,125.8 656.3,125.4 655.6,125.0 654.9,124.7 654.2,124.3 653.5,124.0 652.7,123.7 652.0,123.5 651.2,123.3 650.5,123.1 649.7,122.9 648.9,122.7 648.1,122.6 647.4,122.5 646.6,122.4 645.8,122.4 645.0,122.4 644.2,122.4 643.4,122.4 642.6,122.5 641.9,122.6 641.1,122.7 640.3,122.9 639.5,123.1 638.8,123.3 638.0,123.5 637.3,123.7 636.5,124.0 635.8,124.3 635.1,124.7 634.4,125.0 633.7,125.4 633.0,125.8 632.4,126.2 631.7,126.7 631.1,127.2 630.5,127.7 629.9,128.2 629.3,128.7 628.7,129.3 628.2,129.9 627.7,130.5 627.2,131.1 626.7,131.7 626.2,132.4 625.8,133.0 625.4,133.7 625.0,134.4 624.7,135.1 624.3,135.8 624.0,136.5 623.7,137.3 623.5,138.0 623.3,138.8 623.1,139.5 622.9,140.3 622.7,141.1 622.6,141.9 622.5,142.6 622.4,143.4 622.4,144.2 622.4,145.0"/>
<polyline class="thin s1" points="631.9,145.0 631.9,145.5 632.0,145.9 632.0,146.4 632.1,146.8 632.1,147.3 632.2,147.7 632.3,148.2 632.4,148.6 632.6,149.0 632.7,149.5 632.9,149.9 633.1,150.3 633.3,150.7 633.5,151.1 633.7,151.5 633.9,151.9 634.2,152.3 634.4,152.7 634.7,153.0 635.0,153.4 635.3,153.7 635.6,154.1 635.9,154.4 636.3,154.7 636.6,155.0 637.0,155.3 637.3,155.6 637.7,155.8 638.1,156.1 638.5,156.3 638.9,156.5 639.3,156.7 639.7,156.9 640.1,157.1 640.5,157.3 641.0,157.4 641.4,157.6 641.8,157.7 642.3,157.8 642.7,157.9 643.2,157.9 643.6,158.0 644.1,158.0 644.5,158.1 645.0,158.1 645.5,158.1 645.9,158.0 646.4,158.0 646.8,157.9 647.3,157.9 647.7,157.8 648.2,157.7 648.6,157.6 649.0,157.4 649.5,157.3 649.9,157.1 650.3,156.9 650.7,156.7 651.1,156.5 651.5,156.3 651.9,156.1 652.3,155.8 652.7,155.6 653.0,155.3 653.4,155.0 653.7,154.7 654.1,154.4 654.4,154.1 654.7,153.7 655.0,153.4 655.3,153.0 655.6,152.7 655.8,152.3 656.1,151.9 656.3,151.5 656.5,151.1 656.7,150.7 656.9,150.3 657.1,149.9 657.3,149.5 657.4,149.0 657.6,148.6 657.7,148.2 657.8,147.7 657.9,147.3 657.9,146.8 658.0,146.4 658.0,145.9 658.1,145.5 658.1,145.0 658.1,144.5 658.0,144.1 658.0,143.6 657.9,143.2 657.9,142.7 657.8,142.3 657.7,141.8 657.6,141.4 657.4,141.0 657.3,140.5 657.1,140.1 656.9,139.7 656.7,139.3 656.5,138.9 656.3,138.5 656.1,138.1 655.8,137.7 655.6,137.3 655.3,137.0 655.0,136.6 654.7,136.3 654.4,135.9 654.1,135.6 653.7,135.3 653.4,135.0 653.0,134.7 652.7,134.4 652.3,134.2 651.9,133.9 651.5,133.7 651.1,133.5 650.7,133.3 650.3,133.1 649.9,132.9 649.5,132.7 649.0,132.6 648.6,132.4 648.2,132.3 647.7,132.2 647.3,132.1 646.8,132.1 646.4,132.0 645.9,132.0 645.5,131.9 645.0,131.9 644.5,131.9 644.1,132.0 643.6,132.0 643.2,132.1 642.7,132.1 642.3,132.2 641.8,132.3 641.4,132.4 641.0,132.6 640.5,132.7 640.1,132.9 639.7,133.1 639.3,133.3 638.9,133.5 638.5,133.7 638.1,133.9 637.7,134.2 637.3,134.4 637.0,134.7 636.6,135.0 636.3,135.3 635.9,135.6 635.6,135.9 635.3,136.3 635.0,136.6 634.7,137.0 634.4,137.3 634.2,137.7 633.9,138.1 633.7,138.5 633.5,138.9 633.3,139.3 633.1,139.7 632.9,140.1 632.7,140.5 632.6,141.0 632.4,141.4 632.3,141.8 632.2,142.3 632.1,142.7 632.1,143.2 632.0,143.6 632.0,144.1 631.9,144.5 631.9,145.0"/>
<polyline class="ln s1" points="638.9,145.0 638.9,145.2 639.0,145.4 639.0,145.6 639.0,145.8 639.0,146.1 639.1,146.3 639.1,146.5 639.2,146.7 639.2,146.9 639.3,147.1 639.4,147.3 639.5,147.5 639.6,147.7 639.6,147.8 639.8,148.0 639.9,148.2 640.0,148.4 640.1,148.6 640.2,148.7 640.4,148.9 640.5,149.1 640.6,149.2 640.8,149.4 640.9,149.5 641.1,149.6 641.3,149.8 641.4,149.9 641.6,150.0 641.8,150.1 642.0,150.2 642.2,150.4 642.3,150.4 642.5,150.5 642.7,150.6 642.9,150.7 643.1,150.8 643.3,150.8 643.5,150.9 643.7,150.9 643.9,151.0 644.2,151.0 644.4,151.0 644.6,151.0 644.8,151.1 645.0,151.1 645.2,151.1 645.4,151.0 645.6,151.0 645.8,151.0 646.1,151.0 646.3,150.9 646.5,150.9 646.7,150.8 646.9,150.8 647.1,150.7 647.3,150.6 647.5,150.5 647.7,150.4 647.8,150.4 648.0,150.2 648.2,150.1 648.4,150.0 648.6,149.9 648.7,149.8 648.9,149.6 649.1,149.5 649.2,149.4 649.4,149.2 649.5,149.1 649.6,148.9 649.8,148.7 649.9,148.6 650.0,148.4 650.1,148.2 650.2,148.0 650.4,147.8 650.4,147.7 650.5,147.5 650.6,147.3 650.7,147.1 650.8,146.9 650.8,146.7 650.9,146.5 650.9,146.3 651.0,146.1 651.0,145.8 651.0,145.6 651.0,145.4 651.1,145.2 651.1,145.0 651.1,144.8 651.0,144.6 651.0,144.4 651.0,144.2 651.0,143.9 650.9,143.7 650.9,143.5 650.8,143.3 650.8,143.1 650.7,142.9 650.6,142.7 650.5,142.5 650.4,142.3 650.4,142.2 650.2,142.0 650.1,141.8 650.0,141.6 649.9,141.4 649.8,141.3 649.6,141.1 649.5,140.9 649.4,140.8 649.2,140.6 649.1,140.5 648.9,140.4 648.7,140.2 648.6,140.1 648.4,140.0 648.2,139.9 648.0,139.8 647.8,139.6 647.7,139.6 647.5,139.5 647.3,139.4 647.1,139.3 646.9,139.2 646.7,139.2 646.5,139.1 646.3,139.1 646.1,139.0 645.8,139.0 645.6,139.0 645.4,139.0 645.2,138.9 645.0,138.9 644.8,138.9 644.6,139.0 644.4,139.0 644.2,139.0 643.9,139.0 643.7,139.1 643.5,139.1 643.3,139.2 643.1,139.2 642.9,139.3 642.7,139.4 642.5,139.5 642.3,139.6 642.2,139.6 642.0,139.8 641.8,139.9 641.6,140.0 641.4,140.1 641.3,140.2 641.1,140.4 640.9,140.5 640.8,140.6 640.6,140.8 640.5,140.9 640.4,141.1 640.2,141.3 640.1,141.4 640.0,141.6 639.9,141.8 639.8,142.0 639.6,142.2 639.6,142.3 639.5,142.5 639.4,142.7 639.3,142.9 639.2,143.1 639.2,143.3 639.1,143.5 639.1,143.7 639.0,143.9 639.0,144.2 639.0,144.4 639.0,144.6 638.9,144.8 638.9,145.0"/>
<polyline class="thin s4" points="552.8,198.2 560.2,194.0 566.4,190.4 571.9,187.2 576.7,184.4 580.9,182.0 584.7,179.8 588.1,177.8 591.2,176.1 594.0,174.5 596.5,173.0 598.9,171.6 601.0,170.4 603.0,169.3 604.8,168.2 606.6,167.2 608.2,166.3 609.7,165.4 611.1,164.6 612.4,163.8 613.7,163.1 614.8,162.4 616.0,161.8 617.0,161.2 618.0,160.6 619.0,160.0 619.9,159.5 620.8,159.0 621.7,158.5 622.5,158.0 623.2,157.6 624.0,157.1 624.7,156.7 625.4,156.3 626.1,155.9 626.7,155.5 627.4,155.2 628.0,154.8 628.6,154.5 629.1,154.2 629.7,153.8 630.2,153.5 630.8,153.2 631.3,152.9 631.8,152.6 632.3,152.3 632.8,152.1 633.2,151.8 633.7,151.5 634.1,151.3 634.6,151.0 635.0,150.8 635.4,150.5 635.9,150.3 636.3,150.0 636.7,149.8 637.1,149.6 637.5,149.3 637.9,149.1 638.3,148.9 638.6,148.7 639.0,148.5 639.4,148.2 639.8,148.0 640.1,147.8 640.5,147.6 640.8,147.4 641.2,147.2 641.5,147.0 641.9,146.8 642.2,146.6 642.6,146.4 642.9,146.2 643.3,146.0 643.6,145.8 644.0,145.6"/>
<polyline class="thin s4" points="591.8,237.2 596.0,229.8 599.6,223.6 602.8,218.1 605.6,213.3 608.0,209.1 610.2,205.3 612.2,201.9 613.9,198.8 615.5,196.0 617.0,193.5 618.4,191.1 619.6,189.0 620.7,187.0 621.8,185.2 622.8,183.4 623.7,181.8 624.6,180.3 625.4,178.9 626.2,177.6 626.9,176.3 627.6,175.2 628.2,174.0 628.8,173.0 629.4,172.0 630.0,171.0 630.5,170.1 631.0,169.2 631.5,168.3 632.0,167.5 632.4,166.8 632.9,166.0 633.3,165.3 633.7,164.6 634.1,163.9 634.5,163.3 634.8,162.6 635.2,162.0 635.5,161.4 635.8,160.9 636.2,160.3 636.5,159.8 636.8,159.2 637.1,158.7 637.4,158.2 637.7,157.7 637.9,157.2 638.2,156.8 638.5,156.3 638.7,155.9 639.0,155.4 639.2,155.0 639.5,154.6 639.7,154.1 640.0,153.7 640.2,153.3 640.4,152.9 640.7,152.5 640.9,152.1 641.1,151.7 641.3,151.4 641.5,151.0 641.8,150.6 642.0,150.2 642.2,149.9 642.4,149.5 642.6,149.2 642.8,148.8 643.0,148.5 643.2,148.1 643.4,147.8 643.6,147.4 643.8,147.1 644.0,146.7 644.2,146.4 644.4,146.0"/>
<polyline class="thin s4" points="645.0,235.7 645.0,229.4 645.0,223.9 645.0,219.0 645.0,214.6 645.0,210.7 645.0,207.1 645.0,203.9 645.0,201.0 645.0,198.3 645.0,195.8 645.0,193.5 645.0,191.4 645.0,189.4 645.0,187.5 645.0,185.8 645.0,184.2 645.0,182.6 645.0,181.2 645.0,179.8 645.0,178.5 645.0,177.3 645.0,176.1 645.0,175.0 645.0,174.0 645.0,172.9 645.0,172.0 645.0,171.0 645.0,170.1 645.0,169.3 645.0,168.4 645.0,167.6 645.0,166.8 645.0,166.1 645.0,165.4 645.0,164.7 645.0,164.0 645.0,163.3 645.0,162.7 645.0,162.0 645.0,161.4 645.0,160.8 645.0,160.3 645.0,159.7 645.0,159.1 645.0,158.6 645.0,158.1 645.0,157.5 645.0,157.0 645.0,156.5 645.0,156.0 645.0,155.5 645.0,155.1 645.0,154.6 645.0,154.1 645.0,153.7 645.0,153.2 645.0,152.8 645.0,152.3 645.0,151.9 645.0,151.5 645.0,151.1 645.0,150.6 645.0,150.2 645.0,149.8 645.0,149.4 645.0,149.0 645.0,148.6 645.0,148.2 645.0,147.8 645.0,147.4 645.0,147.0 645.0,146.6 645.0,146.2"/>
<polyline class="thin s4" points="698.2,237.2 694.0,229.8 690.4,223.6 687.2,218.1 684.4,213.3 682.0,209.1 679.8,205.3 677.8,201.9 676.1,198.8 674.5,196.0 673.0,193.5 671.6,191.1 670.4,189.0 669.3,187.0 668.2,185.2 667.2,183.4 666.3,181.8 665.4,180.3 664.6,178.9 663.8,177.6 663.1,176.3 662.4,175.2 661.8,174.0 661.2,173.0 660.6,172.0 660.0,171.0 659.5,170.1 659.0,169.2 658.5,168.3 658.0,167.5 657.6,166.8 657.1,166.0 656.7,165.3 656.3,164.6 655.9,163.9 655.5,163.3 655.2,162.6 654.8,162.0 654.5,161.4 654.2,160.9 653.8,160.3 653.5,159.8 653.2,159.2 652.9,158.7 652.6,158.2 652.3,157.7 652.1,157.2 651.8,156.8 651.5,156.3 651.3,155.9 651.0,155.4 650.8,155.0 650.5,154.6 650.3,154.1 650.0,153.7 649.8,153.3 649.6,152.9 649.3,152.5 649.1,152.1 648.9,151.7 648.7,151.4 648.5,151.0 648.2,150.6 648.0,150.2 647.8,149.9 647.6,149.5 647.4,149.2 647.2,148.8 647.0,148.5 646.8,148.1 646.6,147.8 646.4,147.4 646.2,147.1 646.0,146.7 645.8,146.4 645.6,146.0"/>
<polyline class="thin s4" points="737.2,198.2 729.8,194.0 723.6,190.4 718.1,187.2 713.3,184.4 709.1,182.0 705.3,179.8 701.9,177.8 698.8,176.1 696.0,174.5 693.5,173.0 691.1,171.6 689.0,170.4 687.0,169.3 685.2,168.2 683.4,167.2 681.8,166.3 680.3,165.4 678.9,164.6 677.6,163.8 676.3,163.1 675.2,162.4 674.0,161.8 673.0,161.2 672.0,160.6 671.0,160.0 670.1,159.5 669.2,159.0 668.3,158.5 667.5,158.0 666.8,157.6 666.0,157.1 665.3,156.7 664.6,156.3 663.9,155.9 663.3,155.5 662.6,155.2 662.0,154.8 661.4,154.5 660.9,154.2 660.3,153.8 659.8,153.5 659.2,153.2 658.7,152.9 658.2,152.6 657.7,152.3 657.2,152.1 656.8,151.8 656.3,151.5 655.9,151.3 655.4,151.0 655.0,150.8 654.6,150.5 654.1,150.3 653.7,150.0 653.3,149.8 652.9,149.6 652.5,149.3 652.1,149.1 651.7,148.9 651.4,148.7 651.0,148.5 650.6,148.2 650.2,148.0 649.9,147.8 649.5,147.6 649.2,147.4 648.8,147.2 648.5,147.0 648.1,146.8 647.8,146.6 647.4,146.4 647.1,146.2 646.7,146.0 646.4,145.8 646.0,145.6"/>
<polyline class="thin s4" points="735.7,145.0 729.4,145.0 723.9,145.0 719.0,145.0 714.6,145.0 710.7,145.0 707.1,145.0 703.9,145.0 701.0,145.0 698.3,145.0 695.8,145.0 693.5,145.0 691.4,145.0 689.4,145.0 687.5,145.0 685.8,145.0 684.2,145.0 682.6,145.0 681.2,145.0 679.8,145.0 678.5,145.0 677.3,145.0 676.1,145.0 675.0,145.0 674.0,145.0 672.9,145.0 672.0,145.0 671.0,145.0 670.1,145.0 669.3,145.0 668.4,145.0 667.6,145.0 666.8,145.0 666.1,145.0 665.4,145.0 664.7,145.0 664.0,145.0 663.3,145.0 662.7,145.0 662.0,145.0 661.4,145.0 660.8,145.0 660.3,145.0 659.7,145.0 659.1,145.0 658.6,145.0 658.1,145.0 657.5,145.0 657.0,145.0 656.5,145.0 656.0,145.0 655.5,145.0 655.1,145.0 654.6,145.0 654.1,145.0 653.7,145.0 653.2,145.0 652.8,145.0 652.3,145.0 651.9,145.0 651.5,145.0 651.1,145.0 650.6,145.0 650.2,145.0 649.8,145.0 649.4,145.0 649.0,145.0 648.6,145.0 648.2,145.0 647.8,145.0 647.4,145.0 647.0,145.0 646.6,145.0 646.2,145.0"/>
<polyline class="thin s4" points="737.2,91.8 729.8,96.0 723.6,99.6 718.1,102.8 713.3,105.6 709.1,108.0 705.3,110.2 701.9,112.2 698.8,113.9 696.0,115.5 693.5,117.0 691.1,118.4 689.0,119.6 687.0,120.7 685.2,121.8 683.4,122.8 681.8,123.7 680.3,124.6 678.9,125.4 677.6,126.2 676.3,126.9 675.2,127.6 674.0,128.2 673.0,128.8 672.0,129.4 671.0,130.0 670.1,130.5 669.2,131.0 668.3,131.5 667.5,132.0 666.8,132.4 666.0,132.9 665.3,133.3 664.6,133.7 663.9,134.1 663.3,134.5 662.6,134.8 662.0,135.2 661.4,135.5 660.9,135.8 660.3,136.2 659.8,136.5 659.2,136.8 658.7,137.1 658.2,137.4 657.7,137.7 657.2,137.9 656.8,138.2 656.3,138.5 655.9,138.7 655.4,139.0 655.0,139.2 654.6,139.5 654.1,139.7 653.7,140.0 653.3,140.2 652.9,140.4 652.5,140.7 652.1,140.9 651.7,141.1 651.4,141.3 651.0,141.5 650.6,141.8 650.2,142.0 649.9,142.2 649.5,142.4 649.2,142.6 648.8,142.8 648.5,143.0 648.1,143.2 647.8,143.4 647.4,143.6 647.1,143.8 646.7,144.0 646.4,144.2 646.0,144.4"/>
<polyline class="thin s4" points="698.2,52.8 694.0,60.2 690.4,66.4 687.2,71.9 684.4,76.7 682.0,80.9 679.8,84.7 677.8,88.1 676.1,91.2 674.5,94.0 673.0,96.5 671.6,98.9 670.4,101.0 669.3,103.0 668.2,104.8 667.2,106.6 666.3,108.2 665.4,109.7 664.6,111.1 663.8,112.4 663.1,113.7 662.4,114.8 661.8,116.0 661.2,117.0 660.6,118.0 660.0,119.0 659.5,119.9 659.0,120.8 658.5,121.7 658.0,122.5 657.6,123.2 657.1,124.0 656.7,124.7 656.3,125.4 655.9,126.1 655.5,126.7 655.2,127.4 654.8,128.0 654.5,128.6 654.2,129.1 653.8,129.7 653.5,130.2 653.2,130.8 652.9,131.3 652.6,131.8 652.3,132.3 652.1,132.8 651.8,133.2 651.5,133.7 651.3,134.1 651.0,134.6 650.8,135.0 650.5,135.4 650.3,135.9 650.0,136.3 649.8,136.7 649.6,137.1 649.3,137.5 649.1,137.9 648.9,138.3 648.7,138.6 648.5,139.0 648.2,139.4 648.0,139.8 647.8,140.1 647.6,140.5 647.4,140.8 647.2,141.2 647.0,141.5 646.8,141.9 646.6,142.2 646.4,142.6 646.2,142.9 646.0,143.3 645.8,143.6 645.6,144.0"/>
<polyline class="thin s4" points="645.0,54.3 645.0,60.6 645.0,66.1 645.0,71.0 645.0,75.4 645.0,79.3 645.0,82.9 645.0,86.1 645.0,89.0 645.0,91.7 645.0,94.2 645.0,96.5 645.0,98.6 645.0,100.6 645.0,102.5 645.0,104.2 645.0,105.8 645.0,107.4 645.0,108.8 645.0,110.2 645.0,111.5 645.0,112.7 645.0,113.9 645.0,115.0 645.0,116.0 645.0,117.1 645.0,118.0 645.0,119.0 645.0,119.9 645.0,120.7 645.0,121.6 645.0,122.4 645.0,123.2 645.0,123.9 645.0,124.6 645.0,125.3 645.0,126.0 645.0,126.7 645.0,127.3 645.0,128.0 645.0,128.6 645.0,129.2 645.0,129.7 645.0,130.3 645.0,130.9 645.0,131.4 645.0,131.9 645.0,132.5 645.0,133.0 645.0,133.5 645.0,134.0 645.0,134.5 645.0,134.9 645.0,135.4 645.0,135.9 645.0,136.3 645.0,136.8 645.0,137.2 645.0,137.7 645.0,138.1 645.0,138.5 645.0,138.9 645.0,139.4 645.0,139.8 645.0,140.2 645.0,140.6 645.0,141.0 645.0,141.4 645.0,141.8 645.0,142.2 645.0,142.6 645.0,143.0 645.0,143.4 645.0,143.8"/>
<polyline class="thin s4" points="591.8,52.8 596.0,60.2 599.6,66.4 602.8,71.9 605.6,76.7 608.0,80.9 610.2,84.7 612.2,88.1 613.9,91.2 615.5,94.0 617.0,96.5 618.4,98.9 619.6,101.0 620.7,103.0 621.8,104.8 622.8,106.6 623.7,108.2 624.6,109.7 625.4,111.1 626.2,112.4 626.9,113.7 627.6,114.8 628.2,116.0 628.8,117.0 629.4,118.0 630.0,119.0 630.5,119.9 631.0,120.8 631.5,121.7 632.0,122.5 632.4,123.2 632.9,124.0 633.3,124.7 633.7,125.4 634.1,126.1 634.5,126.7 634.8,127.4 635.2,128.0 635.5,128.6 635.8,129.1 636.2,129.7 636.5,130.2 636.8,130.8 637.1,131.3 637.4,131.8 637.7,132.3 637.9,132.8 638.2,133.2 638.5,133.7 638.7,134.1 639.0,134.6 639.2,135.0 639.5,135.4 639.7,135.9 640.0,136.3 640.2,136.7 640.4,137.1 640.7,137.5 640.9,137.9 641.1,138.3 641.3,138.6 641.5,139.0 641.8,139.4 642.0,139.8 642.2,140.1 642.4,140.5 642.6,140.8 642.8,141.2 643.0,141.5 643.2,141.9 643.4,142.2 643.6,142.6 643.8,142.9 644.0,143.3 644.2,143.6 644.4,144.0"/>
<polyline class="thin s4" points="552.8,91.8 560.2,96.0 566.4,99.6 571.9,102.8 576.7,105.6 580.9,108.0 584.7,110.2 588.1,112.2 591.2,113.9 594.0,115.5 596.5,117.0 598.9,118.4 601.0,119.6 603.0,120.7 604.8,121.8 606.6,122.8 608.2,123.7 609.7,124.6 611.1,125.4 612.4,126.2 613.7,126.9 614.8,127.6 616.0,128.2 617.0,128.8 618.0,129.4 619.0,130.0 619.9,130.5 620.8,131.0 621.7,131.5 622.5,132.0 623.2,132.4 624.0,132.9 624.7,133.3 625.4,133.7 626.1,134.1 626.7,134.5 627.4,134.8 628.0,135.2 628.6,135.5 629.1,135.8 629.7,136.2 630.2,136.5 630.8,136.8 631.3,137.1 631.8,137.4 632.3,137.7 632.8,137.9 633.2,138.2 633.7,138.5 634.1,138.7 634.6,139.0 635.0,139.2 635.4,139.5 635.9,139.7 636.3,140.0 636.7,140.2 637.1,140.4 637.5,140.7 637.9,140.9 638.3,141.1 638.6,141.3 639.0,141.5 639.4,141.8 639.8,142.0 640.1,142.2 640.5,142.4 640.8,142.6 641.2,142.8 641.5,143.0 641.9,143.2 642.2,143.4 642.6,143.6 642.9,143.8 643.3,144.0 643.6,144.2 644.0,144.4"/>
<polyline class="dash s2" points="554.3,145.0 560.6,145.0 566.1,145.0 571.0,145.0 575.4,145.0 579.3,145.0 582.9,145.0 586.1,145.0 589.0,145.0 591.7,145.0 594.2,145.0 596.5,145.0 598.6,145.0 600.6,145.0 602.5,145.0 604.2,145.0 605.8,145.0 607.4,145.0 608.8,145.0 610.2,145.0 611.5,145.0 612.7,145.0 613.9,145.0 615.0,145.0 616.0,145.0 617.1,145.0 618.0,145.0 619.0,145.0 619.9,145.0 620.7,145.0 621.6,145.0 622.4,145.0 623.2,145.0 623.9,145.0 624.6,145.0 625.3,145.0 626.0,145.0 626.7,145.0 627.3,145.0 628.0,145.0 628.6,145.0 629.2,145.0 629.7,145.0 630.3,145.0 630.9,145.0 631.4,145.0 631.9,145.0 632.5,145.0 633.0,145.0 633.5,145.0 634.0,145.0 634.5,145.0 634.9,145.0 635.4,145.0 635.9,145.0 636.3,145.0 636.8,145.0 637.2,145.0 637.7,145.0 638.1,145.0 638.5,145.0 638.9,145.0 639.4,145.0 639.8,145.0 640.2,145.0 640.6,145.0 641.0,145.0 641.4,145.0 641.8,145.0 642.2,145.0 642.6,145.0 643.0,145.0 643.4,145.0 643.8,145.0"/>
<circle class="f2 ring" cx="645.0" cy="145.0" r="4"/>
<text class="sm" x="661.0" y="175.0" text-anchor="start">north pole</text>
<circle class="f2 ring" cx="633.7" cy="151.5" r="4.5"/>
<text class="v" x="640.7" y="145.5" text-anchor="start">P</text>
<text class="sm" x="645.0" y="256" text-anchor="middle">south pole → ∞ (not in this chart)</text>
<text class="sm" x="40" y="288">Left: latitude and longitude. At the poles every meridian meets, so longitude has no value there; at the 180° meridian the label jumps from +180 to −180.</text>
<text class="sm" x="40" y="306">Middle and right: stereographic projections from the north and the south pole. Each misses one point (sent to infinity) and is smooth everywhere else.</text>
<text class="sm" x="40" y="324">The shaded ring is the overlap, latitudes between −60° and 60°. There a point has two labels related by r ↦ 1/r (radii multiply to 1),</text>
<text class="sm" x="40" y="342">a smooth invertible map: two overlapping charts cover the whole sphere.</text>
<text class="sm" x="40" y="360">The dot is P at latitude 30°, longitude −150°: radius 1.7321 in chart N and 0.5774 in chart S (1.7321 × 0.5774 = 1).</text>
</svg>
