<svg viewBox="0 0 800 322" xmlns="http://www.w3.org/2000/svg" role="img">
<title>Arithmetic versus geometric mixtures of two Gaussians</title>
<desc>Two panels with p = N(-2, 1) and q = N(2, 1) in grey. Left: the arithmetic mixtures (1-t)p + tq at t = 0.25, 0.5, 0.75 are bimodal, with two humps at -2 and 2 at t = 0.5. Right: the geometric mixtures proportional to p^(1-t) q^t are single Gaussian bumps of unit width sliding from p to q, with N(0, 1) at t = 0.5.</desc>
<style>
  text{font-family:ui-sans-serif,-apple-system,"Segoe UI",sans-serif;font-weight:400}
  .lab{font-size:11px;fill:#57564f} .hd{font-size:13px;font-weight:500;fill:#1a1a19}
  .sm{font-size:10.5px;fill:#57564f} .v{font-size:11px;fill:#1a1a19}
  .ax{stroke:#8a8880;stroke-width:0.9;fill:none} .gd{stroke:#e2e1da;stroke-width:0.6;fill:none}
  .s1{stroke:#2a78d6} .s2{stroke:#eb6834} .s3{stroke:#1baf7a} .s4{stroke:#eda100} .s0{stroke:#8a8880}
  .f1{fill:#2a78d6} .f2{fill:#eb6834} .f3{fill:#1baf7a} .f4{fill:#eda100} .f0{fill:#8a8880}
  .ln{stroke-width:2;fill:none;stroke-linecap:round;stroke-linejoin:round}
  .thin{stroke-width:1;fill:none}
  .dash{stroke-width:1.4;fill:none;stroke-dasharray:5 3}
  .con{stroke-width:0.9;fill:none;opacity:.75}
  .fillS{fill:#2a78d6;opacity:.08}
  .ring{stroke:#fdfdfc;stroke-width:1.5}
  @media (prefers-color-scheme: dark){
    .lab,.sm{fill:#b6b4ab} .hd,.v{fill:#eceae3} .ax{stroke:#85837b} .gd{stroke:#33312e}
    .s1{stroke:#3987e5} .s2{stroke:#d95926} .s3{stroke:#199e70} .s4{stroke:#c98500} .s0{stroke:#85837b}
    .f1{fill:#3987e5} .f2{fill:#d95926} .f3{fill:#199e70} .f4{fill:#c98500} .f0{fill:#85837b}
    .fillS{fill:#3987e5}
    .ring{stroke:#161615}
  }
</style>
<text class="sm" x="50" y="239.5" text-anchor="end">0</text>
<text class="sm" x="50" y="160.3" text-anchor="end">0.2</text>
<text class="sm" x="50" y="81.2" text-anchor="end">0.4</text>
<text class="sm" x="106.0" y="251" text-anchor="middle">−4</text>
<text class="sm" x="156.0" y="251" text-anchor="middle">−2</text>
<text class="sm" x="206.0" y="251" text-anchor="middle">0</text>
<text class="sm" x="256.0" y="251" text-anchor="middle">2</text>
<text class="sm" x="306.0" y="251" text-anchor="middle">4</text>
<line class="ax" x1="56" y1="236" x2="356" y2="236"/>
<line class="ax" x1="56" y1="46" x2="56" y2="236"/>
<text class="lab" x="206.0" y="268" text-anchor="middle">x</text>
<text class="lab" transform="translate(16,141.0) rotate(-90)" text-anchor="middle">density</text>
<text class="hd" x="56" y="34">m-geodesic: arithmetic mixtures (1 − t) p + t q</text>
<polyline class="thin s0" points="56.0,235.9 56.8,235.9 57.5,235.9 58.3,235.9 59.0,235.9 59.8,235.9 60.5,235.9 61.3,235.9 62.0,235.9 62.8,235.8 63.5,235.8 64.3,235.8 65.0,235.8 65.8,235.8 66.5,235.7 67.3,235.7 68.0,235.7 68.8,235.6 69.5,235.6 70.3,235.6 71.0,235.5 71.8,235.5 72.5,235.4 73.3,235.3 74.0,235.3 74.8,235.2 75.5,235.1 76.3,235.0 77.1,234.9 77.8,234.8 78.6,234.7 79.3,234.6 80.1,234.4 80.8,234.3 81.6,234.1 82.3,233.9 83.1,233.8 83.8,233.6 84.6,233.3 85.3,233.1 86.1,232.8 86.8,232.6 87.6,232.3 88.3,231.9 89.1,231.6 89.8,231.2 90.6,230.9 91.3,230.4 92.1,230.0 92.8,229.5 93.6,229.0 94.3,228.5 95.1,227.9 95.8,227.3 96.6,226.6 97.4,225.9 98.1,225.2 98.9,224.4 99.6,223.6 100.4,222.7 101.1,221.8 101.9,220.9 102.6,219.8 103.4,218.8 104.1,217.7 104.9,216.5 105.6,215.3 106.4,214.0 107.1,212.6 107.9,211.2 108.6,209.8 109.4,208.2 110.1,206.7 110.9,205.0 111.6,203.3 112.4,201.5 113.1,199.7 113.9,197.8 114.6,195.8 115.4,193.8 116.2,191.7 116.9,189.5 117.7,187.3 118.4,185.0 119.2,182.7 119.9,180.3 120.7,177.9 121.4,175.4 122.2,172.8 122.9,170.2 123.7,167.6 124.4,164.9 125.2,162.2 125.9,159.4 126.7,156.6 127.4,153.8 128.2,151.0 128.9,148.1 129.7,145.3 130.4,142.4 131.2,139.5 131.9,136.6 132.7,133.7 133.4,130.9 134.2,128.0 134.9,125.2 135.7,122.4 136.5,119.7 137.2,117.0 138.0,114.3 138.7,111.7 139.5,109.1 140.2,106.6 141.0,104.2 141.7,101.9 142.5,99.6 143.2,97.4 144.0,95.3 144.7,93.4 145.5,91.5 146.2,89.7 147.0,88.0 147.7,86.5 148.5,85.1 149.2,83.8 150.0,82.6 150.7,81.5 151.5,80.6 152.2,79.9 153.0,79.2 153.7,78.7 154.5,78.4 155.2,78.2 156.0,78.1 156.8,78.2 157.5,78.4 158.3,78.7 159.0,79.2 159.8,79.9 160.5,80.6 161.3,81.5 162.0,82.6 162.8,83.8 163.5,85.1 164.3,86.5 165.0,88.0 165.8,89.7 166.5,91.5 167.3,93.4 168.0,95.3 168.8,97.4 169.5,99.6 170.3,101.9 171.0,104.2 171.8,106.6 172.5,109.1 173.3,111.7 174.0,114.3 174.8,117.0 175.5,119.7 176.3,122.4 177.1,125.2 177.8,128.0 178.6,130.9 179.3,133.7 180.1,136.6 180.8,139.5 181.6,142.4 182.3,145.3 183.1,148.1 183.8,151.0 184.6,153.8 185.3,156.6 186.1,159.4 186.8,162.2 187.6,164.9 188.3,167.6 189.1,170.2 189.8,172.8 190.6,175.4 191.3,177.9 192.1,180.3 192.8,182.7 193.6,185.0 194.3,187.3 195.1,189.5 195.8,191.7 196.6,193.8 197.4,195.8 198.1,197.8 198.9,199.7 199.6,201.5 200.4,203.3 201.1,205.0 201.9,206.7 202.6,208.2 203.4,209.8 204.1,211.2 204.9,212.6 205.6,214.0 206.4,215.3 207.1,216.5 207.9,217.7 208.6,218.8 209.4,219.8 210.1,220.9 210.9,221.8 211.6,222.7 212.4,223.6 213.1,224.4 213.9,225.2 214.6,225.9 215.4,226.6 216.2,227.3 216.9,227.9 217.7,228.5 218.4,229.0 219.2,229.5 219.9,230.0 220.7,230.4 221.4,230.9 222.2,231.2 222.9,231.6 223.7,231.9 224.4,232.3 225.2,232.6 225.9,232.8 226.7,233.1 227.4,233.3 228.2,233.6 228.9,233.8 229.7,233.9 230.4,234.1 231.2,234.3 231.9,234.4 232.7,234.6 233.4,234.7 234.2,234.8 234.9,234.9 235.7,235.0 236.5,235.1 237.2,235.2 238.0,235.3 238.7,235.3 239.5,235.4 240.2,235.5 241.0,235.5 241.7,235.6 242.5,235.6 243.2,235.6 244.0,235.7 244.7,235.7 245.5,235.7 246.2,235.8 247.0,235.8 247.7,235.8 248.5,235.8 249.2,235.8 250.0,235.9 250.7,235.9 251.5,235.9 252.2,235.9 253.0,235.9 253.7,235.9 254.5,235.9 255.2,235.9 256.0,235.9 256.8,236.0 257.5,236.0 258.3,236.0 259.0,236.0 259.8,236.0 260.5,236.0 261.3,236.0 262.0,236.0 262.8,236.0 263.5,236.0 264.3,236.0 265.0,236.0 265.8,236.0 266.5,236.0 267.3,236.0 268.0,236.0 268.8,236.0 269.5,236.0 270.3,236.0 271.0,236.0 271.8,236.0 272.5,236.0 273.3,236.0 274.0,236.0 274.8,236.0 275.5,236.0 276.3,236.0 277.1,236.0 277.8,236.0 278.6,236.0 279.3,236.0 280.1,236.0 280.8,236.0 281.6,236.0 282.3,236.0 283.1,236.0 283.8,236.0 284.6,236.0 285.3,236.0 286.1,236.0 286.8,236.0 287.6,236.0 288.3,236.0 289.1,236.0 289.8,236.0 290.6,236.0 291.3,236.0 292.1,236.0 292.8,236.0 293.6,236.0 294.3,236.0 295.1,236.0 295.8,236.0 296.6,236.0 297.4,236.0 298.1,236.0 298.9,236.0 299.6,236.0 300.4,236.0 301.1,236.0 301.9,236.0 302.6,236.0 303.4,236.0 304.1,236.0 304.9,236.0 305.6,236.0 306.4,236.0 307.1,236.0 307.9,236.0 308.6,236.0 309.4,236.0 310.1,236.0 310.9,236.0 311.6,236.0 312.4,236.0 313.1,236.0 313.9,236.0 314.6,236.0 315.4,236.0 316.2,236.0 316.9,236.0 317.7,236.0 318.4,236.0 319.2,236.0 319.9,236.0 320.7,236.0 321.4,236.0 322.2,236.0 322.9,236.0 323.7,236.0 324.4,236.0 325.2,236.0 325.9,236.0 326.7,236.0 327.4,236.0 328.2,236.0 328.9,236.0 329.7,236.0 330.4,236.0 331.2,236.0 331.9,236.0 332.7,236.0 333.4,236.0 334.2,236.0 334.9,236.0 335.7,236.0 336.5,236.0 337.2,236.0 338.0,236.0 338.7,236.0 339.5,236.0 340.2,236.0 341.0,236.0 341.7,236.0 342.5,236.0 343.2,236.0 344.0,236.0 344.7,236.0 345.5,236.0 346.2,236.0 347.0,236.0 347.7,236.0 348.5,236.0 349.2,236.0 350.0,236.0 350.7,236.0 351.5,236.0 352.2,236.0 353.0,236.0 353.7,236.0 354.5,236.0 355.2,236.0 356.0,236.0"/>
<polyline class="thin s0" points="56.0,236.0 56.8,236.0 57.5,236.0 58.3,236.0 59.0,236.0 59.8,236.0 60.5,236.0 61.3,236.0 62.0,236.0 62.8,236.0 63.5,236.0 64.3,236.0 65.0,236.0 65.8,236.0 66.5,236.0 67.3,236.0 68.0,236.0 68.8,236.0 69.5,236.0 70.3,236.0 71.0,236.0 71.8,236.0 72.5,236.0 73.3,236.0 74.0,236.0 74.8,236.0 75.5,236.0 76.3,236.0 77.1,236.0 77.8,236.0 78.6,236.0 79.3,236.0 80.1,236.0 80.8,236.0 81.6,236.0 82.3,236.0 83.1,236.0 83.8,236.0 84.6,236.0 85.3,236.0 86.1,236.0 86.8,236.0 87.6,236.0 88.3,236.0 89.1,236.0 89.8,236.0 90.6,236.0 91.3,236.0 92.1,236.0 92.8,236.0 93.6,236.0 94.3,236.0 95.1,236.0 95.8,236.0 96.6,236.0 97.4,236.0 98.1,236.0 98.9,236.0 99.6,236.0 100.4,236.0 101.1,236.0 101.9,236.0 102.6,236.0 103.4,236.0 104.1,236.0 104.9,236.0 105.6,236.0 106.4,236.0 107.1,236.0 107.9,236.0 108.6,236.0 109.4,236.0 110.1,236.0 110.9,236.0 111.6,236.0 112.4,236.0 113.1,236.0 113.9,236.0 114.6,236.0 115.4,236.0 116.2,236.0 116.9,236.0 117.7,236.0 118.4,236.0 119.2,236.0 119.9,236.0 120.7,236.0 121.4,236.0 122.2,236.0 122.9,236.0 123.7,236.0 124.4,236.0 125.2,236.0 125.9,236.0 126.7,236.0 127.4,236.0 128.2,236.0 128.9,236.0 129.7,236.0 130.4,236.0 131.2,236.0 131.9,236.0 132.7,236.0 133.4,236.0 134.2,236.0 134.9,236.0 135.7,236.0 136.5,236.0 137.2,236.0 138.0,236.0 138.7,236.0 139.5,236.0 140.2,236.0 141.0,236.0 141.7,236.0 142.5,236.0 143.2,236.0 144.0,236.0 144.7,236.0 145.5,236.0 146.2,236.0 147.0,236.0 147.7,236.0 148.5,236.0 149.2,236.0 150.0,236.0 150.7,236.0 151.5,236.0 152.2,236.0 153.0,236.0 153.7,236.0 154.5,236.0 155.2,236.0 156.0,235.9 156.8,235.9 157.5,235.9 158.3,235.9 159.0,235.9 159.8,235.9 160.5,235.9 161.3,235.9 162.0,235.9 162.8,235.8 163.5,235.8 164.3,235.8 165.0,235.8 165.8,235.8 166.5,235.7 167.3,235.7 168.0,235.7 168.8,235.6 169.5,235.6 170.3,235.6 171.0,235.5 171.8,235.5 172.5,235.4 173.3,235.3 174.0,235.3 174.8,235.2 175.5,235.1 176.3,235.0 177.1,234.9 177.8,234.8 178.6,234.7 179.3,234.6 180.1,234.4 180.8,234.3 181.6,234.1 182.3,233.9 183.1,233.8 183.8,233.6 184.6,233.3 185.3,233.1 186.1,232.8 186.8,232.6 187.6,232.3 188.3,231.9 189.1,231.6 189.8,231.2 190.6,230.9 191.3,230.4 192.1,230.0 192.8,229.5 193.6,229.0 194.3,228.5 195.1,227.9 195.8,227.3 196.6,226.6 197.4,225.9 198.1,225.2 198.9,224.4 199.6,223.6 200.4,222.7 201.1,221.8 201.9,220.9 202.6,219.8 203.4,218.8 204.1,217.7 204.9,216.5 205.6,215.3 206.4,214.0 207.1,212.6 207.9,211.2 208.6,209.8 209.4,208.2 210.1,206.7 210.9,205.0 211.6,203.3 212.4,201.5 213.1,199.7 213.9,197.8 214.6,195.8 215.4,193.8 216.2,191.7 216.9,189.5 217.7,187.3 218.4,185.0 219.2,182.7 219.9,180.3 220.7,177.9 221.4,175.4 222.2,172.8 222.9,170.2 223.7,167.6 224.4,164.9 225.2,162.2 225.9,159.4 226.7,156.6 227.4,153.8 228.2,151.0 228.9,148.1 229.7,145.3 230.4,142.4 231.2,139.5 231.9,136.6 232.7,133.7 233.4,130.9 234.2,128.0 234.9,125.2 235.7,122.4 236.5,119.7 237.2,117.0 238.0,114.3 238.7,111.7 239.5,109.1 240.2,106.6 241.0,104.2 241.7,101.9 242.5,99.6 243.2,97.4 244.0,95.3 244.7,93.4 245.5,91.5 246.2,89.7 247.0,88.0 247.7,86.5 248.5,85.1 249.2,83.8 250.0,82.6 250.7,81.5 251.5,80.6 252.2,79.9 253.0,79.2 253.7,78.7 254.5,78.4 255.2,78.2 256.0,78.1 256.8,78.2 257.5,78.4 258.3,78.7 259.0,79.2 259.8,79.9 260.5,80.6 261.3,81.5 262.0,82.6 262.8,83.8 263.5,85.1 264.3,86.5 265.0,88.0 265.8,89.7 266.5,91.5 267.3,93.4 268.0,95.3 268.8,97.4 269.5,99.6 270.3,101.9 271.0,104.2 271.8,106.6 272.5,109.1 273.3,111.7 274.0,114.3 274.8,117.0 275.5,119.7 276.3,122.4 277.1,125.2 277.8,128.0 278.6,130.9 279.3,133.7 280.1,136.6 280.8,139.5 281.6,142.4 282.3,145.3 283.1,148.1 283.8,151.0 284.6,153.8 285.3,156.6 286.1,159.4 286.8,162.2 287.6,164.9 288.3,167.6 289.1,170.2 289.8,172.8 290.6,175.4 291.3,177.9 292.1,180.3 292.8,182.7 293.6,185.0 294.3,187.3 295.1,189.5 295.8,191.7 296.6,193.8 297.4,195.8 298.1,197.8 298.9,199.7 299.6,201.5 300.4,203.3 301.1,205.0 301.9,206.7 302.6,208.2 303.4,209.8 304.1,211.2 304.9,212.6 305.6,214.0 306.4,215.3 307.1,216.5 307.9,217.7 308.6,218.8 309.4,219.8 310.1,220.9 310.9,221.8 311.6,222.7 312.4,223.6 313.1,224.4 313.9,225.2 314.6,225.9 315.4,226.6 316.2,227.3 316.9,227.9 317.7,228.5 318.4,229.0 319.2,229.5 319.9,230.0 320.7,230.4 321.4,230.9 322.2,231.2 322.9,231.6 323.7,231.9 324.4,232.3 325.2,232.6 325.9,232.8 326.7,233.1 327.4,233.3 328.2,233.6 328.9,233.8 329.7,233.9 330.4,234.1 331.2,234.3 331.9,234.4 332.7,234.6 333.4,234.7 334.2,234.8 334.9,234.9 335.7,235.0 336.5,235.1 337.2,235.2 338.0,235.3 338.7,235.3 339.5,235.4 340.2,235.5 341.0,235.5 341.7,235.6 342.5,235.6 343.2,235.6 344.0,235.7 344.7,235.7 345.5,235.7 346.2,235.8 347.0,235.8 347.7,235.8 348.5,235.8 349.2,235.8 350.0,235.9 350.7,235.9 351.5,235.9 352.2,235.9 353.0,235.9 353.7,235.9 354.5,235.9 355.2,235.9 356.0,235.9"/>
<polyline class="thin s2" points="56.0,236.0 56.8,236.0 57.5,235.9 58.3,235.9 59.0,235.9 59.8,235.9 60.5,235.9 61.3,235.9 62.0,235.9 62.8,235.9 63.5,235.9 64.3,235.9 65.0,235.8 65.8,235.8 66.5,235.8 67.3,235.8 68.0,235.8 68.8,235.7 69.5,235.7 70.3,235.7 71.0,235.6 71.8,235.6 72.5,235.5 73.3,235.5 74.0,235.5 74.8,235.4 75.5,235.3 76.3,235.3 77.1,235.2 77.8,235.1 78.6,235.0 79.3,234.9 80.1,234.8 80.8,234.7 81.6,234.6 82.3,234.5 83.1,234.3 83.8,234.2 84.6,234.0 85.3,233.8 86.1,233.6 86.8,233.4 87.6,233.2 88.3,233.0 89.1,232.7 89.8,232.4 90.6,232.1 91.3,231.8 92.1,231.5 92.8,231.1 93.6,230.7 94.3,230.3 95.1,229.9 95.8,229.4 96.6,229.0 97.4,228.4 98.1,227.9 98.9,227.3 99.6,226.7 100.4,226.0 101.1,225.4 101.9,224.6 102.6,223.9 103.4,223.1 104.1,222.2 104.9,221.4 105.6,220.4 106.4,219.5 107.1,218.5 107.9,217.4 108.6,216.3 109.4,215.2 110.1,214.0 110.9,212.8 111.6,211.5 112.4,210.1 113.1,208.8 113.9,207.3 114.6,205.8 115.4,204.3 116.2,202.8 116.9,201.1 117.7,199.5 118.4,197.8 119.2,196.0 119.9,194.2 120.7,192.4 121.4,190.5 122.2,188.6 122.9,186.7 123.7,184.7 124.4,182.7 125.2,180.6 125.9,178.6 126.7,176.5 127.4,174.4 128.2,172.2 128.9,170.1 129.7,167.9 130.4,165.8 131.2,163.6 131.9,161.5 132.7,159.3 133.4,157.2 134.2,155.0 134.9,152.9 135.7,150.8 136.5,148.8 137.2,146.7 138.0,144.7 138.7,142.8 139.5,140.8 140.2,139.0 141.0,137.2 141.7,135.4 142.5,133.7 143.2,132.1 144.0,130.5 144.7,129.0 145.5,127.6 146.2,126.3 147.0,125.0 147.7,123.9 148.5,122.8 149.2,121.8 150.0,120.9 150.7,120.2 151.5,119.5 152.2,118.9 153.0,118.4 153.7,118.0 154.5,117.8 155.2,117.6 156.0,117.6 156.8,117.6 157.5,117.8 158.3,118.0 159.0,118.4 159.8,118.9 160.5,119.4 161.3,120.1 162.0,120.9 162.8,121.8 163.5,122.8 164.3,123.8 165.0,125.0 165.8,126.2 166.5,127.5 167.3,129.0 168.0,130.4 168.8,132.0 169.5,133.6 170.3,135.3 171.0,137.0 171.8,138.8 172.5,140.7 173.3,142.6 174.0,144.5 174.8,146.5 175.5,148.5 176.3,150.6 177.1,152.7 177.8,154.7 178.6,156.8 179.3,159.0 180.1,161.1 180.8,163.2 181.6,165.3 182.3,167.4 183.1,169.5 183.8,171.6 184.6,173.7 185.3,175.7 186.1,177.8 186.8,179.8 187.6,181.7 188.3,183.7 189.1,185.6 189.8,187.4 190.6,189.2 191.3,191.0 192.1,192.7 192.8,194.4 193.6,196.0 194.3,197.6 195.1,199.1 195.8,200.6 196.6,202.0 197.4,203.3 198.1,204.6 198.9,205.9 199.6,207.0 200.4,208.1 201.1,209.2 201.9,210.2 202.6,211.1 203.4,212.0 204.1,212.8 204.9,213.6 205.6,214.3 206.4,214.9 207.1,215.5 207.9,216.1 208.6,216.5 209.4,216.9 210.1,217.3 210.9,217.6 211.6,217.9 212.4,218.1 213.1,218.2 213.9,218.3 214.6,218.4 215.4,218.4 216.2,218.4 216.9,218.3 217.7,218.2 218.4,218.0 219.2,217.8 219.9,217.6 220.7,217.3 221.4,217.0 222.2,216.6 222.9,216.3 223.7,215.9 224.4,215.4 225.2,215.0 225.9,214.5 226.7,214.0 227.4,213.5 228.2,212.9 228.9,212.4 229.7,211.8 230.4,211.2 231.2,210.6 231.9,210.0 232.7,209.4 233.4,208.7 234.2,208.1 234.9,207.5 235.7,206.9 236.5,206.3 237.2,205.6 238.0,205.0 238.7,204.4 239.5,203.8 240.2,203.3 241.0,202.7 241.7,202.1 242.5,201.6 243.2,201.1 244.0,200.6 244.7,200.1 245.5,199.7 246.2,199.3 247.0,198.9 247.7,198.5 248.5,198.1 249.2,197.8 250.0,197.5 250.7,197.3 251.5,197.1 252.2,196.9 253.0,196.7 253.7,196.6 254.5,196.5 255.2,196.5 256.0,196.5 256.8,196.5 257.5,196.6 258.3,196.7 259.0,196.8 259.8,196.9 260.5,197.1 261.3,197.4 262.0,197.6 262.8,197.9 263.5,198.3 264.3,198.6 265.0,199.0 265.8,199.4 266.5,199.9 267.3,200.3 268.0,200.8 268.8,201.4 269.5,201.9 270.3,202.5 271.0,203.1 271.8,203.7 272.5,204.3 273.3,204.9 274.0,205.6 274.8,206.2 275.5,206.9 276.3,207.6 277.1,208.3 277.8,209.0 278.6,209.7 279.3,210.4 280.1,211.2 280.8,211.9 281.6,212.6 282.3,213.3 283.1,214.0 283.8,214.7 284.6,215.5 285.3,216.2 286.1,216.9 286.8,217.5 287.6,218.2 288.3,218.9 289.1,219.6 289.8,220.2 290.6,220.8 291.3,221.5 292.1,222.1 292.8,222.7 293.6,223.3 294.3,223.8 295.1,224.4 295.8,224.9 296.6,225.4 297.4,225.9 298.1,226.4 298.9,226.9 299.6,227.4 300.4,227.8 301.1,228.3 301.9,228.7 302.6,229.1 303.4,229.4 304.1,229.8 304.9,230.2 305.6,230.5 306.4,230.8 307.1,231.1 307.9,231.4 308.6,231.7 309.4,232.0 310.1,232.2 310.9,232.5 311.6,232.7 312.4,232.9 313.1,233.1 313.9,233.3 314.6,233.5 315.4,233.7 316.2,233.8 316.9,234.0 317.7,234.1 318.4,234.2 319.2,234.4 319.9,234.5 320.7,234.6 321.4,234.7 322.2,234.8 322.9,234.9 323.7,235.0 324.4,235.1 325.2,235.1 325.9,235.2 326.7,235.3 327.4,235.3 328.2,235.4 328.9,235.4 329.7,235.5 330.4,235.5 331.2,235.6 331.9,235.6 332.7,235.6 333.4,235.7 334.2,235.7 334.9,235.7 335.7,235.8 336.5,235.8 337.2,235.8 338.0,235.8 338.7,235.8 339.5,235.8 340.2,235.9 341.0,235.9 341.7,235.9 342.5,235.9 343.2,235.9 344.0,235.9 344.7,235.9 345.5,235.9 346.2,235.9 347.0,235.9 347.7,236.0 348.5,236.0 349.2,236.0 350.0,236.0 350.7,236.0 351.5,236.0 352.2,236.0 353.0,236.0 353.7,236.0 354.5,236.0 355.2,236.0 356.0,236.0"/>
<polyline class="ln s2" points="56.0,236.0 56.8,236.0 57.5,236.0 58.3,236.0 59.0,236.0 59.8,236.0 60.5,235.9 61.3,235.9 62.0,235.9 62.8,235.9 63.5,235.9 64.3,235.9 65.0,235.9 65.8,235.9 66.5,235.9 67.3,235.9 68.0,235.8 68.8,235.8 69.5,235.8 70.3,235.8 71.0,235.8 71.8,235.7 72.5,235.7 73.3,235.7 74.0,235.6 74.8,235.6 75.5,235.6 76.3,235.5 77.1,235.5 77.8,235.4 78.6,235.3 79.3,235.3 80.1,235.2 80.8,235.1 81.6,235.1 82.3,235.0 83.1,234.9 83.8,234.8 84.6,234.7 85.3,234.5 86.1,234.4 86.8,234.3 87.6,234.1 88.3,234.0 89.1,233.8 89.8,233.6 90.6,233.4 91.3,233.2 92.1,233.0 92.8,232.8 93.6,232.5 94.3,232.2 95.1,231.9 95.8,231.6 96.6,231.3 97.4,231.0 98.1,230.6 98.9,230.2 99.6,229.8 100.4,229.4 101.1,228.9 101.9,228.4 102.6,227.9 103.4,227.4 104.1,226.8 104.9,226.2 105.6,225.6 106.4,225.0 107.1,224.3 107.9,223.6 108.6,222.9 109.4,222.1 110.1,221.3 110.9,220.5 111.6,219.6 112.4,218.8 113.1,217.8 113.9,216.9 114.6,215.9 115.4,214.9 116.2,213.8 116.9,212.8 117.7,211.6 118.4,210.5 119.2,209.3 119.9,208.1 120.7,206.9 121.4,205.7 122.2,204.4 122.9,203.1 123.7,201.8 124.4,200.4 125.2,199.1 125.9,197.7 126.7,196.3 127.4,194.9 128.2,193.5 128.9,192.1 129.7,190.6 130.4,189.2 131.2,187.7 131.9,186.3 132.7,184.9 133.4,183.4 134.2,182.0 134.9,180.6 135.7,179.2 136.5,177.8 137.2,176.5 138.0,175.1 138.7,173.8 139.5,172.6 140.2,171.3 141.0,170.1 141.7,168.9 142.5,167.8 143.2,166.7 144.0,165.7 144.7,164.7 145.5,163.7 146.2,162.8 147.0,162.0 147.7,161.2 148.5,160.5 149.2,159.9 150.0,159.3 150.7,158.8 151.5,158.3 152.2,157.9 153.0,157.6 153.7,157.3 154.5,157.2 155.2,157.1 156.0,157.0 156.8,157.0 157.5,157.2 158.3,157.3 159.0,157.6 159.8,157.9 160.5,158.3 161.3,158.7 162.0,159.2 162.8,159.8 163.5,160.4 164.3,161.2 165.0,161.9 165.8,162.7 166.5,163.6 167.3,164.5 168.0,165.5 168.8,166.5 169.5,167.6 170.3,168.7 171.0,169.9 171.8,171.0 172.5,172.3 173.3,173.5 174.0,174.8 174.8,176.1 175.5,177.4 176.3,178.7 177.1,180.1 177.8,181.4 178.6,182.8 179.3,184.2 180.1,185.5 180.8,186.9 181.6,188.3 182.3,189.6 183.1,190.9 183.8,192.3 184.6,193.6 185.3,194.9 186.1,196.1 186.8,197.4 187.6,198.6 188.3,199.8 189.1,200.9 189.8,202.0 190.6,203.1 191.3,204.1 192.1,205.1 192.8,206.1 193.6,207.0 194.3,207.9 195.1,208.7 195.8,209.5 196.6,210.2 197.4,210.9 198.1,211.5 198.9,212.0 199.6,212.6 200.4,213.0 201.1,213.4 201.9,213.8 202.6,214.0 203.4,214.3 204.1,214.4 204.9,214.6 205.6,214.6 206.4,214.6 207.1,214.6 207.9,214.4 208.6,214.3 209.4,214.0 210.1,213.8 210.9,213.4 211.6,213.0 212.4,212.6 213.1,212.0 213.9,211.5 214.6,210.9 215.4,210.2 216.2,209.5 216.9,208.7 217.7,207.9 218.4,207.0 219.2,206.1 219.9,205.1 220.7,204.1 221.4,203.1 222.2,202.0 222.9,200.9 223.7,199.8 224.4,198.6 225.2,197.4 225.9,196.1 226.7,194.9 227.4,193.6 228.2,192.3 228.9,190.9 229.7,189.6 230.4,188.3 231.2,186.9 231.9,185.5 232.7,184.2 233.4,182.8 234.2,181.4 234.9,180.1 235.7,178.7 236.5,177.4 237.2,176.1 238.0,174.8 238.7,173.5 239.5,172.3 240.2,171.0 241.0,169.9 241.7,168.7 242.5,167.6 243.2,166.5 244.0,165.5 244.7,164.5 245.5,163.6 246.2,162.7 247.0,161.9 247.7,161.2 248.5,160.4 249.2,159.8 250.0,159.2 250.7,158.7 251.5,158.3 252.2,157.9 253.0,157.6 253.7,157.3 254.5,157.2 255.2,157.0 256.0,157.0 256.8,157.1 257.5,157.2 258.3,157.3 259.0,157.6 259.8,157.9 260.5,158.3 261.3,158.8 262.0,159.3 262.8,159.9 263.5,160.5 264.3,161.2 265.0,162.0 265.8,162.8 266.5,163.7 267.3,164.7 268.0,165.7 268.8,166.7 269.5,167.8 270.3,168.9 271.0,170.1 271.8,171.3 272.5,172.6 273.3,173.8 274.0,175.1 274.8,176.5 275.5,177.8 276.3,179.2 277.1,180.6 277.8,182.0 278.6,183.4 279.3,184.9 280.1,186.3 280.8,187.7 281.6,189.2 282.3,190.6 283.1,192.1 283.8,193.5 284.6,194.9 285.3,196.3 286.1,197.7 286.8,199.1 287.6,200.4 288.3,201.8 289.1,203.1 289.8,204.4 290.6,205.7 291.3,206.9 292.1,208.1 292.8,209.3 293.6,210.5 294.3,211.6 295.1,212.8 295.8,213.8 296.6,214.9 297.4,215.9 298.1,216.9 298.9,217.8 299.6,218.8 300.4,219.6 301.1,220.5 301.9,221.3 302.6,222.1 303.4,222.9 304.1,223.6 304.9,224.3 305.6,225.0 306.4,225.6 307.1,226.2 307.9,226.8 308.6,227.4 309.4,227.9 310.1,228.4 310.9,228.9 311.6,229.4 312.4,229.8 313.1,230.2 313.9,230.6 314.6,231.0 315.4,231.3 316.2,231.6 316.9,231.9 317.7,232.2 318.4,232.5 319.2,232.8 319.9,233.0 320.7,233.2 321.4,233.4 322.2,233.6 322.9,233.8 323.7,234.0 324.4,234.1 325.2,234.3 325.9,234.4 326.7,234.5 327.4,234.7 328.2,234.8 328.9,234.9 329.7,235.0 330.4,235.1 331.2,235.1 331.9,235.2 332.7,235.3 333.4,235.3 334.2,235.4 334.9,235.5 335.7,235.5 336.5,235.6 337.2,235.6 338.0,235.6 338.7,235.7 339.5,235.7 340.2,235.7 341.0,235.8 341.7,235.8 342.5,235.8 343.2,235.8 344.0,235.8 344.7,235.9 345.5,235.9 346.2,235.9 347.0,235.9 347.7,235.9 348.5,235.9 349.2,235.9 350.0,235.9 350.7,235.9 351.5,235.9 352.2,236.0 353.0,236.0 353.7,236.0 354.5,236.0 355.2,236.0 356.0,236.0"/>
<polyline class="dash s2" points="56.0,236.0 56.8,236.0 57.5,236.0 58.3,236.0 59.0,236.0 59.8,236.0 60.5,236.0 61.3,236.0 62.0,236.0 62.8,236.0 63.5,236.0 64.3,236.0 65.0,235.9 65.8,235.9 66.5,235.9 67.3,235.9 68.0,235.9 68.8,235.9 69.5,235.9 70.3,235.9 71.0,235.9 71.8,235.9 72.5,235.8 73.3,235.8 74.0,235.8 74.8,235.8 75.5,235.8 76.3,235.8 77.1,235.7 77.8,235.7 78.6,235.7 79.3,235.6 80.1,235.6 80.8,235.6 81.6,235.5 82.3,235.5 83.1,235.4 83.8,235.4 84.6,235.3 85.3,235.3 86.1,235.2 86.8,235.1 87.6,235.1 88.3,235.0 89.1,234.9 89.8,234.8 90.6,234.7 91.3,234.6 92.1,234.5 92.8,234.4 93.6,234.2 94.3,234.1 95.1,234.0 95.8,233.8 96.6,233.7 97.4,233.5 98.1,233.3 98.9,233.1 99.6,232.9 100.4,232.7 101.1,232.5 101.9,232.2 102.6,232.0 103.4,231.7 104.1,231.4 104.9,231.1 105.6,230.8 106.4,230.5 107.1,230.2 107.9,229.8 108.6,229.4 109.4,229.1 110.1,228.7 110.9,228.3 111.6,227.8 112.4,227.4 113.1,226.9 113.9,226.4 114.6,225.9 115.4,225.4 116.2,224.9 116.9,224.4 117.7,223.8 118.4,223.3 119.2,222.7 119.9,222.1 120.7,221.5 121.4,220.8 122.2,220.2 122.9,219.6 123.7,218.9 124.4,218.2 125.2,217.5 125.9,216.9 126.7,216.2 127.4,215.5 128.2,214.7 128.9,214.0 129.7,213.3 130.4,212.6 131.2,211.9 131.9,211.2 132.7,210.4 133.4,209.7 134.2,209.0 134.9,208.3 135.7,207.6 136.5,206.9 137.2,206.2 138.0,205.6 138.7,204.9 139.5,204.3 140.2,203.7 141.0,203.1 141.7,202.5 142.5,201.9 143.2,201.4 144.0,200.8 144.7,200.3 145.5,199.9 146.2,199.4 147.0,199.0 147.7,198.6 148.5,198.3 149.2,197.9 150.0,197.6 150.7,197.4 151.5,197.1 152.2,196.9 153.0,196.8 153.7,196.7 154.5,196.6 155.2,196.5 156.0,196.5 156.8,196.5 157.5,196.5 158.3,196.6 159.0,196.7 159.8,196.9 160.5,197.1 161.3,197.3 162.0,197.5 162.8,197.8 163.5,198.1 164.3,198.5 165.0,198.9 165.8,199.3 166.5,199.7 167.3,200.1 168.0,200.6 168.8,201.1 169.5,201.6 170.3,202.1 171.0,202.7 171.8,203.3 172.5,203.8 173.3,204.4 174.0,205.0 174.8,205.6 175.5,206.3 176.3,206.9 177.1,207.5 177.8,208.1 178.6,208.7 179.3,209.4 180.1,210.0 180.8,210.6 181.6,211.2 182.3,211.8 183.1,212.4 183.8,212.9 184.6,213.5 185.3,214.0 186.1,214.5 186.8,215.0 187.6,215.4 188.3,215.9 189.1,216.3 189.8,216.6 190.6,217.0 191.3,217.3 192.1,217.6 192.8,217.8 193.6,218.0 194.3,218.2 195.1,218.3 195.8,218.4 196.6,218.4 197.4,218.4 198.1,218.3 198.9,218.2 199.6,218.1 200.4,217.9 201.1,217.6 201.9,217.3 202.6,216.9 203.4,216.5 204.1,216.1 204.9,215.5 205.6,214.9 206.4,214.3 207.1,213.6 207.9,212.8 208.6,212.0 209.4,211.1 210.1,210.2 210.9,209.2 211.6,208.1 212.4,207.0 213.1,205.9 213.9,204.6 214.6,203.3 215.4,202.0 216.2,200.6 216.9,199.1 217.7,197.6 218.4,196.0 219.2,194.4 219.9,192.7 220.7,191.0 221.4,189.2 222.2,187.4 222.9,185.6 223.7,183.7 224.4,181.7 225.2,179.8 225.9,177.8 226.7,175.7 227.4,173.7 228.2,171.6 228.9,169.5 229.7,167.4 230.4,165.3 231.2,163.2 231.9,161.1 232.7,159.0 233.4,156.8 234.2,154.7 234.9,152.7 235.7,150.6 236.5,148.5 237.2,146.5 238.0,144.5 238.7,142.6 239.5,140.7 240.2,138.8 241.0,137.0 241.7,135.3 242.5,133.6 243.2,132.0 244.0,130.4 244.7,129.0 245.5,127.5 246.2,126.2 247.0,125.0 247.7,123.8 248.5,122.8 249.2,121.8 250.0,120.9 250.7,120.1 251.5,119.4 252.2,118.9 253.0,118.4 253.7,118.0 254.5,117.8 255.2,117.6 256.0,117.6 256.8,117.6 257.5,117.8 258.3,118.0 259.0,118.4 259.8,118.9 260.5,119.5 261.3,120.2 262.0,120.9 262.8,121.8 263.5,122.8 264.3,123.9 265.0,125.0 265.8,126.3 266.5,127.6 267.3,129.0 268.0,130.5 268.8,132.1 269.5,133.7 270.3,135.4 271.0,137.2 271.8,139.0 272.5,140.8 273.3,142.8 274.0,144.7 274.8,146.7 275.5,148.8 276.3,150.8 277.1,152.9 277.8,155.0 278.6,157.2 279.3,159.3 280.1,161.5 280.8,163.6 281.6,165.8 282.3,167.9 283.1,170.1 283.8,172.2 284.6,174.4 285.3,176.5 286.1,178.6 286.8,180.6 287.6,182.7 288.3,184.7 289.1,186.7 289.8,188.6 290.6,190.5 291.3,192.4 292.1,194.2 292.8,196.0 293.6,197.8 294.3,199.5 295.1,201.1 295.8,202.8 296.6,204.3 297.4,205.8 298.1,207.3 298.9,208.8 299.6,210.1 300.4,211.5 301.1,212.8 301.9,214.0 302.6,215.2 303.4,216.3 304.1,217.4 304.9,218.5 305.6,219.5 306.4,220.4 307.1,221.4 307.9,222.2 308.6,223.1 309.4,223.9 310.1,224.6 310.9,225.4 311.6,226.0 312.4,226.7 313.1,227.3 313.9,227.9 314.6,228.4 315.4,229.0 316.2,229.4 316.9,229.9 317.7,230.3 318.4,230.7 319.2,231.1 319.9,231.5 320.7,231.8 321.4,232.1 322.2,232.4 322.9,232.7 323.7,233.0 324.4,233.2 325.2,233.4 325.9,233.6 326.7,233.8 327.4,234.0 328.2,234.2 328.9,234.3 329.7,234.5 330.4,234.6 331.2,234.7 331.9,234.8 332.7,234.9 333.4,235.0 334.2,235.1 334.9,235.2 335.7,235.3 336.5,235.3 337.2,235.4 338.0,235.5 338.7,235.5 339.5,235.5 340.2,235.6 341.0,235.6 341.7,235.7 342.5,235.7 343.2,235.7 344.0,235.8 344.7,235.8 345.5,235.8 346.2,235.8 347.0,235.8 347.7,235.9 348.5,235.9 349.2,235.9 350.0,235.9 350.7,235.9 351.5,235.9 352.2,235.9 353.0,235.9 353.7,235.9 354.5,235.9 355.2,236.0 356.0,236.0"/>
<text class="sm" x="152.0" y="65.8" text-anchor="start">p</text>
<text class="sm" x="252.0" y="65.8" text-anchor="start">q</text>
<text class="sm" x="410" y="239.5" text-anchor="end">0</text>
<text class="sm" x="410" y="160.3" text-anchor="end">0.2</text>
<text class="sm" x="410" y="81.2" text-anchor="end">0.4</text>
<text class="sm" x="466.0" y="251" text-anchor="middle">−4</text>
<text class="sm" x="516.0" y="251" text-anchor="middle">−2</text>
<text class="sm" x="566.0" y="251" text-anchor="middle">0</text>
<text class="sm" x="616.0" y="251" text-anchor="middle">2</text>
<text class="sm" x="666.0" y="251" text-anchor="middle">4</text>
<line class="ax" x1="416" y1="236" x2="716" y2="236"/>
<line class="ax" x1="416" y1="46" x2="416" y2="236"/>
<text class="lab" x="566.0" y="268" text-anchor="middle">x</text>
<text class="lab" transform="translate(376,141.0) rotate(-90)" text-anchor="middle">density</text>
<text class="hd" x="416" y="34">e-geodesic: geometric mixtures ∝ p^(1−t) q^t</text>
<polyline class="thin s0" points="416.0,235.9 416.8,235.9 417.5,235.9 418.3,235.9 419.0,235.9 419.8,235.9 420.5,235.9 421.3,235.9 422.0,235.9 422.8,235.8 423.5,235.8 424.3,235.8 425.0,235.8 425.8,235.8 426.5,235.7 427.3,235.7 428.0,235.7 428.8,235.6 429.5,235.6 430.3,235.6 431.0,235.5 431.8,235.5 432.5,235.4 433.3,235.3 434.0,235.3 434.8,235.2 435.5,235.1 436.3,235.0 437.1,234.9 437.8,234.8 438.6,234.7 439.3,234.6 440.1,234.4 440.8,234.3 441.6,234.1 442.3,233.9 443.1,233.8 443.8,233.6 444.6,233.3 445.3,233.1 446.1,232.8 446.8,232.6 447.6,232.3 448.3,231.9 449.1,231.6 449.8,231.2 450.6,230.9 451.3,230.4 452.1,230.0 452.8,229.5 453.6,229.0 454.3,228.5 455.1,227.9 455.8,227.3 456.6,226.6 457.4,225.9 458.1,225.2 458.9,224.4 459.6,223.6 460.4,222.7 461.1,221.8 461.9,220.9 462.6,219.8 463.4,218.8 464.1,217.7 464.9,216.5 465.6,215.3 466.4,214.0 467.1,212.6 467.9,211.2 468.6,209.8 469.4,208.2 470.1,206.7 470.9,205.0 471.6,203.3 472.4,201.5 473.1,199.7 473.9,197.8 474.6,195.8 475.4,193.8 476.2,191.7 476.9,189.5 477.7,187.3 478.4,185.0 479.2,182.7 479.9,180.3 480.7,177.9 481.4,175.4 482.2,172.8 482.9,170.2 483.7,167.6 484.4,164.9 485.2,162.2 485.9,159.4 486.7,156.6 487.4,153.8 488.2,151.0 488.9,148.1 489.7,145.3 490.4,142.4 491.2,139.5 491.9,136.6 492.7,133.7 493.4,130.9 494.2,128.0 494.9,125.2 495.7,122.4 496.5,119.7 497.2,117.0 498.0,114.3 498.7,111.7 499.5,109.1 500.2,106.6 501.0,104.2 501.7,101.9 502.5,99.6 503.2,97.4 504.0,95.3 504.7,93.4 505.5,91.5 506.2,89.7 507.0,88.0 507.7,86.5 508.5,85.1 509.2,83.8 510.0,82.6 510.7,81.5 511.5,80.6 512.2,79.9 513.0,79.2 513.7,78.7 514.5,78.4 515.2,78.2 516.0,78.1 516.8,78.2 517.5,78.4 518.3,78.7 519.0,79.2 519.8,79.9 520.5,80.6 521.3,81.5 522.0,82.6 522.8,83.8 523.5,85.1 524.3,86.5 525.0,88.0 525.8,89.7 526.5,91.5 527.3,93.4 528.0,95.3 528.8,97.4 529.5,99.6 530.3,101.9 531.0,104.2 531.8,106.6 532.5,109.1 533.3,111.7 534.0,114.3 534.8,117.0 535.5,119.7 536.3,122.4 537.1,125.2 537.8,128.0 538.6,130.9 539.3,133.7 540.1,136.6 540.8,139.5 541.6,142.4 542.3,145.3 543.1,148.1 543.8,151.0 544.6,153.8 545.3,156.6 546.1,159.4 546.8,162.2 547.6,164.9 548.3,167.6 549.1,170.2 549.8,172.8 550.6,175.4 551.3,177.9 552.1,180.3 552.8,182.7 553.6,185.0 554.3,187.3 555.1,189.5 555.8,191.7 556.6,193.8 557.4,195.8 558.1,197.8 558.9,199.7 559.6,201.5 560.4,203.3 561.1,205.0 561.9,206.7 562.6,208.2 563.4,209.8 564.1,211.2 564.9,212.6 565.6,214.0 566.4,215.3 567.1,216.5 567.9,217.7 568.6,218.8 569.4,219.8 570.1,220.9 570.9,221.8 571.6,222.7 572.4,223.6 573.1,224.4 573.9,225.2 574.6,225.9 575.4,226.6 576.2,227.3 576.9,227.9 577.7,228.5 578.4,229.0 579.2,229.5 579.9,230.0 580.7,230.4 581.4,230.9 582.2,231.2 582.9,231.6 583.7,231.9 584.4,232.3 585.2,232.6 585.9,232.8 586.7,233.1 587.4,233.3 588.2,233.6 588.9,233.8 589.7,233.9 590.4,234.1 591.2,234.3 591.9,234.4 592.7,234.6 593.4,234.7 594.2,234.8 594.9,234.9 595.7,235.0 596.5,235.1 597.2,235.2 598.0,235.3 598.7,235.3 599.5,235.4 600.2,235.5 601.0,235.5 601.7,235.6 602.5,235.6 603.2,235.6 604.0,235.7 604.7,235.7 605.5,235.7 606.2,235.8 607.0,235.8 607.7,235.8 608.5,235.8 609.2,235.8 610.0,235.9 610.7,235.9 611.5,235.9 612.2,235.9 613.0,235.9 613.7,235.9 614.5,235.9 615.2,235.9 616.0,235.9 616.8,236.0 617.5,236.0 618.3,236.0 619.0,236.0 619.8,236.0 620.5,236.0 621.3,236.0 622.0,236.0 622.8,236.0 623.5,236.0 624.3,236.0 625.0,236.0 625.8,236.0 626.5,236.0 627.3,236.0 628.0,236.0 628.8,236.0 629.5,236.0 630.3,236.0 631.0,236.0 631.8,236.0 632.5,236.0 633.3,236.0 634.0,236.0 634.8,236.0 635.5,236.0 636.3,236.0 637.1,236.0 637.8,236.0 638.6,236.0 639.3,236.0 640.1,236.0 640.8,236.0 641.6,236.0 642.3,236.0 643.1,236.0 643.8,236.0 644.6,236.0 645.3,236.0 646.1,236.0 646.8,236.0 647.6,236.0 648.3,236.0 649.1,236.0 649.8,236.0 650.6,236.0 651.3,236.0 652.1,236.0 652.8,236.0 653.6,236.0 654.3,236.0 655.1,236.0 655.8,236.0 656.6,236.0 657.4,236.0 658.1,236.0 658.9,236.0 659.6,236.0 660.4,236.0 661.1,236.0 661.9,236.0 662.6,236.0 663.4,236.0 664.1,236.0 664.9,236.0 665.6,236.0 666.4,236.0 667.1,236.0 667.9,236.0 668.6,236.0 669.4,236.0 670.1,236.0 670.9,236.0 671.6,236.0 672.4,236.0 673.1,236.0 673.9,236.0 674.6,236.0 675.4,236.0 676.2,236.0 676.9,236.0 677.7,236.0 678.4,236.0 679.2,236.0 679.9,236.0 680.7,236.0 681.4,236.0 682.2,236.0 682.9,236.0 683.7,236.0 684.4,236.0 685.2,236.0 685.9,236.0 686.7,236.0 687.4,236.0 688.2,236.0 688.9,236.0 689.7,236.0 690.4,236.0 691.2,236.0 691.9,236.0 692.7,236.0 693.4,236.0 694.2,236.0 694.9,236.0 695.7,236.0 696.5,236.0 697.2,236.0 698.0,236.0 698.7,236.0 699.5,236.0 700.2,236.0 701.0,236.0 701.7,236.0 702.5,236.0 703.2,236.0 704.0,236.0 704.7,236.0 705.5,236.0 706.2,236.0 707.0,236.0 707.7,236.0 708.5,236.0 709.2,236.0 710.0,236.0 710.7,236.0 711.5,236.0 712.2,236.0 713.0,236.0 713.7,236.0 714.5,236.0 715.2,236.0 716.0,236.0"/>
<polyline class="thin s0" points="416.0,236.0 416.8,236.0 417.5,236.0 418.3,236.0 419.0,236.0 419.8,236.0 420.5,236.0 421.3,236.0 422.0,236.0 422.8,236.0 423.5,236.0 424.3,236.0 425.0,236.0 425.8,236.0 426.5,236.0 427.3,236.0 428.0,236.0 428.8,236.0 429.5,236.0 430.3,236.0 431.0,236.0 431.8,236.0 432.5,236.0 433.3,236.0 434.0,236.0 434.8,236.0 435.5,236.0 436.3,236.0 437.1,236.0 437.8,236.0 438.6,236.0 439.3,236.0 440.1,236.0 440.8,236.0 441.6,236.0 442.3,236.0 443.1,236.0 443.8,236.0 444.6,236.0 445.3,236.0 446.1,236.0 446.8,236.0 447.6,236.0 448.3,236.0 449.1,236.0 449.8,236.0 450.6,236.0 451.3,236.0 452.1,236.0 452.8,236.0 453.6,236.0 454.3,236.0 455.1,236.0 455.8,236.0 456.6,236.0 457.4,236.0 458.1,236.0 458.9,236.0 459.6,236.0 460.4,236.0 461.1,236.0 461.9,236.0 462.6,236.0 463.4,236.0 464.1,236.0 464.9,236.0 465.6,236.0 466.4,236.0 467.1,236.0 467.9,236.0 468.6,236.0 469.4,236.0 470.1,236.0 470.9,236.0 471.6,236.0 472.4,236.0 473.1,236.0 473.9,236.0 474.6,236.0 475.4,236.0 476.2,236.0 476.9,236.0 477.7,236.0 478.4,236.0 479.2,236.0 479.9,236.0 480.7,236.0 481.4,236.0 482.2,236.0 482.9,236.0 483.7,236.0 484.4,236.0 485.2,236.0 485.9,236.0 486.7,236.0 487.4,236.0 488.2,236.0 488.9,236.0 489.7,236.0 490.4,236.0 491.2,236.0 491.9,236.0 492.7,236.0 493.4,236.0 494.2,236.0 494.9,236.0 495.7,236.0 496.5,236.0 497.2,236.0 498.0,236.0 498.7,236.0 499.5,236.0 500.2,236.0 501.0,236.0 501.7,236.0 502.5,236.0 503.2,236.0 504.0,236.0 504.7,236.0 505.5,236.0 506.2,236.0 507.0,236.0 507.7,236.0 508.5,236.0 509.2,236.0 510.0,236.0 510.7,236.0 511.5,236.0 512.2,236.0 513.0,236.0 513.7,236.0 514.5,236.0 515.2,236.0 516.0,235.9 516.8,235.9 517.5,235.9 518.3,235.9 519.0,235.9 519.8,235.9 520.5,235.9 521.3,235.9 522.0,235.9 522.8,235.8 523.5,235.8 524.3,235.8 525.0,235.8 525.8,235.8 526.5,235.7 527.3,235.7 528.0,235.7 528.8,235.6 529.5,235.6 530.3,235.6 531.0,235.5 531.8,235.5 532.5,235.4 533.3,235.3 534.0,235.3 534.8,235.2 535.5,235.1 536.3,235.0 537.1,234.9 537.8,234.8 538.6,234.7 539.3,234.6 540.1,234.4 540.8,234.3 541.6,234.1 542.3,233.9 543.1,233.8 543.8,233.6 544.6,233.3 545.3,233.1 546.1,232.8 546.8,232.6 547.6,232.3 548.3,231.9 549.1,231.6 549.8,231.2 550.6,230.9 551.3,230.4 552.1,230.0 552.8,229.5 553.6,229.0 554.3,228.5 555.1,227.9 555.8,227.3 556.6,226.6 557.4,225.9 558.1,225.2 558.9,224.4 559.6,223.6 560.4,222.7 561.1,221.8 561.9,220.9 562.6,219.8 563.4,218.8 564.1,217.7 564.9,216.5 565.6,215.3 566.4,214.0 567.1,212.6 567.9,211.2 568.6,209.8 569.4,208.2 570.1,206.7 570.9,205.0 571.6,203.3 572.4,201.5 573.1,199.7 573.9,197.8 574.6,195.8 575.4,193.8 576.2,191.7 576.9,189.5 577.7,187.3 578.4,185.0 579.2,182.7 579.9,180.3 580.7,177.9 581.4,175.4 582.2,172.8 582.9,170.2 583.7,167.6 584.4,164.9 585.2,162.2 585.9,159.4 586.7,156.6 587.4,153.8 588.2,151.0 588.9,148.1 589.7,145.3 590.4,142.4 591.2,139.5 591.9,136.6 592.7,133.7 593.4,130.9 594.2,128.0 594.9,125.2 595.7,122.4 596.5,119.7 597.2,117.0 598.0,114.3 598.7,111.7 599.5,109.1 600.2,106.6 601.0,104.2 601.7,101.9 602.5,99.6 603.2,97.4 604.0,95.3 604.7,93.4 605.5,91.5 606.2,89.7 607.0,88.0 607.7,86.5 608.5,85.1 609.2,83.8 610.0,82.6 610.7,81.5 611.5,80.6 612.2,79.9 613.0,79.2 613.7,78.7 614.5,78.4 615.2,78.2 616.0,78.1 616.8,78.2 617.5,78.4 618.3,78.7 619.0,79.2 619.8,79.9 620.5,80.6 621.3,81.5 622.0,82.6 622.8,83.8 623.5,85.1 624.3,86.5 625.0,88.0 625.8,89.7 626.5,91.5 627.3,93.4 628.0,95.3 628.8,97.4 629.5,99.6 630.3,101.9 631.0,104.2 631.8,106.6 632.5,109.1 633.3,111.7 634.0,114.3 634.8,117.0 635.5,119.7 636.3,122.4 637.1,125.2 637.8,128.0 638.6,130.9 639.3,133.7 640.1,136.6 640.8,139.5 641.6,142.4 642.3,145.3 643.1,148.1 643.8,151.0 644.6,153.8 645.3,156.6 646.1,159.4 646.8,162.2 647.6,164.9 648.3,167.6 649.1,170.2 649.8,172.8 650.6,175.4 651.3,177.9 652.1,180.3 652.8,182.7 653.6,185.0 654.3,187.3 655.1,189.5 655.8,191.7 656.6,193.8 657.4,195.8 658.1,197.8 658.9,199.7 659.6,201.5 660.4,203.3 661.1,205.0 661.9,206.7 662.6,208.2 663.4,209.8 664.1,211.2 664.9,212.6 665.6,214.0 666.4,215.3 667.1,216.5 667.9,217.7 668.6,218.8 669.4,219.8 670.1,220.9 670.9,221.8 671.6,222.7 672.4,223.6 673.1,224.4 673.9,225.2 674.6,225.9 675.4,226.6 676.2,227.3 676.9,227.9 677.7,228.5 678.4,229.0 679.2,229.5 679.9,230.0 680.7,230.4 681.4,230.9 682.2,231.2 682.9,231.6 683.7,231.9 684.4,232.3 685.2,232.6 685.9,232.8 686.7,233.1 687.4,233.3 688.2,233.6 688.9,233.8 689.7,233.9 690.4,234.1 691.2,234.3 691.9,234.4 692.7,234.6 693.4,234.7 694.2,234.8 694.9,234.9 695.7,235.0 696.5,235.1 697.2,235.2 698.0,235.3 698.7,235.3 699.5,235.4 700.2,235.5 701.0,235.5 701.7,235.6 702.5,235.6 703.2,235.6 704.0,235.7 704.7,235.7 705.5,235.7 706.2,235.8 707.0,235.8 707.7,235.8 708.5,235.8 709.2,235.8 710.0,235.9 710.7,235.9 711.5,235.9 712.2,235.9 713.0,235.9 713.7,235.9 714.5,235.9 715.2,235.9 716.0,235.9"/>
<polyline class="thin s1" points="416.0,236.0 416.8,236.0 417.5,236.0 418.3,236.0 419.0,236.0 419.8,236.0 420.5,236.0 421.3,236.0 422.0,236.0 422.8,236.0 423.5,236.0 424.3,236.0 425.0,236.0 425.8,236.0 426.5,236.0 427.3,236.0 428.0,236.0 428.8,236.0 429.5,236.0 430.3,236.0 431.0,236.0 431.8,236.0 432.5,236.0 433.3,236.0 434.0,236.0 434.8,236.0 435.5,236.0 436.3,236.0 437.1,236.0 437.8,236.0 438.6,236.0 439.3,236.0 440.1,236.0 440.8,235.9 441.6,235.9 442.3,235.9 443.1,235.9 443.8,235.9 444.6,235.9 445.3,235.9 446.1,235.9 446.8,235.9 447.6,235.9 448.3,235.8 449.1,235.8 449.8,235.8 450.6,235.8 451.3,235.7 452.1,235.7 452.8,235.7 453.6,235.6 454.3,235.6 455.1,235.6 455.8,235.5 456.6,235.5 457.4,235.4 458.1,235.4 458.9,235.3 459.6,235.2 460.4,235.1 461.1,235.0 461.9,234.9 462.6,234.8 463.4,234.7 464.1,234.6 464.9,234.5 465.6,234.3 466.4,234.2 467.1,234.0 467.9,233.8 468.6,233.6 469.4,233.4 470.1,233.2 470.9,232.9 471.6,232.6 472.4,232.3 473.1,232.0 473.9,231.7 474.6,231.3 475.4,231.0 476.2,230.5 476.9,230.1 477.7,229.6 478.4,229.1 479.2,228.6 479.9,228.0 480.7,227.4 481.4,226.8 482.2,226.1 482.9,225.4 483.7,224.6 484.4,223.8 485.2,223.0 485.9,222.1 486.7,221.1 487.4,220.1 488.2,219.1 488.9,217.9 489.7,216.8 490.4,215.6 491.2,214.3 491.9,213.0 492.7,211.6 493.4,210.1 494.2,208.6 494.9,207.1 495.7,205.4 496.5,203.7 497.2,202.0 498.0,200.1 498.7,198.2 499.5,196.3 500.2,194.3 501.0,192.2 501.7,190.1 502.5,187.9 503.2,185.6 504.0,183.3 504.7,180.9 505.5,178.5 506.2,176.0 507.0,173.4 507.7,170.9 508.5,168.2 509.2,165.6 510.0,162.9 510.7,160.1 511.5,157.3 512.2,154.5 513.0,151.7 513.7,148.8 514.5,146.0 515.2,143.1 516.0,140.2 516.8,137.3 517.5,134.5 518.3,131.6 519.0,128.8 519.8,125.9 520.5,123.1 521.3,120.4 522.0,117.6 522.8,115.0 523.5,112.3 524.3,109.8 525.0,107.3 525.8,104.8 526.5,102.5 527.3,100.2 528.0,98.0 528.8,95.9 529.5,93.9 530.3,91.9 531.0,90.1 531.8,88.4 532.5,86.9 533.3,85.4 534.0,84.1 534.8,82.9 535.5,81.8 536.3,80.9 537.1,80.0 537.8,79.4 538.6,78.8 539.3,78.4 540.1,78.2 540.8,78.1 541.6,78.1 542.3,78.3 543.1,78.6 543.8,79.1 544.6,79.7 545.3,80.4 546.1,81.3 546.8,82.3 547.6,83.5 548.3,84.7 549.1,86.1 549.8,87.6 550.6,89.3 551.3,91.0 552.1,92.9 552.8,94.8 553.6,96.9 554.3,99.1 555.1,101.3 555.8,103.6 556.6,106.0 557.4,108.5 558.1,111.0 558.9,113.6 559.6,116.3 560.4,119.0 561.1,121.7 561.9,124.5 562.6,127.3 563.4,130.2 564.1,133.0 564.9,135.9 565.6,138.8 566.4,141.7 567.1,144.5 567.9,147.4 568.6,150.3 569.4,153.1 570.1,155.9 570.9,158.7 571.6,161.5 572.4,164.2 573.1,166.9 573.9,169.6 574.6,172.2 575.4,174.7 576.2,177.2 576.9,179.7 577.7,182.1 578.4,184.4 579.2,186.7 579.9,189.0 580.7,191.1 581.4,193.2 582.2,195.3 582.9,197.3 583.7,199.2 584.4,201.1 585.2,202.8 585.9,204.6 586.7,206.2 587.4,207.8 588.2,209.4 588.9,210.9 589.7,212.3 590.4,213.6 591.2,214.9 591.9,216.2 592.7,217.4 593.4,218.5 594.2,219.6 594.9,220.6 595.7,221.6 596.5,222.5 597.2,223.4 598.0,224.2 598.7,225.0 599.5,225.7 600.2,226.4 601.0,227.1 601.7,227.7 602.5,228.3 603.2,228.9 604.0,229.4 604.7,229.9 605.5,230.3 606.2,230.7 607.0,231.1 607.7,231.5 608.5,231.9 609.2,232.2 610.0,232.5 610.7,232.8 611.5,233.0 612.2,233.3 613.0,233.5 613.7,233.7 614.5,233.9 615.2,234.1 616.0,234.2 616.8,234.4 617.5,234.5 618.3,234.7 619.0,234.8 619.8,234.9 620.5,235.0 621.3,235.1 622.0,235.2 622.8,235.2 623.5,235.3 624.3,235.4 625.0,235.4 625.8,235.5 626.5,235.5 627.3,235.6 628.0,235.6 628.8,235.7 629.5,235.7 630.3,235.7 631.0,235.8 631.8,235.8 632.5,235.8 633.3,235.8 634.0,235.8 634.8,235.9 635.5,235.9 636.3,235.9 637.1,235.9 637.8,235.9 638.6,235.9 639.3,235.9 640.1,235.9 640.8,235.9 641.6,236.0 642.3,236.0 643.1,236.0 643.8,236.0 644.6,236.0 645.3,236.0 646.1,236.0 646.8,236.0 647.6,236.0 648.3,236.0 649.1,236.0 649.8,236.0 650.6,236.0 651.3,236.0 652.1,236.0 652.8,236.0 653.6,236.0 654.3,236.0 655.1,236.0 655.8,236.0 656.6,236.0 657.4,236.0 658.1,236.0 658.9,236.0 659.6,236.0 660.4,236.0 661.1,236.0 661.9,236.0 662.6,236.0 663.4,236.0 664.1,236.0 664.9,236.0 665.6,236.0 666.4,236.0 667.1,236.0 667.9,236.0 668.6,236.0 669.4,236.0 670.1,236.0 670.9,236.0 671.6,236.0 672.4,236.0 673.1,236.0 673.9,236.0 674.6,236.0 675.4,236.0 676.2,236.0 676.9,236.0 677.7,236.0 678.4,236.0 679.2,236.0 679.9,236.0 680.7,236.0 681.4,236.0 682.2,236.0 682.9,236.0 683.7,236.0 684.4,236.0 685.2,236.0 685.9,236.0 686.7,236.0 687.4,236.0 688.2,236.0 688.9,236.0 689.7,236.0 690.4,236.0 691.2,236.0 691.9,236.0 692.7,236.0 693.4,236.0 694.2,236.0 694.9,236.0 695.7,236.0 696.5,236.0 697.2,236.0 698.0,236.0 698.7,236.0 699.5,236.0 700.2,236.0 701.0,236.0 701.7,236.0 702.5,236.0 703.2,236.0 704.0,236.0 704.7,236.0 705.5,236.0 706.2,236.0 707.0,236.0 707.7,236.0 708.5,236.0 709.2,236.0 710.0,236.0 710.7,236.0 711.5,236.0 712.2,236.0 713.0,236.0 713.7,236.0 714.5,236.0 715.2,236.0 716.0,236.0"/>
<polyline class="ln s1" points="416.0,236.0 416.8,236.0 417.5,236.0 418.3,236.0 419.0,236.0 419.8,236.0 420.5,236.0 421.3,236.0 422.0,236.0 422.8,236.0 423.5,236.0 424.3,236.0 425.0,236.0 425.8,236.0 426.5,236.0 427.3,236.0 428.0,236.0 428.8,236.0 429.5,236.0 430.3,236.0 431.0,236.0 431.8,236.0 432.5,236.0 433.3,236.0 434.0,236.0 434.8,236.0 435.5,236.0 436.3,236.0 437.1,236.0 437.8,236.0 438.6,236.0 439.3,236.0 440.1,236.0 440.8,236.0 441.6,236.0 442.3,236.0 443.1,236.0 443.8,236.0 444.6,236.0 445.3,236.0 446.1,236.0 446.8,236.0 447.6,236.0 448.3,236.0 449.1,236.0 449.8,236.0 450.6,236.0 451.3,236.0 452.1,236.0 452.8,236.0 453.6,236.0 454.3,236.0 455.1,236.0 455.8,236.0 456.6,236.0 457.4,236.0 458.1,236.0 458.9,236.0 459.6,236.0 460.4,236.0 461.1,236.0 461.9,236.0 462.6,236.0 463.4,236.0 464.1,236.0 464.9,236.0 465.6,236.0 466.4,235.9 467.1,235.9 467.9,235.9 468.6,235.9 469.4,235.9 470.1,235.9 470.9,235.9 471.6,235.9 472.4,235.9 473.1,235.8 473.9,235.8 474.6,235.8 475.4,235.8 476.2,235.8 476.9,235.7 477.7,235.7 478.4,235.7 479.2,235.6 479.9,235.6 480.7,235.5 481.4,235.5 482.2,235.4 482.9,235.4 483.7,235.3 484.4,235.2 485.2,235.2 485.9,235.1 486.7,235.0 487.4,234.9 488.2,234.8 488.9,234.6 489.7,234.5 490.4,234.4 491.2,234.2 491.9,234.0 492.7,233.9 493.4,233.7 494.2,233.4 494.9,233.2 495.7,233.0 496.5,232.7 497.2,232.4 498.0,232.1 498.7,231.8 499.5,231.4 500.2,231.0 501.0,230.6 501.7,230.2 502.5,229.7 503.2,229.3 504.0,228.7 504.7,228.2 505.5,227.6 506.2,226.9 507.0,226.3 507.7,225.6 508.5,224.8 509.2,224.0 510.0,223.2 510.7,222.3 511.5,221.3 512.2,220.4 513.0,219.3 513.7,218.2 514.5,217.1 515.2,215.9 516.0,214.6 516.8,213.3 517.5,211.9 518.3,210.5 519.0,209.0 519.8,207.5 520.5,205.8 521.3,204.2 522.0,202.4 522.8,200.6 523.5,198.7 524.3,196.8 525.0,194.8 525.8,192.7 526.5,190.6 527.3,188.4 528.0,186.2 528.8,183.9 529.5,181.5 530.3,179.1 531.0,176.6 531.8,174.1 532.5,171.5 533.3,168.9 534.0,166.2 534.8,163.5 535.5,160.8 536.3,158.0 537.1,155.2 537.8,152.4 538.6,149.6 539.3,146.7 540.1,143.8 540.8,140.9 541.6,138.1 542.3,135.2 543.1,132.3 543.8,129.5 544.6,126.6 545.3,123.8 546.1,121.1 546.8,118.3 547.6,115.6 548.3,113.0 549.1,110.4 549.8,107.9 550.6,105.4 551.3,103.0 552.1,100.7 552.8,98.5 553.6,96.4 554.3,94.3 555.1,92.4 555.8,90.6 556.6,88.9 557.4,87.3 558.1,85.8 558.9,84.4 559.6,83.2 560.4,82.1 561.1,81.1 561.9,80.2 562.6,79.5 563.4,79.0 564.1,78.5 564.9,78.2 565.6,78.1 566.4,78.1 567.1,78.2 567.9,78.5 568.6,79.0 569.4,79.5 570.1,80.2 570.9,81.1 571.6,82.1 572.4,83.2 573.1,84.4 573.9,85.8 574.6,87.3 575.4,88.9 576.2,90.6 576.9,92.4 577.7,94.3 578.4,96.4 579.2,98.5 579.9,100.7 580.7,103.0 581.4,105.4 582.2,107.9 582.9,110.4 583.7,113.0 584.4,115.6 585.2,118.3 585.9,121.1 586.7,123.8 587.4,126.6 588.2,129.5 588.9,132.3 589.7,135.2 590.4,138.1 591.2,140.9 591.9,143.8 592.7,146.7 593.4,149.6 594.2,152.4 594.9,155.2 595.7,158.0 596.5,160.8 597.2,163.5 598.0,166.2 598.7,168.9 599.5,171.5 600.2,174.1 601.0,176.6 601.7,179.1 602.5,181.5 603.2,183.9 604.0,186.2 604.7,188.4 605.5,190.6 606.2,192.7 607.0,194.8 607.7,196.8 608.5,198.7 609.2,200.6 610.0,202.4 610.7,204.2 611.5,205.8 612.2,207.5 613.0,209.0 613.7,210.5 614.5,211.9 615.2,213.3 616.0,214.6 616.8,215.9 617.5,217.1 618.3,218.2 619.0,219.3 619.8,220.4 620.5,221.3 621.3,222.3 622.0,223.2 622.8,224.0 623.5,224.8 624.3,225.6 625.0,226.3 625.8,226.9 626.5,227.6 627.3,228.2 628.0,228.7 628.8,229.3 629.5,229.7 630.3,230.2 631.0,230.6 631.8,231.0 632.5,231.4 633.3,231.8 634.0,232.1 634.8,232.4 635.5,232.7 636.3,233.0 637.1,233.2 637.8,233.4 638.6,233.7 639.3,233.9 640.1,234.0 640.8,234.2 641.6,234.4 642.3,234.5 643.1,234.6 643.8,234.8 644.6,234.9 645.3,235.0 646.1,235.1 646.8,235.2 647.6,235.2 648.3,235.3 649.1,235.4 649.8,235.4 650.6,235.5 651.3,235.5 652.1,235.6 652.8,235.6 653.6,235.7 654.3,235.7 655.1,235.7 655.8,235.8 656.6,235.8 657.4,235.8 658.1,235.8 658.9,235.8 659.6,235.9 660.4,235.9 661.1,235.9 661.9,235.9 662.6,235.9 663.4,235.9 664.1,235.9 664.9,235.9 665.6,235.9 666.4,236.0 667.1,236.0 667.9,236.0 668.6,236.0 669.4,236.0 670.1,236.0 670.9,236.0 671.6,236.0 672.4,236.0 673.1,236.0 673.9,236.0 674.6,236.0 675.4,236.0 676.2,236.0 676.9,236.0 677.7,236.0 678.4,236.0 679.2,236.0 679.9,236.0 680.7,236.0 681.4,236.0 682.2,236.0 682.9,236.0 683.7,236.0 684.4,236.0 685.2,236.0 685.9,236.0 686.7,236.0 687.4,236.0 688.2,236.0 688.9,236.0 689.7,236.0 690.4,236.0 691.2,236.0 691.9,236.0 692.7,236.0 693.4,236.0 694.2,236.0 694.9,236.0 695.7,236.0 696.5,236.0 697.2,236.0 698.0,236.0 698.7,236.0 699.5,236.0 700.2,236.0 701.0,236.0 701.7,236.0 702.5,236.0 703.2,236.0 704.0,236.0 704.7,236.0 705.5,236.0 706.2,236.0 707.0,236.0 707.7,236.0 708.5,236.0 709.2,236.0 710.0,236.0 710.7,236.0 711.5,236.0 712.2,236.0 713.0,236.0 713.7,236.0 714.5,236.0 715.2,236.0 716.0,236.0"/>
<polyline class="dash s1" points="416.0,236.0 416.8,236.0 417.5,236.0 418.3,236.0 419.0,236.0 419.8,236.0 420.5,236.0 421.3,236.0 422.0,236.0 422.8,236.0 423.5,236.0 424.3,236.0 425.0,236.0 425.8,236.0 426.5,236.0 427.3,236.0 428.0,236.0 428.8,236.0 429.5,236.0 430.3,236.0 431.0,236.0 431.8,236.0 432.5,236.0 433.3,236.0 434.0,236.0 434.8,236.0 435.5,236.0 436.3,236.0 437.1,236.0 437.8,236.0 438.6,236.0 439.3,236.0 440.1,236.0 440.8,236.0 441.6,236.0 442.3,236.0 443.1,236.0 443.8,236.0 444.6,236.0 445.3,236.0 446.1,236.0 446.8,236.0 447.6,236.0 448.3,236.0 449.1,236.0 449.8,236.0 450.6,236.0 451.3,236.0 452.1,236.0 452.8,236.0 453.6,236.0 454.3,236.0 455.1,236.0 455.8,236.0 456.6,236.0 457.4,236.0 458.1,236.0 458.9,236.0 459.6,236.0 460.4,236.0 461.1,236.0 461.9,236.0 462.6,236.0 463.4,236.0 464.1,236.0 464.9,236.0 465.6,236.0 466.4,236.0 467.1,236.0 467.9,236.0 468.6,236.0 469.4,236.0 470.1,236.0 470.9,236.0 471.6,236.0 472.4,236.0 473.1,236.0 473.9,236.0 474.6,236.0 475.4,236.0 476.2,236.0 476.9,236.0 477.7,236.0 478.4,236.0 479.2,236.0 479.9,236.0 480.7,236.0 481.4,236.0 482.2,236.0 482.9,236.0 483.7,236.0 484.4,236.0 485.2,236.0 485.9,236.0 486.7,236.0 487.4,236.0 488.2,236.0 488.9,236.0 489.7,236.0 490.4,236.0 491.2,235.9 491.9,235.9 492.7,235.9 493.4,235.9 494.2,235.9 494.9,235.9 495.7,235.9 496.5,235.9 497.2,235.9 498.0,235.8 498.7,235.8 499.5,235.8 500.2,235.8 501.0,235.8 501.7,235.7 502.5,235.7 503.2,235.7 504.0,235.6 504.7,235.6 505.5,235.5 506.2,235.5 507.0,235.4 507.7,235.4 508.5,235.3 509.2,235.2 510.0,235.2 510.7,235.1 511.5,235.0 512.2,234.9 513.0,234.8 513.7,234.7 514.5,234.5 515.2,234.4 516.0,234.2 516.8,234.1 517.5,233.9 518.3,233.7 519.0,233.5 519.8,233.3 520.5,233.0 521.3,232.8 522.0,232.5 522.8,232.2 523.5,231.9 524.3,231.5 525.0,231.1 525.8,230.7 526.5,230.3 527.3,229.9 528.0,229.4 528.8,228.9 529.5,228.3 530.3,227.7 531.0,227.1 531.8,226.4 532.5,225.7 533.3,225.0 534.0,224.2 534.8,223.4 535.5,222.5 536.3,221.6 537.1,220.6 537.8,219.6 538.6,218.5 539.3,217.4 540.1,216.2 540.8,214.9 541.6,213.6 542.3,212.3 543.1,210.9 543.8,209.4 544.6,207.8 545.3,206.2 546.1,204.6 546.8,202.8 547.6,201.1 548.3,199.2 549.1,197.3 549.8,195.3 550.6,193.2 551.3,191.1 552.1,189.0 552.8,186.7 553.6,184.4 554.3,182.1 555.1,179.7 555.8,177.2 556.6,174.7 557.4,172.2 558.1,169.6 558.9,166.9 559.6,164.2 560.4,161.5 561.1,158.7 561.9,155.9 562.6,153.1 563.4,150.3 564.1,147.4 564.9,144.5 565.6,141.7 566.4,138.8 567.1,135.9 567.9,133.0 568.6,130.2 569.4,127.3 570.1,124.5 570.9,121.7 571.6,119.0 572.4,116.3 573.1,113.6 573.9,111.0 574.6,108.5 575.4,106.0 576.2,103.6 576.9,101.3 577.7,99.1 578.4,96.9 579.2,94.8 579.9,92.9 580.7,91.0 581.4,89.3 582.2,87.6 582.9,86.1 583.7,84.7 584.4,83.5 585.2,82.3 585.9,81.3 586.7,80.4 587.4,79.7 588.2,79.1 588.9,78.6 589.7,78.3 590.4,78.1 591.2,78.1 591.9,78.2 592.7,78.4 593.4,78.8 594.2,79.4 594.9,80.0 595.7,80.9 596.5,81.8 597.2,82.9 598.0,84.1 598.7,85.4 599.5,86.9 600.2,88.4 601.0,90.1 601.7,91.9 602.5,93.9 603.2,95.9 604.0,98.0 604.7,100.2 605.5,102.5 606.2,104.8 607.0,107.3 607.7,109.8 608.5,112.3 609.2,115.0 610.0,117.6 610.7,120.4 611.5,123.1 612.2,125.9 613.0,128.8 613.7,131.6 614.5,134.5 615.2,137.3 616.0,140.2 616.8,143.1 617.5,146.0 618.3,148.8 619.0,151.7 619.8,154.5 620.5,157.3 621.3,160.1 622.0,162.9 622.8,165.6 623.5,168.2 624.3,170.9 625.0,173.4 625.8,176.0 626.5,178.5 627.3,180.9 628.0,183.3 628.8,185.6 629.5,187.9 630.3,190.1 631.0,192.2 631.8,194.3 632.5,196.3 633.3,198.2 634.0,200.1 634.8,202.0 635.5,203.7 636.3,205.4 637.1,207.1 637.8,208.6 638.6,210.1 639.3,211.6 640.1,213.0 640.8,214.3 641.6,215.6 642.3,216.8 643.1,217.9 643.8,219.1 644.6,220.1 645.3,221.1 646.1,222.1 646.8,223.0 647.6,223.8 648.3,224.6 649.1,225.4 649.8,226.1 650.6,226.8 651.3,227.4 652.1,228.0 652.8,228.6 653.6,229.1 654.3,229.6 655.1,230.1 655.8,230.5 656.6,231.0 657.4,231.3 658.1,231.7 658.9,232.0 659.6,232.3 660.4,232.6 661.1,232.9 661.9,233.2 662.6,233.4 663.4,233.6 664.1,233.8 664.9,234.0 665.6,234.2 666.4,234.3 667.1,234.5 667.9,234.6 668.6,234.7 669.4,234.8 670.1,234.9 670.9,235.0 671.6,235.1 672.4,235.2 673.1,235.3 673.9,235.4 674.6,235.4 675.4,235.5 676.2,235.5 676.9,235.6 677.7,235.6 678.4,235.6 679.2,235.7 679.9,235.7 680.7,235.7 681.4,235.8 682.2,235.8 682.9,235.8 683.7,235.8 684.4,235.9 685.2,235.9 685.9,235.9 686.7,235.9 687.4,235.9 688.2,235.9 688.9,235.9 689.7,235.9 690.4,235.9 691.2,235.9 691.9,236.0 692.7,236.0 693.4,236.0 694.2,236.0 694.9,236.0 695.7,236.0 696.5,236.0 697.2,236.0 698.0,236.0 698.7,236.0 699.5,236.0 700.2,236.0 701.0,236.0 701.7,236.0 702.5,236.0 703.2,236.0 704.0,236.0 704.7,236.0 705.5,236.0 706.2,236.0 707.0,236.0 707.7,236.0 708.5,236.0 709.2,236.0 710.0,236.0 710.7,236.0 711.5,236.0 712.2,236.0 713.0,236.0 713.7,236.0 714.5,236.0 715.2,236.0 716.0,236.0"/>
<text class="sm" x="512.0" y="65.8" text-anchor="start">p</text>
<text class="sm" x="612.0" y="65.8" text-anchor="start">q</text>
<text class="sm" x="60" y="290">p = N(−2, 1), q = N(2, 1); curves at t = 0.25 (thin), 0.5 (bold), 0.75 (dashed). The arithmetic mixture has two humps, kurtosis −1.28 at t = 0.5;</text>
<text class="sm" x="60" y="308">the geometric mixture is always one Gaussian, here N(0, 1) at t = 0.5, sliding from p to q with ψ(t) = −8 t (1 − t).</text>
</svg>
